<?xml version="1.0" standalone="no"?>
<!DOCTYPE svg PUBLIC "-//W3C//DTD SVG 20010904//EN"
 "http://www.w3.org/TR/2001/REC-SVG-20010904/DTD/svg10.dtd">
<svg version="1.0" xmlns="http://www.w3.org/2000/svg"
 width="500.000000pt" height="500.000000pt" viewBox="0 0 500.000000 500.000000"
 preserveAspectRatio="xMidYMid meet">
<metadata>
Created by potrace 1.14, written by Peter Selinger 2001-2017
</metadata>
<g transform="translate(0.000000,500.000000) scale(0.100000,-0.100000)"
fill="#000000" stroke="none">
<path d="M2312 4021 c-154 -39 -320 -146 -418 -269 -66 -84 -130 -221 -150
-321 -22 -113 -15 -287 16 -386 63 -203 212 -375 405 -470 232 -114 534 -99
748 38 128 82 259 238 307 364 39 101 49 164 49 293 1 154 -15 225 -76 350
-39 79 -62 110 -138 186 -102 103 -189 159 -310 200 -108 37 -319 44 -433 15z
m348 -11 c268 -55 497 -269 571 -535 33 -114 33 -297 1 -410 -84 -292 -349
-518 -641 -544 -255 -23 -451 46 -621 218 -150 152 -209 288 -218 497 -8 223
50 388 194 542 194 209 439 289 714 232z"/>
<path d="M2435 3698 c-11 -6 -22 -12 -24 -14 -2 -2 6 -16 18 -33 50 -70 48
-121 -5 -121 -37 0 -36 -15 4 -35 50 -25 100 -26 144 -4 21 11 44 19 53 19 26
0 16 16 -19 28 -22 8 -38 23 -46 42 -16 38 -51 85 -81 109 -19 15 -29 17 -44
9z m60 -49 c14 -18 35 -49 45 -70 11 -21 27 -42 37 -47 14 -8 13 -12 -13 -24
-26 -13 -114 -14 -114 -1 0 3 10 13 21 22 26 21 20 62 -16 116 -23 32 -23 35
-6 35 11 0 31 -14 46 -31z"/>
<path d="M1870 3460 c0 -5 20 -21 43 -35 45 -26 92 -34 85 -14 -5 14 -128 61
-128 49z"/>
<path d="M3075 3445 c-60 -23 -83 -45 -45 -45 35 0 125 52 109 64 -2 1 -31 -8
-64 -19z"/>
<path d="M1870 3265 c41 -16 90 -19 90 -6 0 14 -28 21 -78 20 l-47 -1 35 -13z"/>
<path d="M3067 3273 c-18 -17 -4 -25 35 -19 68 11 81 25 22 26 -28 0 -54 -3
-57 -7z"/>
<path d="M1902 3118 c-49 -11 -47 -28 4 -28 38 0 74 15 74 30 0 12 -20 11 -78
-2z"/>
<path d="M3035 3120 c-8 -12 36 -30 75 -30 46 0 44 17 -5 29 -54 14 -62 14
-70 1z"/>
<path d="M1985 3004 c-38 -19 -64 -44 -47 -44 20 0 92 39 92 50 0 14 -10 12
-45 -6z"/>
<path d="M2985 3011 c-6 -11 82 -57 91 -48 4 4 -1 14 -12 22 -27 20 -73 35
-79 26z"/>
<path d="M1760 2370 c0 -18 7 -20 98 -22 97 -2 97 -2 19 -5 l-78 -4 2 -96 c2
-89 0 -98 -21 -115 -18 -15 -20 -21 -10 -33 12 -14 15 -14 30 0 21 19 40 19
40 2 0 -8 10 -19 23 -24 19 -9 15 -11 -35 -18 -48 -6 -58 -11 -58 -26 0 -24
11 -24 125 0 87 17 92 17 173 0 86 -19 102 -18 102 6 0 9 -17 16 -45 21 -58 8
-62 17 -20 37 26 13 35 23 35 42 0 14 -5 25 -12 25 -9 0 -9 3 0 12 7 7 12 43
12 90 l0 77 -77 4 -78 3 93 2 c85 2 92 4 92 22 0 19 -7 20 -205 20 -198 0
-205 -1 -205 -20z m278 -77 c-38 -2 -98 -2 -135 0 -38 2 -7 3 67 3 74 0 105
-1 68 -3z m0 -90 c-38 -2 -98 -2 -135 0 -38 2 -7 3 67 3 74 0 105 -1 68 -3z
m5 -50 c-35 -2 -91 -2 -125 0 -35 2 -7 3 62 3 69 0 97 -1 63 -3z m-26 -55
c-19 -7 -44 -7 -75 0 -47 10 -47 10 28 10 62 0 70 -1 47 -10z"/>
<path d="M2480 2375 c0 -12 -17 -15 -95 -15 -88 0 -95 -1 -95 -20 0 -19 7 -20
95 -20 57 0 95 -4 95 -10 0 -6 -35 -10 -85 -10 l-85 0 0 -145 c0 -121 2 -145
15 -145 12 0 15 23 17 123 l3 122 153 3 152 3 0 -106 0 -105 -25 0 c-18 0 -25
-5 -25 -20 0 -16 7 -20 33 -20 53 0 57 10 57 160 l0 136 -85 -4 c-59 -3 -85
-1 -85 7 0 7 31 11 95 11 88 0 95 1 95 20 0 19 -7 20 -95 20 -78 0 -95 3 -95
15 0 8 -9 15 -20 15 -11 0 -20 -7 -20 -15z"/>
<path d="M3028 2383 l-148 -4 0 -110 c0 -95 -4 -119 -26 -175 -24 -61 -25 -84
-3 -84 6 0 22 26 36 57 22 48 27 77 31 165 l5 108 40 0 40 0 -5 -108 c-3 -86
-9 -118 -27 -156 -13 -26 -20 -50 -17 -53 4 -4 37 -2 74 5 57 10 69 9 78 -3 6
-9 19 -13 27 -9 14 5 12 14 -13 65 -22 42 -34 57 -45 53 -17 -7 -19 -18 -5
-44 8 -15 5 -18 -25 -22 -32 -4 -34 -2 -28 17 17 53 23 97 23 173 l0 82 44 0
43 0 5 -97 c4 -71 11 -112 27 -150 27 -60 56 -92 72 -76 7 7 1 28 -22 69 -30
53 -34 68 -37 157 -4 94 -3 98 17 104 25 6 25 37 1 38 -8 1 -81 -1 -162 -2z"/>
<path d="M2395 2230 c-4 -6 -1 -17 5 -25 10 -12 9 -15 -4 -15 -9 0 -16 -8 -16
-20 0 -17 7 -20 50 -20 43 0 50 -3 50 -20 0 -18 -7 -20 -60 -20 -53 0 -60 -2
-60 -20 0 -18 7 -20 60 -20 l60 0 0 -30 c0 -23 4 -30 20 -30 16 0 20 7 20 30
l0 30 60 0 c53 0 60 2 60 20 0 18 -7 20 -60 20 -53 0 -60 2 -60 20 0 17 7 20
50 20 43 0 50 3 50 20 0 12 -7 20 -17 20 -13 0 -14 3 -5 12 16 16 15 25 -4 32
-10 4 -23 -3 -36 -19 -28 -35 -92 -35 -120 0 -21 27 -33 31 -43 15z"/>
<path d="M2481 1833 c-5 -11 -21 -25 -35 -33 -14 -7 -26 -16 -26 -20 0 -4 36
-7 80 -7 44 0 80 4 80 8 0 5 -4 9 -10 9 -5 0 -25 14 -44 30 -32 29 -35 30 -45
13z m39 -28 c11 -13 8 -15 -20 -15 -28 0 -31 2 -20 15 7 8 16 15 20 15 4 0 13
-7 20 -15z"/>
<path d="M1777 1828 c-9 -6 -9 -8 1 -8 20 0 15 -58 -5 -63 -17 -4 -17 -5 0 -6
21 -1 22 -10 1 -25 -9 -7 -12 -18 -8 -29 5 -14 19 -17 75 -17 39 0 69 4 69 10
0 6 -14 10 -32 10 -17 0 -28 3 -25 7 4 3 21 6 39 5 29 -1 31 1 16 12 -10 7
-18 16 -18 19 0 3 8 8 18 10 16 4 16 5 0 6 -13 1 -18 10 -18 31 0 17 5 30 12
30 6 0 8 3 5 6 -9 10 -116 11 -130 2z m81 -15 c-10 -2 -26 -2 -35 0 -10 3 -2
5 17 5 19 0 27 -2 18 -5z m0 -30 c-10 -2 -26 -2 -35 0 -10 3 -2 5 17 5 19 0
27 -2 18 -5z m0 -20 c-10 -2 -26 -2 -35 0 -10 3 -2 5 17 5 19 0 27 -2 18 -5z
m7 -24 c11 -16 -5 -25 -16 -9 -8 13 -10 13 -18 0 -6 -8 -13 -11 -16 -8 -11 11
5 28 25 28 10 0 22 -5 25 -11z m-35 -35 c0 -2 -15 -4 -32 -4 -23 0 -29 3 -19
9 12 8 51 4 51 -5z"/>
<path d="M2020 1813 c-36 -25 -52 -47 -28 -38 8 3 25 1 39 -4 l24 -10 -27 0
c-24 -1 -53 -21 -30 -21 5 0 12 -9 15 -20 4 -15 0 -20 -15 -20 -10 0 -16 -4
-13 -10 3 -5 37 -10 75 -10 38 0 72 5 75 10 3 6 -3 10 -13 10 -15 0 -19 5 -15
20 3 11 10 20 15 20 23 0 -6 20 -30 21 l-27 0 24 10 c14 5 31 7 38 5 7 -3 13
-1 13 3 0 7 -61 51 -80 57 -3 1 -21 -9 -40 -23z m60 -8 c11 -13 8 -15 -20 -15
-28 0 -31 2 -20 15 7 8 16 15 20 15 4 0 13 -7 20 -15z m-30 -85 c0 -11 -4 -20
-9 -20 -5 0 -11 9 -14 20 -3 13 0 20 9 20 8 0 14 -9 14 -20z m41 7 c-6 -8 -8
-17 -4 -20 3 -4 1 -7 -5 -7 -7 0 -12 9 -12 20 0 12 7 20 16 20 13 0 14 -3 5
-13z"/>
<path d="M2216 1815 c-20 -30 -20 -35 -1 -35 12 0 13 -4 5 -19 -14 -27 -13
-31 9 -31 23 0 37 16 19 22 -8 3 -7 11 5 28 17 24 17 24 16 -30 0 -30 -3 -50
-5 -44 -6 13 -64 6 -64 -8 0 -6 11 -7 24 -4 14 3 28 2 31 -4 3 -5 28 -10 54
-10 l47 0 -4 68 c-2 37 -5 73 -7 80 -6 16 -75 16 -75 -1 0 -7 -9 -18 -20 -25
-22 -14 -25 -9 -10 19 15 28 -5 23 -24 -6z m114 -10 c0 -8 -9 -15 -20 -15 -11
0 -20 7 -20 15 0 8 9 15 20 15 11 0 20 -7 20 -15z m0 -45 c0 -5 -9 -10 -20
-10 -11 0 -20 5 -20 10 0 6 9 10 20 10 11 0 20 -4 20 -10z m0 -45 c0 -8 -9
-15 -20 -15 -11 0 -20 7 -20 15 0 8 9 15 20 15 11 0 20 -7 20 -15z"/>
<path d="M2670 1800 l0 -40 50 0 c35 0 48 -4 45 -12 -4 -9 -24 -12 -65 -10
-39 3 -60 0 -60 -7 0 -7 23 -11 60 -11 33 0 60 -4 60 -10 0 -5 -7 -10 -15 -10
-8 0 -15 -5 -15 -11 0 -6 10 -9 23 -7 19 3 22 10 25 51 l3 47 -45 0 c-26 0
-46 5 -46 10 0 6 23 10 50 10 28 0 50 5 50 10 0 6 -22 10 -50 10 -27 0 -50 5
-50 10 0 6 -4 10 -10 10 -5 0 -10 -18 -10 -40z"/>
<path d="M2880 1816 c0 -13 -6 -27 -12 -29 -7 -3 21 -6 63 -6 l76 -1 -5 30
c-4 29 -5 30 -63 30 -56 0 -59 -1 -59 -24z m83 7 c-13 -2 -33 -2 -45 0 -13 2
-3 4 22 4 25 0 35 -2 23 -4z m0 -20 c-13 -2 -33 -2 -45 0 -13 2 -3 4 22 4 25
0 35 -2 23 -4z"/>
<path d="M3100 1798 c-14 -27 -18 -44 -11 -46 6 -2 11 -19 11 -38 0 -19 5 -34
10 -34 6 0 10 9 10 19 0 10 7 22 16 25 22 9 22 8 26 -16 2 -16 11 -24 29 -26
26 -3 58 23 44 36 -4 4 -10 1 -12 -5 -3 -7 -13 -13 -24 -13 -29 0 -25 48 8 82
14 15 23 31 19 35 -4 5 -16 -3 -27 -16 l-19 -23 0 31 c0 17 -4 31 -10 31 -5 0
-10 -17 -10 -38 0 -36 -14 -62 -32 -62 -11 0 -10 43 2 74 15 42 -6 30 -30 -16z"/>
<path d="M2880 1745 c0 -20 5 -25 28 -26 l27 -1 -30 -8 -30 -8 30 -2 c28 -3
27 -3 -10 -10 -31 -6 -23 -7 40 -7 59 0 71 2 45 7 l-35 7 30 3 30 2 -30 8 -30
8 28 1 c22 1 27 6 27 26 0 24 -3 25 -60 25 -57 0 -60 -1 -60 -25z m47 9 c-3
-3 -12 -4 -19 -1 -8 3 -5 6 6 6 11 1 17 -2 13 -5z m50 0 c-3 -3 -12 -4 -19 -1
-8 3 -5 6 6 6 11 1 17 -2 13 -5z m-50 -20 c-3 -3 -12 -4 -19 -1 -8 3 -5 6 6 6
11 1 17 -2 13 -5z m50 0 c-3 -3 -12 -4 -19 -1 -8 3 -5 6 6 6 11 1 17 -2 13 -5z"/>
<path d="M2440 1718 l0 -33 60 0 60 0 0 33 0 32 -60 0 -60 0 0 -32z m100 2 c0
-17 -7 -20 -40 -20 -33 0 -40 3 -40 20 0 17 7 20 40 20 33 0 40 -3 40 -20z"/>
<path d="M2340 1562 c-45 -22 -62 -56 -56 -112 9 -97 116 -132 187 -60 23 23
29 37 29 72 0 52 -21 85 -66 104 -43 18 -52 18 -94 -4z m48 -49 c-4 -22 -22
-20 -26 1 -2 10 3 16 13 16 10 0 15 -7 13 -17z m37 -3 c0 -7 -6 -15 -12 -17
-8 -3 -13 4 -13 17 0 13 5 20 13 18 6 -3 12 -11 12 -18z m-67 -27 c-4 -22 -22
-20 -26 1 -2 10 3 16 13 16 10 0 15 -7 13 -17z m92 -8 c0 -8 -5 -15 -11 -15
-6 0 -8 -9 -4 -21 9 -28 -5 -36 -55 -31 -45 5 -49 16 -19 51 17 21 23 23 40
13 16 -10 19 -9 19 3 0 8 7 15 15 15 8 0 15 -7 15 -15z"/>
<path d="M2411 1434 c0 -11 3 -14 6 -6 3 7 2 16 -1 19 -3 4 -6 -2 -5 -13z"/>
<path d="M2746 1564 c-20 -19 -23 -183 -4 -202 8 -8 45 -12 99 -12 114 0 119
5 119 115 0 110 -5 115 -115 115 -63 0 -88 -4 -99 -16z m129 -48 l40 -1 3 -52
c2 -38 -1 -53 -10 -54 -64 -7 -77 -6 -83 9 -5 13 -8 12 -21 -6 -21 -31 -40
-28 -20 3 20 30 20 32 -1 38 -15 4 -15 6 5 12 12 4 22 13 22 21 0 8 -6 11 -15
8 -9 -4 -15 0 -15 8 0 22 11 29 34 22 11 -4 39 -7 61 -8z"/>
<path d="M2820 1485 c0 -8 7 -15 15 -15 8 0 15 7 15 15 0 8 -7 15 -15 15 -8 0
-15 -7 -15 -15z"/>
<path d="M2870 1459 c0 -52 24 -48 28 4 2 28 -1 37 -12 37 -12 0 -16 -11 -16
-41z"/>
<path d="M2820 1446 c0 -2 7 -9 15 -16 12 -10 15 -10 15 4 0 9 -7 16 -15 16
-8 0 -15 -2 -15 -4z"/>
<path d="M2073 1532 c-21 -3 -23 -9 -23 -68 l0 -64 73 0 c39 0 89 3 110 6 l37
7 0 64 0 64 -87 -3 c-49 -1 -98 -4 -110 -6z m75 -69 c8 -34 7 -43 -3 -43 -7 0
-16 6 -19 13 -5 10 -7 10 -12 0 -3 -7 -18 -13 -32 -13 -26 1 -26 1 -8 15 20
15 20 15 0 15 -14 0 -15 3 -6 9 7 4 12 12 11 17 -4 23 2 36 16 31 8 -4 17 -1
21 4 9 16 20 -1 32 -48z m102 49 c0 -4 -5 -13 -12 -20 -9 -9 -9 -12 0 -12 7 0
12 -12 12 -26 0 -18 -4 -25 -14 -21 -8 3 -17 3 -20 -1 -4 -3 -15 -6 -26 -7
-23 -2 -38 44 -18 56 9 6 10 9 1 9 -7 0 -10 7 -7 15 6 16 84 22 84 7z"/>
</g>
</svg>
