<?xml version="1.0" encoding="UTF-8" standalone="no"?><svg xmlns="http://www.w3.org/2000/svg" xmlns:xlink="http://www.w3.org/1999/xlink" contentStyleType="text/css" height="1220px" preserveAspectRatio="none" style="width:1345px;height:1220px;background:#FFFFFF;" version="1.1" viewBox="0 0 1345 1220" width="1345px" zoomAndPan="magnify"><defs/><g><rect fill="#F1F1F1" height="36.4883" rx="12.5" ry="12.5" style="stroke:#181818;stroke-width:1.5;" width="216" x="10" y="590.8359"/><text fill="#000000" font-family="sans-serif" font-size="14" lengthAdjust="spacing" textLength="196" x="20" y="614.3711">终身写作：培养自己，终身践行</text><rect fill="#F1F1F1" height="36.4883" rx="12.5" ry="12.5" style="stroke:#181818;stroke-width:1.5;" width="146" x="276" y="76.4883"/><text fill="#000000" font-family="sans-serif" font-size="14" lengthAdjust="spacing" textLength="126" x="286" y="100.0234">过度瓶颈，持续输出</text><rect fill="#F1F1F1" height="36.4883" rx="12.5" ry="12.5" style="stroke:#181818;stroke-width:1.5;" width="104" x="472" y="20"/><text fill="#000000" font-family="sans-serif" font-size="14" lengthAdjust="spacing" textLength="84" x="482" y="43.5352">解决心态问题</text><path d="M422,94.7324 L432,94.7324 C447,94.7324 447,38.2441 462,38.2441 L472,38.2441 " fill="none" style="stroke:#181818;stroke-width:1.0;"/><rect fill="#F1F1F1" height="36.4883" rx="12.5" ry="12.5" style="stroke:#181818;stroke-width:1.5;" width="104" x="472" y="76.4883"/><text fill="#000000" font-family="sans-serif" font-size="14" lengthAdjust="spacing" textLength="84" x="482" y="100.0234">扩大涉猎范围</text><path d="M422,94.7324 L432,94.7324 C447,94.7324 447,94.7324 462,94.7324 L472,94.7324 " fill="none" style="stroke:#181818;stroke-width:1.0;"/><rect fill="#F1F1F1" height="36.4883" rx="12.5" ry="12.5" style="stroke:#181818;stroke-width:1.5;" width="104" x="472" y="132.9766"/><text fill="#000000" font-family="sans-serif" font-size="14" lengthAdjust="spacing" textLength="84" x="482" y="156.5117">提升专注能力</text><path d="M422,94.7324 L432,94.7324 C447,94.7324 447,151.2207 462,151.2207 L472,151.2207 " fill="none" style="stroke:#181818;stroke-width:1.0;"/><path d="M226,609.0801 L236,609.0801 C251,609.0801 251,94.7324 266,94.7324 L276,94.7324 " fill="none" style="stroke:#181818;stroke-width:1.0;"/><rect fill="#F1F1F1" height="36.4883" rx="12.5" ry="12.5" style="stroke:#181818;stroke-width:1.5;" width="146" x="276" y="302.4414"/><text fill="#000000" font-family="sans-serif" font-size="14" lengthAdjust="spacing" textLength="126" x="286" y="325.9766">培养自己，终身写作</text><rect fill="#F1F1F1" height="36.4883" rx="12.5" ry="12.5" style="stroke:#181818;stroke-width:1.5;" width="146" x="472" y="189.4648"/><text fill="#000000" font-family="sans-serif" font-size="14" lengthAdjust="spacing" textLength="126" x="482" y="213">定下写作中长期目标</text><path d="M422,320.6855 L432,320.6855 C447,320.6855 447,207.709 462,207.709 L472,207.709 " fill="none" style="stroke:#181818;stroke-width:1.0;"/><rect fill="#F1F1F1" height="36.4883" rx="12.5" ry="12.5" style="stroke:#181818;stroke-width:1.5;" width="174" x="472" y="245.9531"/><text fill="#000000" font-family="sans-serif" font-size="14" lengthAdjust="spacing" textLength="154" x="482" y="269.4883">让写作成为一种生活方式</text><path d="M422,320.6855 L432,320.6855 C447,320.6855 447,264.1973 462,264.1973 L472,264.1973 " fill="none" style="stroke:#181818;stroke-width:1.0;"/><rect fill="#F1F1F1" height="36.4883" rx="12.5" ry="12.5" style="stroke:#181818;stroke-width:1.5;" width="174" x="472" y="302.4414"/><text fill="#000000" font-family="sans-serif" font-size="14" lengthAdjust="spacing" textLength="154" x="482" y="325.9766">让自己从写作中不断获益</text><path d="M422,320.6855 L432,320.6855 C447,320.6855 447,320.6855 462,320.6855 L472,320.6855 " fill="none" style="stroke:#181818;stroke-width:1.0;"/><rect fill="#F1F1F1" height="36.4883" rx="12.5" ry="12.5" style="stroke:#181818;stroke-width:1.5;" width="188" x="472" y="358.9297"/><text fill="#000000" font-family="sans-serif" font-size="14" lengthAdjust="spacing" textLength="168" x="482" y="382.4648">加入一个有温度的写作组织</text><path d="M422,320.6855 L432,320.6855 C447,320.6855 447,377.1738 462,377.1738 L472,377.1738 " fill="none" style="stroke:#181818;stroke-width:1.0;"/><rect fill="#F1F1F1" height="36.4883" rx="12.5" ry="12.5" style="stroke:#181818;stroke-width:1.5;" width="174" x="472" y="415.418"/><text fill="#000000" font-family="sans-serif" font-size="14" lengthAdjust="spacing" textLength="154" x="482" y="438.9531">耐得往寂寞，经得起诱惑</text><path d="M422,320.6855 L432,320.6855 C447,320.6855 447,433.6621 462,433.6621 L472,433.6621 " fill="none" style="stroke:#181818;stroke-width:1.0;"/><path d="M226,609.0801 L236,609.0801 C251,609.0801 251,320.6855 266,320.6855 L276,320.6855 " fill="none" style="stroke:#181818;stroke-width:1.0;"/><rect fill="#F1F1F1" height="36.4883" rx="12.5" ry="12.5" style="stroke:#181818;stroke-width:1.5;" width="188" x="276" y="679.0801"/><text fill="#000000" font-family="sans-serif" font-size="14" lengthAdjust="spacing" textLength="168" x="286" y="702.6152">打造个人品牌，增加影响力</text><rect fill="#F1F1F1" height="36.4883" rx="12.5" ry="12.5" style="stroke:#181818;stroke-width:1.5;" width="160" x="514" y="528.3945"/><text fill="#000000" font-family="sans-serif" font-size="14" lengthAdjust="spacing" textLength="140" x="524" y="551.9297">为什么要打造个人品牌</text><rect fill="#F1F1F1" height="36.4883" rx="12.5" ry="12.5" style="stroke:#181818;stroke-width:1.5;" width="216" x="724" y="471.9063"/><text fill="#000000" font-family="sans-serif" font-size="14" lengthAdjust="spacing" textLength="196" x="734" y="495.4414">每个人身上的标签就是个人品牌</text><path d="M674,546.6387 L684,546.6387 C699,546.6387 699,490.1504 714,490.1504 L724,490.1504 " fill="none" style="stroke:#181818;stroke-width:1.0;"/><rect fill="#F1F1F1" height="36.4883" rx="12.5" ry="12.5" style="stroke:#181818;stroke-width:1.5;" width="202" x="724" y="528.3945"/><text fill="#000000" font-family="sans-serif" font-size="14" lengthAdjust="spacing" textLength="182" x="734" y="551.9297">好的个从品牌可以更好的变现</text><path d="M674,546.6387 L684,546.6387 C699,546.6387 699,546.6387 714,546.6387 L724,546.6387 " fill="none" style="stroke:#181818;stroke-width:1.0;"/><rect fill="#F1F1F1" height="36.4883" rx="12.5" ry="12.5" style="stroke:#181818;stroke-width:1.5;" width="230" x="724" y="584.8828"/><text fill="#000000" font-family="sans-serif" font-size="14" lengthAdjust="spacing" textLength="210" x="734" y="608.418">好的个人品牌可以影响他人的生命</text><path d="M674,546.6387 L684,546.6387 C699,546.6387 699,603.127 714,603.127 L724,603.127 " fill="none" style="stroke:#181818;stroke-width:1.0;"/><path d="M464,697.3242 L474,697.3242 C489,697.3242 489,546.6387 504,546.6387 L514,546.6387 " fill="none" style="stroke:#181818;stroke-width:1.0;"/><rect fill="#F1F1F1" height="36.4883" rx="12.5" ry="12.5" style="stroke:#181818;stroke-width:1.5;" width="160" x="514" y="763.8125"/><text fill="#000000" font-family="sans-serif" font-size="14" lengthAdjust="spacing" textLength="140" x="524" y="787.3477">如何有效打造个人品牌</text><rect fill="#F1F1F1" height="36.4883" rx="12.5" ry="12.5" style="stroke:#181818;stroke-width:1.5;" width="203" x="724" y="666.1035"/><text fill="#000000" font-family="sans-serif" font-size="14" lengthAdjust="spacing" textLength="183" x="734" y="689.6387">找准定位，确定赛道（OKR）</text><rect fill="#F1F1F1" height="85.9531" rx="12.5" ry="12.5" style="stroke:#181818;stroke-width:1.5;" width="356" x="977" y="641.3711"/><text fill="#000000" font-family="sans-serif" font-size="14" lengthAdjust="spacing" textLength="238" x="987" y="664.9063">做自我分析，明确自己的很划算和优势</text><text fill="#000000" font-family="sans-serif" font-size="14" lengthAdjust="spacing" textLength="322" x="987" y="681.3945">在自己擅长和感兴趣的领域给自己设定一个长期目标</text><text fill="#000000" font-family="sans-serif" font-size="14" lengthAdjust="spacing" textLength="280" x="987" y="697.8828">拆解大目标，找到可实现小目标的资源和能力</text><text fill="#000000" font-family="sans-serif" font-size="14" lengthAdjust="spacing" textLength="336" x="987" y="714.3711">一个一个去搞定列出的资源和能力，达成阶段性小目标</text><path d="M927,684.3477 L937,684.3477 C952,684.3477 952,684.3477 967,684.3477 L977,684.3477 " fill="none" style="stroke:#181818;stroke-width:1.0;"/><path d="M674,782.0566 L684,782.0566 C699,782.0566 699,684.3477 714,684.3477 L724,684.3477 " fill="none" style="stroke:#181818;stroke-width:1.0;"/><rect fill="#F1F1F1" height="36.4883" rx="12.5" ry="12.5" style="stroke:#181818;stroke-width:1.5;" width="146" x="724" y="772.0566"/><text fill="#000000" font-family="sans-serif" font-size="14" lengthAdjust="spacing" textLength="126" x="734" y="795.5918">持续写作，强化品牌</text><rect fill="#F1F1F1" height="85.9531" rx="12.5" ry="12.5" style="stroke:#181818;stroke-width:1.5;" width="146" x="920" y="747.3242"/><text fill="#000000" font-family="sans-serif" font-size="14" lengthAdjust="spacing" textLength="70" x="930" y="770.8594">质量要把关</text><text fill="#000000" font-family="sans-serif" font-size="14" lengthAdjust="spacing" textLength="70" x="930" y="787.3477">话题要聚焦</text><text fill="#000000" font-family="sans-serif" font-size="14" lengthAdjust="spacing" textLength="70" x="930" y="803.8359">选择好平台</text><text fill="#000000" font-family="sans-serif" font-size="14" lengthAdjust="spacing" textLength="126" x="930" y="820.3242">借力借势，运营品牌</text><path d="M870,790.3008 L880,790.3008 C895,790.3008 895,790.3008 910,790.3008 L920,790.3008 " fill="none" style="stroke:#181818;stroke-width:1.0;"/><path d="M674,782.0566 L684,782.0566 C699,782.0566 699,790.3008 714,790.3008 L724,790.3008 " fill="none" style="stroke:#181818;stroke-width:1.0;"/><rect fill="#F1F1F1" height="36.4883" rx="12.5" ry="12.5" style="stroke:#181818;stroke-width:1.5;" width="146" x="724" y="869.7656"/><text fill="#000000" font-family="sans-serif" font-size="14" lengthAdjust="spacing" textLength="126" x="734" y="893.3008">持续强化个人影响力</text><rect fill="#F1F1F1" height="69.4648" rx="12.5" ry="12.5" style="stroke:#181818;stroke-width:1.5;" width="202" x="920" y="853.2773"/><text fill="#000000" font-family="sans-serif" font-size="14" lengthAdjust="spacing" textLength="182" x="930" y="876.8125">在核心平台持续输出优质内容</text><text fill="#000000" font-family="sans-serif" font-size="14" lengthAdjust="spacing" textLength="182" x="930" y="893.3008">做付费社群用心服务重点用户</text><text fill="#000000" font-family="sans-serif" font-size="14" lengthAdjust="spacing" textLength="168" x="930" y="909.7891">多线下见面近距离影响用户</text><path d="M870,888.0098 L880,888.0098 C895,888.0098 895,888.0098 910,888.0098 L920,888.0098 " fill="none" style="stroke:#181818;stroke-width:1.0;"/><path d="M674,782.0566 L684,782.0566 C699,782.0566 699,888.0098 714,888.0098 L724,888.0098 " fill="none" style="stroke:#181818;stroke-width:1.0;"/><path d="M464,697.3242 L474,697.3242 C489,697.3242 489,782.0566 504,782.0566 L514,782.0566 " fill="none" style="stroke:#181818;stroke-width:1.0;"/><path d="M226,609.0801 L236,609.0801 C251,609.0801 251,697.3242 266,697.3242 L276,697.3242 " fill="none" style="stroke:#181818;stroke-width:1.0;"/><rect fill="#F1F1F1" height="36.4883" rx="12.5" ry="12.5" style="stroke:#181818;stroke-width:1.5;" width="132" x="276" y="1052.207"/><text fill="#000000" font-family="sans-serif" font-size="14" lengthAdjust="spacing" textLength="112" x="286" y="1075.7422">人人都要写一本书</text><rect fill="#F1F1F1" height="36.4883" rx="12.5" ry="12.5" style="stroke:#181818;stroke-width:1.5;" width="230" x="458" y="942.7422"/><text fill="#000000" font-family="sans-serif" font-size="14" lengthAdjust="spacing" textLength="210" x="468" y="966.2773">定一个写书目标，加强写作内驱力</text><path d="M408,1070.4512 L418,1070.4512 C433,1070.4512 433,960.9863 448,960.9863 L458,960.9863 " fill="none" style="stroke:#181818;stroke-width:1.0;"/><rect fill="#F1F1F1" height="36.4883" rx="12.5" ry="12.5" style="stroke:#181818;stroke-width:1.5;" width="174" x="458" y="999.2305"/><text fill="#000000" font-family="sans-serif" font-size="14" lengthAdjust="spacing" textLength="154" x="468" y="1022.7656">人人都要写一本自己的书</text><path d="M408,1070.4512 L418,1070.4512 C433,1070.4512 433,1017.4746 448,1017.4746 L458,1017.4746 " fill="none" style="stroke:#181818;stroke-width:1.0;"/><rect fill="#F1F1F1" height="36.4883" rx="12.5" ry="12.5" style="stroke:#181818;stroke-width:1.5;" width="160" x="458" y="1080.4512"/><text fill="#000000" font-family="sans-serif" font-size="14" lengthAdjust="spacing" textLength="140" x="468" y="1103.9863">为写第一本书做些积累</text><rect fill="#F1F1F1" height="85.9531" rx="12.5" ry="12.5" style="stroke:#181818;stroke-width:1.5;" width="160" x="668" y="1055.7188"/><text fill="#000000" font-family="sans-serif" font-size="14" lengthAdjust="spacing" textLength="126" x="678" y="1079.2539">积累一些个人影响力</text><text fill="#000000" font-family="sans-serif" font-size="14" lengthAdjust="spacing" textLength="126" x="678" y="1095.7422">积累一定的专业知识</text><text fill="#000000" font-family="sans-serif" font-size="14" lengthAdjust="spacing" textLength="126" x="678" y="1112.2305">养成每日输出的习惯</text><text fill="#000000" font-family="sans-serif" font-size="14" lengthAdjust="spacing" textLength="140" x="678" y="1128.7188">了解市场找准目标用户</text><path d="M618,1098.6953 L628,1098.6953 C643,1098.6953 643,1098.6953 658,1098.6953 L668,1098.6953 " fill="none" style="stroke:#181818;stroke-width:1.0;"/><path d="M408,1070.4512 L418,1070.4512 C433,1070.4512 433,1098.6953 448,1098.6953 L458,1098.6953 " fill="none" style="stroke:#181818;stroke-width:1.0;"/><rect fill="#F1F1F1" height="36.4883" rx="12.5" ry="12.5" style="stroke:#181818;stroke-width:1.5;" width="230" x="458" y="1161.6719"/><text fill="#000000" font-family="sans-serif" font-size="14" lengthAdjust="spacing" textLength="210" x="468" y="1185.207">开启终身写作之旅，永葆创作热情</text><path d="M408,1070.4512 L418,1070.4512 C433,1070.4512 433,1179.916 448,1179.916 L458,1179.916 " fill="none" style="stroke:#181818;stroke-width:1.0;"/><path d="M226,609.0801 L236,609.0801 C251,609.0801 251,1070.4512 266,1070.4512 L276,1070.4512 " fill="none" style="stroke:#181818;stroke-width:1.0;"/><!--SRC=[TLHjJnfP5Fu-ls8-jYHjMdVRTDalJUtk9bQtJMtxdQtK9QbZWs2o-mb4O43UB5KeeAWLqAuo65666Lx-p9nxxtpoB_JSkKXjxIQJoSmvvpxdkSzvURWKyFW32pvbRi7pJdB9r5IPyH_4FbhzoaMl1DKkH4qM_moTaujUIdXPvupjfYINIsR3E1XrcZ-tzrHqarIOciTia8UuWMxqDpv1x1I64H8AsuMclLTqp2Hn2FiDSfwWgGnBHQ3S5kPi3j9nIy-JqmCMwKEop7Fya88Ww9o2PidIruJ1qe_jZI6fL6cvINRYWaFpK3Y9chDqmz93j96c7wgaRPBDBlIobr4YXMLcnbYMdYQRnopJeUMao9NSWMWD8IpzCwaaY7x8hrzQ5IUekKhDKT9G3WO568H0Mm5js-6THGixwp3jX4JM9KU6l1tQGIZBC20VfeaKni7UDi_IFu5yMYZWaZbjCsHrLLOFNp_4Gn1ComeZgcFfIII50j3Z0RHEI56x7W-rFiPmErxOiKDMiymQARU52x95ccbz7tm98e85JSlSH3i6eAgmtXTArLUi_WRNQ4FzNyg90SHZl7xzD5TejudVxAniX_CNFVNfa-SNlOGJwN93k8Jb8Uewg36odUEzLipW0L4ppdQWWlgUDWlmFcNrYf0SIb0v46wIZs9Ne8EiLY7QPkUVy82z5uDgbPeVHGnh3fn6ufNzfeN8MentyNv3_FFCI5jjeG3Gt4Q5e9KLBWHbPwl4o66cKViAFF66Z4bosvW4r0BEn_LeX6Q30NQfNJmdpJCIQeoXVnq9vipNvN2ce6T0QlEAeYutQn_OyInlasGIegSIqxPmwF2VXKjqjIxPeGHPEyHoGlSKiYq9GbNCxBo7FFymnt8rWVXjJYVLg8HNUvFNfd90TdGSSe5vTGbW9P0HnABGx4fOGyl4_oxT7z31Flrmm1T31P5sxNYQhdJHGjIE1FibQWnnfbaZR6_jiU4wwspHkYdoYY1EJaOk-DYHFjwFYwA7IEN8wjQ_hWL7T_Hqw-FgyU72opWQ8Z7xy6GyPJ-26pVO9IxE8ZhfqT4u7R-NKQODZROrHnAt-ERfZVBtcerzID2PgRobbsYrnhIOX7iEou-JJ0er8Q2JU8T4DCaod3xKLw1YYC4PTTrO3xnpBmGvxUg6jBfhf13bJTlIsNeCr3BVKv5Z4ebA3xsuz4UBNthsrgC4NivCoyjU_v9lKP7ltfwuC_7JxRitPeEAFELHv8bVv8axxdiFtFVkovEpBsJklYdT-EFPjBoq6FI_zifplgM0t_TNC83dRqfJdcMF_3oe17mBNhVyz9rNcNhyvD8W_wOi-_oBoe9N2KXJhsQ-1jp_-TOZNq2UzVgHYVngHdhiVUC9lWtWYTUBSpvbtYs_VF7xhGVIj4UP3thc4VlVlwN9HSJr_-EM9__y0W00]--></g></svg>