<?xml version="1.0" encoding="UTF-8" standalone="no"?><svg xmlns="http://www.w3.org/2000/svg" xmlns:xlink="http://www.w3.org/1999/xlink" contentStyleType="text/css" height="1555px" preserveAspectRatio="none" style="width:1064px;height:1555px;background:#FFFFFF;" version="1.1" viewBox="0 0 1064 1555" width="1064px" zoomAndPan="magnify"><defs/><g><rect fill="#F1F1F1" height="36.4883" rx="12.5" ry="12.5" style="stroke:#181818;stroke-width:1.5;" width="146" x="10" y="758.4697"/><text fill="#000000" font-family="sans-serif" font-size="14" lengthAdjust="spacing" textLength="126" x="20" y="782.0049">内容填充：积累素材</text><rect fill="#F1F1F1" height="36.4883" rx="12.5" ry="12.5" style="stroke:#181818;stroke-width:1.5;" width="76" x="206" y="76.4883"/><text fill="#000000" font-family="sans-serif" font-size="14" lengthAdjust="spacing" textLength="56" x="216" y="100.0234">生活积累</text><rect fill="#F1F1F1" height="36.4883" rx="12.5" ry="12.5" style="stroke:#181818;stroke-width:1.5;" width="230" x="332" y="20"/><text fill="#000000" font-family="sans-serif" font-size="14" lengthAdjust="spacing" textLength="210" x="342" y="43.5352">随时记录灵感和心得——闪念笔记</text><path d="M282,94.7324 L292,94.7324 C307,94.7324 307,38.2441 322,38.2441 L332,38.2441 " fill="none" style="stroke:#181818;stroke-width:1.0;"/><rect fill="#F1F1F1" height="36.4883" rx="12.5" ry="12.5" style="stroke:#181818;stroke-width:1.5;" width="258" x="332" y="76.4883"/><text fill="#000000" font-family="sans-serif" font-size="14" lengthAdjust="spacing" textLength="238" x="342" y="100.0234">随手摘抄和收藏重要内容——闪念笔记</text><path d="M282,94.7324 L292,94.7324 C307,94.7324 307,94.7324 322,94.7324 L332,94.7324 " fill="none" style="stroke:#181818;stroke-width:1.0;"/><rect fill="#F1F1F1" height="36.4883" rx="12.5" ry="12.5" style="stroke:#181818;stroke-width:1.5;" width="174" x="332" y="132.9766"/><text fill="#000000" font-family="sans-serif" font-size="14" lengthAdjust="spacing" textLength="154" x="342" y="156.5117">用心观察和真实体验生活</text><path d="M282,94.7324 L292,94.7324 C307,94.7324 307,151.2207 322,151.2207 L332,151.2207 " fill="none" style="stroke:#181818;stroke-width:1.0;"/><path d="M156,776.7139 L166,776.7139 C181,776.7139 181,94.7324 196,94.7324 L206,94.7324 " fill="none" style="stroke:#181818;stroke-width:1.0;"/><rect fill="#F1F1F1" height="36.4883" rx="12.5" ry="12.5" style="stroke:#181818;stroke-width:1.5;" width="76" x="206" y="358.9297"/><text fill="#000000" font-family="sans-serif" font-size="14" lengthAdjust="spacing" textLength="56" x="216" y="382.4648">搜索素材</text><rect fill="#F1F1F1" height="36.4883" rx="12.5" ry="12.5" style="stroke:#181818;stroke-width:1.5;" width="104" x="332" y="189.4648"/><text fill="#000000" font-family="sans-serif" font-size="14" lengthAdjust="spacing" textLength="84" x="342" y="213">四大门户网站</text><path d="M282,377.1738 L292,377.1738 C307,377.1738 307,207.709 322,207.709 L332,207.709 " fill="none" style="stroke:#181818;stroke-width:1.0;"/><rect fill="#F1F1F1" height="36.4883" rx="12.5" ry="12.5" style="stroke:#181818;stroke-width:1.5;" width="104" x="332" y="245.9531"/><text fill="#000000" font-family="sans-serif" font-size="14" lengthAdjust="spacing" textLength="84" x="342" y="269.4883">垂直行业媒体</text><path d="M282,377.1738 L292,377.1738 C307,377.1738 307,264.1973 322,264.1973 L332,264.1973 " fill="none" style="stroke:#181818;stroke-width:1.0;"/><rect fill="#F1F1F1" height="36.4883" rx="12.5" ry="12.5" style="stroke:#181818;stroke-width:1.5;" width="104" x="332" y="302.4414"/><text fill="#000000" font-family="sans-serif" font-size="14" lengthAdjust="spacing" textLength="84" x="342" y="325.9766">优质自媒体号</text><path d="M282,377.1738 L292,377.1738 C307,377.1738 307,320.6855 322,320.6855 L332,320.6855 " fill="none" style="stroke:#181818;stroke-width:1.0;"/><rect fill="#F1F1F1" height="36.4883" rx="12.5" ry="12.5" style="stroke:#181818;stroke-width:1.5;" width="118" x="332" y="358.9297"/><text fill="#000000" font-family="sans-serif" font-size="14" lengthAdjust="spacing" textLength="98" x="342" y="382.4648">专业书籍和课程</text><rect fill="#F1F1F1" height="36.4883" rx="12.5" ry="12.5" style="stroke:#181818;stroke-width:1.5;" width="552" x="500" y="358.9297"/><text fill="#000000" font-family="sans-serif" font-size="14" lengthAdjust="spacing" textLength="532" x="510" y="382.4648">干货类的文章要把点写全、写系统，写深入，需要借助专业内容来填补自己缺失的知识</text><path d="M450,377.1738 L460,377.1738 C475,377.1738 475,377.1738 490,377.1738 L500,377.1738 " fill="none" style="stroke:#181818;stroke-width:1.0;"/><path d="M282,377.1738 L292,377.1738 C307,377.1738 307,377.1738 322,377.1738 L332,377.1738 " fill="none" style="stroke:#181818;stroke-width:1.0;"/><rect fill="#F1F1F1" height="36.4883" rx="12.5" ry="12.5" style="stroke:#181818;stroke-width:1.5;" width="244" x="332" y="471.9063"/><text fill="#000000" font-family="sans-serif" font-size="14" lengthAdjust="spacing" textLength="224" x="342" y="495.4414">个人整理素材库——归档的专题笔记</text><rect fill="#F1F1F1" height="36.4883" rx="12.5" ry="12.5" style="stroke:#181818;stroke-width:1.5;" width="132" x="626" y="415.418"/><text fill="#000000" font-family="sans-serif" font-size="14" lengthAdjust="spacing" textLength="112" x="636" y="438.9531">自己的故事和思考</text><path d="M576,490.1504 L586,490.1504 C601,490.1504 601,433.6621 616,433.6621 L626,433.6621 " fill="none" style="stroke:#181818;stroke-width:1.0;"/><rect fill="#F1F1F1" height="36.4883" rx="12.5" ry="12.5" style="stroke:#181818;stroke-width:1.5;" width="146" x="626" y="471.9063"/><text fill="#000000" font-family="sans-serif" font-size="14" lengthAdjust="spacing" textLength="126" x="636" y="495.4414">身边人的故事和思考</text><path d="M576,490.1504 L586,490.1504 C601,490.1504 601,490.1504 616,490.1504 L626,490.1504 " fill="none" style="stroke:#181818;stroke-width:1.0;"/><rect fill="#F1F1F1" height="36.4883" rx="12.5" ry="12.5" style="stroke:#181818;stroke-width:1.5;" width="132" x="626" y="528.3945"/><text fill="#000000" font-family="sans-serif" font-size="14" lengthAdjust="spacing" textLength="112" x="636" y="551.9297">名人的故事和思考</text><path d="M576,490.1504 L586,490.1504 C601,490.1504 601,546.6387 616,546.6387 L626,546.6387 " fill="none" style="stroke:#181818;stroke-width:1.0;"/><path d="M282,377.1738 L292,377.1738 C307,377.1738 307,490.1504 322,490.1504 L332,490.1504 " fill="none" style="stroke:#181818;stroke-width:1.0;"/><path d="M156,776.7139 L166,776.7139 C181,776.7139 181,377.1738 196,377.1738 L206,377.1738 " fill="none" style="stroke:#181818;stroke-width:1.0;"/><rect fill="#F1F1F1" height="36.4883" rx="12.5" ry="12.5" style="stroke:#181818;stroke-width:1.5;" width="104" x="206" y="673.7373"/><text fill="#000000" font-family="sans-serif" font-size="14" lengthAdjust="spacing" textLength="84" x="216" y="697.2725">搜索优质素材</text><rect fill="#F1F1F1" height="36.4883" rx="12.5" ry="12.5" style="stroke:#181818;stroke-width:1.5;" width="48" x="360" y="584.8828"/><text fill="#000000" font-family="sans-serif" font-size="14" lengthAdjust="spacing" textLength="28" x="370" y="608.418">耐心</text><path d="M310,691.9814 L320,691.9814 C335,691.9814 335,603.127 350,603.127 L360,603.127 " fill="none" style="stroke:#181818;stroke-width:1.0;"/><rect fill="#F1F1F1" height="36.4883" rx="12.5" ry="12.5" style="stroke:#181818;stroke-width:1.5;" width="62" x="360" y="641.3711"/><text fill="#000000" font-family="sans-serif" font-size="14" lengthAdjust="spacing" textLength="42" x="370" y="664.9063">多渠道</text><path d="M310,691.9814 L320,691.9814 C335,691.9814 335,659.6152 350,659.6152 L360,659.6152 " fill="none" style="stroke:#181818;stroke-width:1.0;"/><rect fill="#F1F1F1" height="36.4883" rx="12.5" ry="12.5" style="stroke:#181818;stroke-width:1.5;" width="62" x="360" y="697.8594"/><text fill="#000000" font-family="sans-serif" font-size="14" lengthAdjust="spacing" textLength="42" x="370" y="721.3945">关键词</text><path d="M310,691.9814 L320,691.9814 C335,691.9814 335,716.1035 350,716.1035 L360,716.1035 " fill="none" style="stroke:#181818;stroke-width:1.0;"/><rect fill="#F1F1F1" height="36.4883" rx="12.5" ry="12.5" style="stroke:#181818;stroke-width:1.5;" width="104" x="360" y="754.3477"/><text fill="#000000" font-family="sans-serif" font-size="14" lengthAdjust="spacing" textLength="84" x="370" y="777.8828">百度搜索技能</text><rect fill="#F1F1F1" height="52.9766" rx="12.5" ry="12.5" style="stroke:#181818;stroke-width:1.5;" width="213" x="514" y="746.1035"/><text fill="#000000" font-family="sans-serif" font-size="14" lengthAdjust="spacing" textLength="170" x="524" y="769.6387">Filetype:doc 搜索文档形式</text><text fill="#000000" font-family="sans-serif" font-size="14" lengthAdjust="spacing" textLength="193" x="524" y="786.127">关键词+site 限定网站进行搜索</text><path d="M464,772.5918 L474,772.5918 C489,772.5918 489,772.5918 504,772.5918 L514,772.5918 " fill="none" style="stroke:#181818;stroke-width:1.0;"/><path d="M310,691.9814 L320,691.9814 C335,691.9814 335,772.5918 350,772.5918 L360,772.5918 " fill="none" style="stroke:#181818;stroke-width:1.0;"/><path d="M156,776.7139 L166,776.7139 C181,776.7139 181,691.9814 196,691.9814 L206,691.9814 " fill="none" style="stroke:#181818;stroke-width:1.0;"/><rect fill="#F1F1F1" height="36.4883" rx="12.5" ry="12.5" style="stroke:#181818;stroke-width:1.5;" width="132" x="206" y="960.3008"/><text fill="#000000" font-family="sans-serif" font-size="14" lengthAdjust="spacing" textLength="112" x="216" y="983.8359">有效处理优质素材</text><rect fill="#F1F1F1" height="36.4883" rx="12.5" ry="12.5" style="stroke:#181818;stroke-width:1.5;" width="90" x="388" y="847.3242"/><text fill="#000000" font-family="sans-serif" font-size="14" lengthAdjust="spacing" textLength="70" x="398" y="870.8594">总结归纳法</text><rect fill="#F1F1F1" height="36.4883" rx="12.5" ry="12.5" style="stroke:#181818;stroke-width:1.5;" width="342" x="528" y="819.0801"/><text fill="#000000" font-family="sans-serif" font-size="14" lengthAdjust="spacing" textLength="322" x="538" y="842.6152">主题确定后，做分论点的总结，再依据总结寻找素材</text><path d="M478,865.5684 L488,865.5684 C503,865.5684 503,837.3242 518,837.3242 L528,837.3242 " fill="none" style="stroke:#181818;stroke-width:1.0;"/><rect fill="#F1F1F1" height="36.4883" rx="12.5" ry="12.5" style="stroke:#181818;stroke-width:1.5;" width="230" x="528" y="875.5684"/><text fill="#000000" font-family="sans-serif" font-size="14" lengthAdjust="spacing" textLength="210" x="538" y="899.1035">利用每日心语训练自己的总结能力</text><path d="M478,865.5684 L488,865.5684 C503,865.5684 503,893.8125 518,893.8125 L528,893.8125 " fill="none" style="stroke:#181818;stroke-width:1.0;"/><path d="M338,978.5449 L348,978.5449 C363,978.5449 363,865.5684 378,865.5684 L388,865.5684 " fill="none" style="stroke:#181818;stroke-width:1.0;"/><rect fill="#F1F1F1" height="36.4883" rx="12.5" ry="12.5" style="stroke:#181818;stroke-width:1.5;" width="90" x="388" y="960.3008"/><text fill="#000000" font-family="sans-serif" font-size="14" lengthAdjust="spacing" textLength="70" x="398" y="983.8359">主题叠加法</text><rect fill="#F1F1F1" height="36.4883" rx="12.5" ry="12.5" style="stroke:#181818;stroke-width:1.5;" width="300" x="528" y="932.0566"/><text fill="#000000" font-family="sans-serif" font-size="14" lengthAdjust="spacing" textLength="280" x="538" y="955.5918">根据主题素材进行有效叠加，整合成一篇文章</text><path d="M478,978.5449 L488,978.5449 C503,978.5449 503,950.3008 518,950.3008 L528,950.3008 " fill="none" style="stroke:#181818;stroke-width:1.0;"/><rect fill="#F1F1F1" height="36.4883" rx="12.5" ry="12.5" style="stroke:#181818;stroke-width:1.5;" width="300" x="528" y="988.5449"/><text fill="#000000" font-family="sans-serif" font-size="14" lengthAdjust="spacing" textLength="280" x="538" y="1012.0801">根据同类素材或者同类观点，都可以进行叠加</text><path d="M478,978.5449 L488,978.5449 C503,978.5449 503,1006.7891 518,1006.7891 L528,1006.7891 " fill="none" style="stroke:#181818;stroke-width:1.0;"/><path d="M338,978.5449 L348,978.5449 C363,978.5449 363,978.5449 378,978.5449 L388,978.5449 " fill="none" style="stroke:#181818;stroke-width:1.0;"/><rect fill="#F1F1F1" height="36.4883" rx="12.5" ry="12.5" style="stroke:#181818;stroke-width:1.5;" width="90" x="388" y="1073.2773"/><text fill="#000000" font-family="sans-serif" font-size="14" lengthAdjust="spacing" textLength="70" x="398" y="1096.8125">逻辑推理法</text><rect fill="#F1F1F1" height="36.4883" rx="12.5" ry="12.5" style="stroke:#181818;stroke-width:1.5;" width="216" x="528" y="1045.0332"/><text fill="#000000" font-family="sans-serif" font-size="14" lengthAdjust="spacing" textLength="196" x="538" y="1068.5684">在观点上层层推导，打通逻辑线</text><path d="M478,1091.5215 L488,1091.5215 C503,1091.5215 503,1063.2773 518,1063.2773 L528,1063.2773 " fill="none" style="stroke:#181818;stroke-width:1.0;"/><rect fill="#F1F1F1" height="36.4883" rx="12.5" ry="12.5" style="stroke:#181818;stroke-width:1.5;" width="314" x="528" y="1101.5215"/><text fill="#000000" font-family="sans-serif" font-size="14" lengthAdjust="spacing" textLength="294" x="538" y="1125.0566">写文章利用逻辑热能，一步步的进行提问和回答</text><path d="M478,1091.5215 L488,1091.5215 C503,1091.5215 503,1119.7656 518,1119.7656 L528,1119.7656 " fill="none" style="stroke:#181818;stroke-width:1.0;"/><path d="M338,978.5449 L348,978.5449 C363,978.5449 363,1091.5215 378,1091.5215 L388,1091.5215 " fill="none" style="stroke:#181818;stroke-width:1.0;"/><path d="M156,776.7139 L166,776.7139 C181,776.7139 181,978.5449 196,978.5449 L206,978.5449 " fill="none" style="stroke:#181818;stroke-width:1.0;"/><rect fill="#F1F1F1" height="36.4883" rx="12.5" ry="12.5" style="stroke:#181818;stroke-width:1.5;" width="90" x="206" y="1327.4746"/><text fill="#000000" font-family="sans-serif" font-size="14" lengthAdjust="spacing" textLength="70" x="216" y="1351.0098">搭建素材库</text><rect fill="#F1F1F1" height="36.4883" rx="12.5" ry="12.5" style="stroke:#181818;stroke-width:1.5;" width="118" x="346" y="1186.2539"/><text fill="#000000" font-family="sans-serif" font-size="14" lengthAdjust="spacing" textLength="98" x="356" y="1209.7891">成功人物案例库</text><rect fill="#F1F1F1" height="36.4883" rx="12.5" ry="12.5" style="stroke:#181818;stroke-width:1.5;" width="48" x="514" y="1158.0098"/><text fill="#000000" font-family="sans-serif" font-size="14" lengthAdjust="spacing" textLength="28" x="524" y="1181.5449">人物</text><path d="M464,1204.498 L474,1204.498 C489,1204.498 489,1176.2539 504,1176.2539 L514,1176.2539 " fill="none" style="stroke:#181818;stroke-width:1.0;"/><rect fill="#F1F1F1" height="36.4883" rx="12.5" ry="12.5" style="stroke:#181818;stroke-width:1.5;" width="48" x="514" y="1214.498"/><text fill="#000000" font-family="sans-serif" font-size="14" lengthAdjust="spacing" textLength="28" x="524" y="1238.0332">观点</text><path d="M464,1204.498 L474,1204.498 C489,1204.498 489,1232.7422 504,1232.7422 L514,1232.7422 " fill="none" style="stroke:#181818;stroke-width:1.0;"/><path d="M296,1345.7188 L306,1345.7188 C321,1345.7188 321,1204.498 336,1204.498 L346,1204.498 " fill="none" style="stroke:#181818;stroke-width:1.0;"/><rect fill="#F1F1F1" height="36.4883" rx="12.5" ry="12.5" style="stroke:#181818;stroke-width:1.5;" width="118" x="346" y="1242.7422"/><text fill="#000000" font-family="sans-serif" font-size="14" lengthAdjust="spacing" textLength="98" x="356" y="1266.2773">生活经历故事库</text><path d="M296,1345.7188 L306,1345.7188 C321,1345.7188 321,1260.9863 336,1260.9863 L346,1260.9863 " fill="none" style="stroke:#181818;stroke-width:1.0;"/><rect fill="#F1F1F1" height="36.4883" rx="12.5" ry="12.5" style="stroke:#181818;stroke-width:1.5;" width="118" x="346" y="1299.2305"/><text fill="#000000" font-family="sans-serif" font-size="14" lengthAdjust="spacing" textLength="98" x="356" y="1322.7656">独特观点素材库</text><path d="M296,1345.7188 L306,1345.7188 C321,1345.7188 321,1317.4746 336,1317.4746 L346,1317.4746 " fill="none" style="stroke:#181818;stroke-width:1.0;"/><rect fill="#F1F1F1" height="36.4883" rx="12.5" ry="12.5" style="stroke:#181818;stroke-width:1.5;" width="118" x="346" y="1355.7188"/><text fill="#000000" font-family="sans-serif" font-size="14" lengthAdjust="spacing" textLength="98" x="356" y="1379.2539">重要金句素材库</text><path d="M296,1345.7188 L306,1345.7188 C321,1345.7188 321,1373.9629 336,1373.9629 L346,1373.9629 " fill="none" style="stroke:#181818;stroke-width:1.0;"/><rect fill="#F1F1F1" height="36.4883" rx="12.5" ry="12.5" style="stroke:#181818;stroke-width:1.5;" width="118" x="346" y="1412.207"/><text fill="#000000" font-family="sans-serif" font-size="14" lengthAdjust="spacing" textLength="98" x="356" y="1435.7422">行业报告素材库</text><path d="M296,1345.7188 L306,1345.7188 C321,1345.7188 321,1430.4512 336,1430.4512 L346,1430.4512 " fill="none" style="stroke:#181818;stroke-width:1.0;"/><rect fill="#F1F1F1" height="36.4883" rx="12.5" ry="12.5" style="stroke:#181818;stroke-width:1.5;" width="118" x="346" y="1468.6953"/><text fill="#000000" font-family="sans-serif" font-size="14" lengthAdjust="spacing" textLength="98" x="356" y="1492.2305">经典影视素材库</text><rect fill="#F1F1F1" height="36.4883" rx="12.5" ry="12.5" style="stroke:#181818;stroke-width:1.5;" width="76" x="514" y="1440.4512"/><text fill="#000000" font-family="sans-serif" font-size="14" lengthAdjust="spacing" textLength="56" x="524" y="1463.9863">经典桥段</text><path d="M464,1486.9395 L474,1486.9395 C489,1486.9395 489,1458.6953 504,1458.6953 L514,1458.6953 " fill="none" style="stroke:#181818;stroke-width:1.0;"/><rect fill="#F1F1F1" height="36.4883" rx="12.5" ry="12.5" style="stroke:#181818;stroke-width:1.5;" width="76" x="514" y="1496.9395"/><text fill="#000000" font-family="sans-serif" font-size="14" lengthAdjust="spacing" textLength="56" x="524" y="1520.4746">经典台词</text><path d="M464,1486.9395 L474,1486.9395 C489,1486.9395 489,1515.1836 504,1515.1836 L514,1515.1836 " fill="none" style="stroke:#181818;stroke-width:1.0;"/><path d="M296,1345.7188 L306,1345.7188 C321,1345.7188 321,1486.9395 336,1486.9395 L346,1486.9395 " fill="none" style="stroke:#181818;stroke-width:1.0;"/><path d="M156,776.7139 L166,776.7139 C181,776.7139 181,1345.7188 196,1345.7188 L206,1345.7188 " fill="none" style="stroke:#181818;stroke-width:1.0;"/><!--SRC=[TLJVJzjM57xtN-77bgbLozQgorwgqNKIWwqQRTypy5WaS51maBedyoCXCOGO20qaG196841ZDoEKn4x2_xBvt7lzr7zXnxvk04r8zy4-FxxpdU-SUv_FAk6OCXsH9wR3CyA02Ca466sed44YyRbJeCScRU8faprT61WGQQv4cZQtul-0w1Qo9F-96H-XkqNdByXI2JPMuMeHUlb_r1mUDtyALnVqGmvZ-Xdf5RA-JRGbZ2MvJooVTPSpx6YU5xyZZ-PgYCkE5y3qQj3T4XZxJdVJFLtbh3n-HD-bpOC-N-odM8J3OpTV8wbBsbsdPplSlBz0YqrMMNLQ1JZTG1ZVx7IsMRF6ba-v3RANtDpQn3YdVKGR6IpDp1wjhNWU16h_pPh7j67JmX9vlqpFojW7qJIwq8Ra3YHg_whOrWuzjwbT-jnPnMzosO145R_TNTLhMYs1Ti9BS078NXK7m2fLZyXbWtOiE6mWFYrLcPaC69qwbaMscbHFycx1skJ2GNU3LFx2S8Hq3xQl5HmG0pnakfLmh1LFVNMFgOk1rpfZlJR2tXK0UkOkRo0yr- -6_4pLSMXSyiC2QPNTUQuq9CxTdC7C39_jJW-i8uv1D9KjTlsAePUHAKbvDoE59gBZGGaK6Tk3xW5qia8VvQlPY2A9xeuEHe6FcLqLSRmyvpkVuMwQRANWS0ab-nzFek9yDb4wQfsJyotUhzEoFG4h1eA2lkPDRxu0gIGpB1olfuEVvKyru_JsICO8S4oRf7lNyDXkwWJtbvXuMQhU5fjrPjIflNWz4JyH6mUjA5mNXsmPj7AV4IctiKZ0ouSFskIz-S581_S2z1H9wKvBfUOotykR2A2lUYlh8v3KUwOck0Ll5tRchIOIoPgENUNu79bVNzLclNMoLaCP-xnWjyPJdPO6ZGKy601cn-EItdJL0i-YrbKGZxV09yLr2RoBTUmVKv0rgLVne2v1VrdTpHlUorBSf_KSNxWws5P_z_aKKpfe9Mz7qoUaad9wAu47vVIDmQBxL8D7nN_Fx2oi9OEj3h3eoWUQRlFGsrNuM-KkhqEsUjl3tnEYLM5Tk-tnAYHQq6smu-GjpnSNgLI9SN7J0jcFtlLuBk7J73pFmgkfiAoy6HqHvwJOR2GgYuyV3ZuQ_FhXutjZSLaS3ilYuBVYuAFGasUX9q_5eR7NekU-BzpxyTM8E1kDnyObSI8ogyGYlyKLpByl38VdmkAlSLc9J4iXyPSPIHv-yTCNW_Y3F1U9HULfILQ4uRUZrm5FltdmVKGHnwGOCX7VZWelfD_3yIa5CyQZ4n5vCYI-UVtomJDX92nFniEJYFtd7y9G575ZxqBYqC__0G00]--></g></svg>