<?xml version="1.0" encoding="UTF-8" standalone="no"?><svg xmlns="http://www.w3.org/2000/svg" xmlns:xlink="http://www.w3.org/1999/xlink" contentStyleType="text/css" height="1536px" preserveAspectRatio="none" style="width:868px;height:1536px;background:#FFFFFF;" version="1.1" viewBox="0 0 868 1536" width="868px" zoomAndPan="magnify"><defs/><g><rect fill="#F1F1F1" height="36.4883" rx="12.5" ry="12.5" style="stroke:#181818;stroke-width:1.5;" width="272" x="10" y="749.1553"/><text fill="#000000" font-family="sans-serif" font-size="14" lengthAdjust="spacing" textLength="252" x="20" y="772.6904">故事能力：写好独家故事，增加阅读体验</text><rect fill="#F1F1F1" height="36.4883" rx="12.5" ry="12.5" style="stroke:#181818;stroke-width:1.5;" width="118" x="332" y="129.4648"/><text fill="#000000" font-family="sans-serif" font-size="14" lengthAdjust="spacing" textLength="98" x="342" y="153">独一无二的故事</text><rect fill="#F1F1F1" height="36.4883" rx="12.5" ry="12.5" style="stroke:#181818;stroke-width:1.5;" width="188" x="500" y="28.2441"/><text fill="#000000" font-family="sans-serif" font-size="14" lengthAdjust="spacing" textLength="168" x="510" y="51.7793">最好的素材就是自己的经历</text><rect fill="#F1F1F1" height="52.9766" rx="12.5" ry="12.5" style="stroke:#181818;stroke-width:1.5;" width="118" x="738" y="20"/><text fill="#000000" font-family="sans-serif" font-size="14" lengthAdjust="spacing" textLength="98" x="748" y="43.5352">创造自己的经历</text><text fill="#000000" font-family="sans-serif" font-size="14" lengthAdjust="spacing" textLength="98" x="748" y="60.0234">活出自己的价值</text><path d="M688,46.4883 L698,46.4883 C713,46.4883 713,46.4883 728,46.4883 L738,46.4883 " fill="none" style="stroke:#181818;stroke-width:1.0;"/><path d="M450,147.709 L460,147.709 C475,147.709 475,46.4883 490,46.4883 L500,46.4883 " fill="none" style="stroke:#181818;stroke-width:1.0;"/><rect fill="#F1F1F1" height="36.4883" rx="12.5" ry="12.5" style="stroke:#181818;stroke-width:1.5;" width="146" x="500" y="109.4648"/><text fill="#000000" font-family="sans-serif" font-size="14" lengthAdjust="spacing" textLength="126" x="510" y="133">用践行故事留住读者</text><rect fill="#F1F1F1" height="69.4648" rx="12.5" ry="12.5" style="stroke:#181818;stroke-width:1.5;" width="90" x="696" y="92.9766"/><text fill="#000000" font-family="sans-serif" font-size="14" lengthAdjust="spacing" textLength="70" x="706" y="116.5117">自己的成长</text><text fill="#000000" font-family="sans-serif" font-size="14" lengthAdjust="spacing" textLength="70" x="706" y="133">自己的成绩</text><text fill="#000000" font-family="sans-serif" font-size="14" lengthAdjust="spacing" textLength="70" x="706" y="149.4883">自己的做法</text><path d="M646,127.709 L656,127.709 C671,127.709 671,127.709 686,127.709 L696,127.709 " fill="none" style="stroke:#181818;stroke-width:1.0;"/><path d="M450,147.709 L460,147.709 C475,147.709 475,127.709 490,127.709 L500,127.709 " fill="none" style="stroke:#181818;stroke-width:1.0;"/><rect fill="#F1F1F1" height="36.4883" rx="12.5" ry="12.5" style="stroke:#181818;stroke-width:1.5;" width="202" x="500" y="182.4414"/><text fill="#000000" font-family="sans-serif" font-size="14" lengthAdjust="spacing" textLength="182" x="510" y="205.9766">用自己的故事与他人深度链接</text><path d="M450,147.709 L460,147.709 C475,147.709 475,200.6855 490,200.6855 L500,200.6855 " fill="none" style="stroke:#181818;stroke-width:1.0;"/><rect fill="#F1F1F1" height="36.4883" rx="12.5" ry="12.5" style="stroke:#181818;stroke-width:1.5;" width="146" x="500" y="238.9297"/><text fill="#000000" font-family="sans-serif" font-size="14" lengthAdjust="spacing" textLength="126" x="510" y="262.4648">不断迭代自己的故事</text><path d="M450,147.709 L460,147.709 C475,147.709 475,257.1738 490,257.1738 L500,257.1738 " fill="none" style="stroke:#181818;stroke-width:1.0;"/><path d="M282,767.3994 L292,767.3994 C307,767.3994 307,147.709 322,147.709 L332,147.709 " fill="none" style="stroke:#181818;stroke-width:1.0;"/><rect fill="#F1F1F1" height="36.4883" rx="12.5" ry="12.5" style="stroke:#181818;stroke-width:1.5;" width="132" x="332" y="392.5166"/><text fill="#000000" font-family="sans-serif" font-size="14" lengthAdjust="spacing" textLength="112" x="342" y="416.0518">特别注意的四件事</text><rect fill="#F1F1F1" height="36.4883" rx="12.5" ry="12.5" style="stroke:#181818;stroke-width:1.5;" width="118" x="514" y="295.418"/><text fill="#000000" font-family="sans-serif" font-size="14" lengthAdjust="spacing" textLength="98" x="524" y="318.9531">要有明确的主题</text><path d="M464,410.7607 L474,410.7607 C489,410.7607 489,313.6621 504,313.6621 L514,313.6621 " fill="none" style="stroke:#181818;stroke-width:1.0;"/><rect fill="#F1F1F1" height="36.4883" rx="12.5" ry="12.5" style="stroke:#181818;stroke-width:1.5;" width="118" x="514" y="351.9063"/><text fill="#000000" font-family="sans-serif" font-size="14" lengthAdjust="spacing" textLength="98" x="524" y="375.4414">情感要真实流露</text><path d="M464,410.7607 L474,410.7607 C489,410.7607 489,370.1504 504,370.1504 L514,370.1504 " fill="none" style="stroke:#181818;stroke-width:1.0;"/><rect fill="#F1F1F1" height="36.4883" rx="12.5" ry="12.5" style="stroke:#181818;stroke-width:1.5;" width="132" x="514" y="408.3945"/><text fill="#000000" font-family="sans-serif" font-size="14" lengthAdjust="spacing" textLength="112" x="524" y="431.9297">写故事的十字标准</text><rect fill="#F1F1F1" height="85.9531" rx="12.5" ry="12.5" style="stroke:#181818;stroke-width:1.5;" width="76" x="696" y="383.6621"/><text fill="#000000" font-family="sans-serif" font-size="14" lengthAdjust="spacing" textLength="28" x="706" y="407.1973">简单</text><text fill="#000000" font-family="sans-serif" font-size="14" lengthAdjust="spacing" textLength="28" x="706" y="423.6855">精练</text><text fill="#000000" font-family="sans-serif" font-size="14" lengthAdjust="spacing" textLength="28" x="706" y="440.1738">流畅</text><text fill="#000000" font-family="sans-serif" font-size="14" lengthAdjust="spacing" textLength="56" x="706" y="456.6621">有说服力</text><path d="M646,426.6387 L656,426.6387 C671,426.6387 671,426.6387 686,426.6387 L696,426.6387 " fill="none" style="stroke:#181818;stroke-width:1.0;"/><path d="M464,410.7607 L474,410.7607 C489,410.7607 489,426.6387 504,426.6387 L514,426.6387 " fill="none" style="stroke:#181818;stroke-width:1.0;"/><rect fill="#F1F1F1" height="36.4883" rx="12.5" ry="12.5" style="stroke:#181818;stroke-width:1.5;" width="188" x="514" y="489.6152"/><text fill="#000000" font-family="sans-serif" font-size="14" lengthAdjust="spacing" textLength="168" x="524" y="513.1504">要相信读者反馈，避免自嗨</text><path d="M464,410.7607 L474,410.7607 C489,410.7607 489,507.8594 504,507.8594 L514,507.8594 " fill="none" style="stroke:#181818;stroke-width:1.0;"/><path d="M282,767.3994 L292,767.3994 C307,767.3994 307,410.7607 322,410.7607 L332,410.7607 " fill="none" style="stroke:#181818;stroke-width:1.0;"/><rect fill="#F1F1F1" height="36.4883" rx="12.5" ry="12.5" style="stroke:#181818;stroke-width:1.5;" width="230" x="332" y="630.8359"/><text fill="#000000" font-family="sans-serif" font-size="14" lengthAdjust="spacing" textLength="210" x="342" y="654.3711">串联生活中的故事，写成优质文章</text><rect fill="#F1F1F1" height="36.4883" rx="12.5" ry="12.5" style="stroke:#181818;stroke-width:1.5;" width="174" x="612" y="546.1035"/><text fill="#000000" font-family="sans-serif" font-size="14" lengthAdjust="spacing" textLength="154" x="622" y="569.6387">日记体，记录自己的故事</text><path d="M562,649.0801 L572,649.0801 C587,649.0801 587,564.3477 602,564.3477 L612,564.3477 " fill="none" style="stroke:#181818;stroke-width:1.0;"/><rect fill="#F1F1F1" height="36.4883" rx="12.5" ry="12.5" style="stroke:#181818;stroke-width:1.5;" width="174" x="612" y="602.5918"/><text fill="#000000" font-family="sans-serif" font-size="14" lengthAdjust="spacing" textLength="154" x="622" y="626.127">清单体，串联自己的想法</text><path d="M562,649.0801 L572,649.0801 C587,649.0801 587,620.8359 602,620.8359 L612,620.8359 " fill="none" style="stroke:#181818;stroke-width:1.0;"/><rect fill="#F1F1F1" height="36.4883" rx="12.5" ry="12.5" style="stroke:#181818;stroke-width:1.5;" width="174" x="612" y="659.0801"/><text fill="#000000" font-family="sans-serif" font-size="14" lengthAdjust="spacing" textLength="154" x="622" y="682.6152">问答式，解答他人的困惑</text><path d="M562,649.0801 L572,649.0801 C587,649.0801 587,677.3242 602,677.3242 L612,677.3242 " fill="none" style="stroke:#181818;stroke-width:1.0;"/><rect fill="#F1F1F1" height="36.4883" rx="12.5" ry="12.5" style="stroke:#181818;stroke-width:1.5;" width="174" x="612" y="715.5684"/><text fill="#000000" font-family="sans-serif" font-size="14" lengthAdjust="spacing" textLength="154" x="622" y="739.1035">访谈式，写好牛人的访谈</text><path d="M562,649.0801 L572,649.0801 C587,649.0801 587,733.8125 602,733.8125 L612,733.8125 " fill="none" style="stroke:#181818;stroke-width:1.0;"/><path d="M282,767.3994 L292,767.3994 C307,767.3994 307,649.0801 322,649.0801 L332,649.0801 " fill="none" style="stroke:#181818;stroke-width:1.0;"/><rect fill="#F1F1F1" height="36.4883" rx="12.5" ry="12.5" style="stroke:#181818;stroke-width:1.5;" width="160" x="332" y="914.498"/><text fill="#000000" font-family="sans-serif" font-size="14" lengthAdjust="spacing" textLength="140" x="342" y="938.0332">逆袭故事，提高说服力</text><rect fill="#F1F1F1" height="36.4883" rx="12.5" ry="12.5" style="stroke:#181818;stroke-width:1.5;" width="48" x="542" y="788.5449"/><text fill="#000000" font-family="sans-serif" font-size="14" lengthAdjust="spacing" textLength="28" x="552" y="812.0801">重点</text><rect fill="#F1F1F1" height="69.4648" rx="12.5" ry="12.5" style="stroke:#181818;stroke-width:1.5;" width="48" x="640" y="772.0566"/><text fill="#000000" font-family="sans-serif" font-size="14" lengthAdjust="spacing" textLength="28" x="650" y="795.5918">冲突</text><text fill="#000000" font-family="sans-serif" font-size="14" lengthAdjust="spacing" textLength="28" x="650" y="812.0801">行动</text><text fill="#000000" font-family="sans-serif" font-size="14" lengthAdjust="spacing" textLength="28" x="650" y="828.5684">结局</text><path d="M590,806.7891 L600,806.7891 C615,806.7891 615,806.7891 630,806.7891 L640,806.7891 " fill="none" style="stroke:#181818;stroke-width:1.0;"/><path d="M492,932.7422 L502,932.7422 C517,932.7422 517,806.7891 532,806.7891 L542,806.7891 " fill="none" style="stroke:#181818;stroke-width:1.0;"/><rect fill="#F1F1F1" height="36.4883" rx="12.5" ry="12.5" style="stroke:#181818;stroke-width:1.5;" width="48" x="542" y="902.7422"/><text fill="#000000" font-family="sans-serif" font-size="14" lengthAdjust="spacing" textLength="28" x="552" y="926.2773">结构</text><rect fill="#F1F1F1" height="118.9297" rx="12.5" ry="12.5" style="stroke:#181818;stroke-width:1.5;" width="48" x="640" y="861.5215"/><text fill="#000000" font-family="sans-serif" font-size="14" lengthAdjust="spacing" textLength="28" x="650" y="885.0566">目标</text><text fill="#000000" font-family="sans-serif" font-size="14" lengthAdjust="spacing" textLength="28" x="650" y="901.5449">困难</text><text fill="#000000" font-family="sans-serif" font-size="14" lengthAdjust="spacing" textLength="28" x="650" y="918.0332">行动</text><text fill="#000000" font-family="sans-serif" font-size="14" lengthAdjust="spacing" textLength="28" x="650" y="934.5215">意外</text><text fill="#000000" font-family="sans-serif" font-size="14" lengthAdjust="spacing" textLength="28" x="650" y="951.0098">转折</text><text fill="#000000" font-family="sans-serif" font-size="14" lengthAdjust="spacing" textLength="28" x="650" y="967.498">结局</text><path d="M590,920.9863 L600,920.9863 C615,920.9863 615,920.9863 630,920.9863 L640,920.9863 " fill="none" style="stroke:#181818;stroke-width:1.0;"/><path d="M492,932.7422 L502,932.7422 C517,932.7422 517,920.9863 532,920.9863 L542,920.9863 " fill="none" style="stroke:#181818;stroke-width:1.0;"/><rect fill="#F1F1F1" height="36.4883" rx="12.5" ry="12.5" style="stroke:#181818;stroke-width:1.5;" width="90" x="542" y="1000.4512"/><text fill="#000000" font-family="sans-serif" font-size="14" lengthAdjust="spacing" textLength="70" x="552" y="1023.9863">情感和细节</text><path d="M492,932.7422 L502,932.7422 C517,932.7422 517,1018.6953 532,1018.6953 L542,1018.6953 " fill="none" style="stroke:#181818;stroke-width:1.0;"/><rect fill="#F1F1F1" height="36.4883" rx="12.5" ry="12.5" style="stroke:#181818;stroke-width:1.5;" width="90" x="542" y="1056.9395"/><text fill="#000000" font-family="sans-serif" font-size="14" lengthAdjust="spacing" textLength="70" x="552" y="1080.4746">自己的故事</text><path d="M492,932.7422 L502,932.7422 C517,932.7422 517,1075.1836 532,1075.1836 L542,1075.1836 " fill="none" style="stroke:#181818;stroke-width:1.0;"/><path d="M282,767.3994 L292,767.3994 C307,767.3994 307,932.7422 322,932.7422 L332,932.7422 " fill="none" style="stroke:#181818;stroke-width:1.0;"/><rect fill="#F1F1F1" height="36.4883" rx="12.5" ry="12.5" style="stroke:#181818;stroke-width:1.5;" width="104" x="332" y="1295.8691"/><text fill="#000000" font-family="sans-serif" font-size="14" lengthAdjust="spacing" textLength="84" x="342" y="1319.4043">个人品牌故事</text><rect fill="#F1F1F1" height="36.4883" rx="12.5" ry="12.5" style="stroke:#181818;stroke-width:1.5;" width="76" x="486" y="1154.6484"/><text fill="#000000" font-family="sans-serif" font-size="14" lengthAdjust="spacing" textLength="56" x="496" y="1178.1836">宣传自己</text><rect fill="#F1F1F1" height="118.9297" rx="12.5" ry="12.5" style="stroke:#181818;stroke-width:1.5;" width="62" x="612" y="1113.4277"/><text fill="#000000" font-family="sans-serif" font-size="14" lengthAdjust="spacing" textLength="28" x="622" y="1136.9629">背景</text><text fill="#000000" font-family="sans-serif" font-size="14" lengthAdjust="spacing" textLength="28" x="622" y="1153.4512">成长</text><text fill="#000000" font-family="sans-serif" font-size="14" lengthAdjust="spacing" textLength="42" x="622" y="1169.9395">价值观</text><text fill="#000000" font-family="sans-serif" font-size="14" lengthAdjust="spacing" textLength="28" x="622" y="1186.4277">信念</text><text fill="#000000" font-family="sans-serif" font-size="14" lengthAdjust="spacing" textLength="28" x="622" y="1202.916">经历</text><text fill="#000000" font-family="sans-serif" font-size="14" lengthAdjust="spacing" textLength="28" x="622" y="1219.4043">成绩</text><path d="M562,1172.8926 L572,1172.8926 C587,1172.8926 587,1172.8926 602,1172.8926 L612,1172.8926 " fill="none" style="stroke:#181818;stroke-width:1.0;"/><path d="M436,1314.1133 L446,1314.1133 C461,1314.1133 461,1172.8926 476,1172.8926 L486,1172.8926 " fill="none" style="stroke:#181818;stroke-width:1.0;"/><rect fill="#F1F1F1" height="36.4883" rx="12.5" ry="12.5" style="stroke:#181818;stroke-width:1.5;" width="90" x="486" y="1252.3574"/><text fill="#000000" font-family="sans-serif" font-size="14" lengthAdjust="spacing" textLength="70" x="496" y="1275.8926">放大影响力</text><path d="M436,1314.1133 L446,1314.1133 C461,1314.1133 461,1270.6016 476,1270.6016 L486,1270.6016 " fill="none" style="stroke:#181818;stroke-width:1.0;"/><rect fill="#F1F1F1" height="36.4883" rx="12.5" ry="12.5" style="stroke:#181818;stroke-width:1.5;" width="160" x="486" y="1365.334"/><text fill="#000000" font-family="sans-serif" font-size="14" lengthAdjust="spacing" textLength="140" x="496" y="1388.8691">如何写好个人品牌故事</text><rect fill="#F1F1F1" height="36.4883" rx="12.5" ry="12.5" style="stroke:#181818;stroke-width:1.5;" width="104" x="696" y="1252.3574"/><text fill="#000000" font-family="sans-serif" font-size="14" lengthAdjust="spacing" textLength="84" x="706" y="1275.8926">明确定文目的</text><path d="M646,1383.5781 L656,1383.5781 C671,1383.5781 671,1270.6016 686,1270.6016 L696,1270.6016 " fill="none" style="stroke:#181818;stroke-width:1.0;"/><rect fill="#F1F1F1" height="36.4883" rx="12.5" ry="12.5" style="stroke:#181818;stroke-width:1.5;" width="104" x="696" y="1308.8457"/><text fill="#000000" font-family="sans-serif" font-size="14" lengthAdjust="spacing" textLength="84" x="706" y="1332.3809">细化介绍自己</text><path d="M646,1383.5781 L656,1383.5781 C671,1383.5781 671,1327.0898 686,1327.0898 L696,1327.0898 " fill="none" style="stroke:#181818;stroke-width:1.0;"/><rect fill="#F1F1F1" height="36.4883" rx="12.5" ry="12.5" style="stroke:#181818;stroke-width:1.5;" width="104" x="696" y="1365.334"/><text fill="#000000" font-family="sans-serif" font-size="14" lengthAdjust="spacing" textLength="84" x="706" y="1388.8691">呈现成长蜕变</text><path d="M646,1383.5781 L656,1383.5781 C671,1383.5781 671,1383.5781 686,1383.5781 L696,1383.5781 " fill="none" style="stroke:#181818;stroke-width:1.0;"/><rect fill="#F1F1F1" height="36.4883" rx="12.5" ry="12.5" style="stroke:#181818;stroke-width:1.5;" width="104" x="696" y="1421.8223"/><text fill="#000000" font-family="sans-serif" font-size="14" lengthAdjust="spacing" textLength="84" x="706" y="1445.3574">晒出个人成绩</text><path d="M646,1383.5781 L656,1383.5781 C671,1383.5781 671,1440.0664 686,1440.0664 L696,1440.0664 " fill="none" style="stroke:#181818;stroke-width:1.0;"/><rect fill="#F1F1F1" height="36.4883" rx="12.5" ry="12.5" style="stroke:#181818;stroke-width:1.5;" width="104" x="696" y="1478.3105"/><text fill="#000000" font-family="sans-serif" font-size="14" lengthAdjust="spacing" textLength="84" x="706" y="1501.8457">真实又有价值</text><path d="M646,1383.5781 L656,1383.5781 C671,1383.5781 671,1496.5547 686,1496.5547 L696,1496.5547 " fill="none" style="stroke:#181818;stroke-width:1.0;"/><path d="M436,1314.1133 L446,1314.1133 C461,1314.1133 461,1383.5781 476,1383.5781 L486,1383.5781 " fill="none" style="stroke:#181818;stroke-width:1.0;"/><path d="M282,767.3994 L292,767.3994 C307,767.3994 307,1314.1133 322,1314.1133 L332,1314.1133 " fill="none" style="stroke:#181818;stroke-width:1.0;"/><!--SRC=[RLJRKXj747sVhvX7cogxR1Ax7Fd5PPoaYa3Y2hRVrqOXgZ8hbrXHbJn9w8hG1LjN90K46530MYGkHjPAw6UcPtQV_0lktLa9OkTjP_fqz-dJP_RHagO4j4MVEh-el24Jb1TZhBTcHWQGgdtkLo6-0Ni3iVO1z8yozBcVXfrDI3MiIimyDjWWRnscoSG4HH3hXdYvmNffKOrAD0QmPZra5wb6nLc3_xCExGwl79k9GxZes9T63h9n6pZXWMJD2ZM-3l4p0nAzyIqpBY3KV-YK5eMcUN5kRgTbEr7SO8CSqZ93CLbndCMJwrPnIAwVXV7lrHd2LNvQlAewnZc5MJVBZ1BhzVX51thxLlwIP_SSBEjcUAbb3blCsFqgoL5bzHCaZ_XfaqTpTfTQZHaVHyAO-s5UN-MLhDZMxS6wXhLJaP95OZowXN5Htm9zav-7hVg94y6DkBDYjKmOMcNUI4325L3e8SWKYJYv54Q4O9eenWZsC8_FU3s3EtquQYngNJRSbb91BcFj9t6pLdW8iOmzHhb9dE5Ep7115BPm1QpR6azccm1v9DTPlsAUDNaf8OuQadXvpzJRw0g4u0SCYj-AWgXk36bAbEnnXOgSuXuSb5NMHQi0_PnTws0Nl-KE71tRFF9Mpg8FpNPIeboxhjOaIeRiGQnGtDnfZSdptBfrL1cB8hibCcBba-l3-8au31Fq5QIQH1Xvw8HSQnXvlXbrnQxfg3r1BbRrSWJ6FSFx4Z477tYgyfzKkLDubnP6t4ojIFBVEePr3v4zvCDYDNrDCj1tMTzz6gwr8sc-SKnSOyjNOHwi45mh3C_9wF4uFdSP52xX_G4CEf0VZmtxAsnGbCBzVslCSnmAUjLUTCssghp7GI1TOiQQC3BNc55ucnJPjYHcrekGgxXrDjxXGvPTtFSdwpWcXrmIdIhd88-y-4To_qhawMj5rPxFpj1bRs39vrVftTkJToQ_ktttnbnGfTEAIYT_e9DtFFSUUExTfrDppwWTlabk_FnqXYxvWu5NNZhlMz82lfT13VDlacbbMQ6_1rNDj-ZrqD_UUDNf9x-CBkYFwh8lu5SNlQf6fb_CNW7kVt_hiK-ZSzu0Cg4lPiaJxnzAyBM66Q_yypvrmKEVF_lfrWCoewWBGMK1Q__z9vdoOzt0NnuwzUiN]--></g></svg>