<?xml version="1.0" encoding="UTF-8" standalone="no"?><svg xmlns="http://www.w3.org/2000/svg" xmlns:xlink="http://www.w3.org/1999/xlink" contentStyleType="text/css" height="1709px" preserveAspectRatio="none" style="width:1274px;height:1709px;background:#FFFFFF;" version="1.1" viewBox="0 0 1274 1709" width="1274px" zoomAndPan="magnify"><defs/><g><rect fill="#F1F1F1" height="36.4883" rx="12.5" ry="12.5" style="stroke:#181818;stroke-width:1.5;" width="174" x="10" y="835.5684"/><text fill="#000000" font-family="sans-serif" font-size="14" lengthAdjust="spacing" textLength="154" x="20" y="859.1035">写作认识：正确认识写作</text><rect fill="#F1F1F1" height="36.4883" rx="12.5" ry="12.5" style="stroke:#181818;stroke-width:1.5;" width="118" x="234" y="161.2207"/><text fill="#000000" font-family="sans-serif" font-size="14" lengthAdjust="spacing" textLength="98" x="244" y="184.7559">为什么开始写作</text><rect fill="#F1F1F1" height="36.4883" rx="12.5" ry="12.5" style="stroke:#181818;stroke-width:1.5;" width="118" x="402" y="20"/><text fill="#000000" font-family="sans-serif" font-size="14" lengthAdjust="spacing" textLength="98" x="412" y="43.5352">记录生活和改变</text><rect fill="#F1F1F1" height="36.4883" rx="12.5" ry="12.5" style="stroke:#181818;stroke-width:1.5;" width="286" x="570" y="20"/><text fill="#000000" font-family="sans-serif" font-size="14" lengthAdjust="spacing" textLength="266" x="580" y="43.5352">从最简单的方式开始写，看到自己的改变。</text><path d="M520,38.2441 L530,38.2441 C545,38.2441 545,38.2441 560,38.2441 L570,38.2441 " fill="none" style="stroke:#181818;stroke-width:1.0;"/><path d="M352,179.4648 L362,179.4648 C377,179.4648 377,38.2441 392,38.2441 L402,38.2441 " fill="none" style="stroke:#181818;stroke-width:1.0;"/><rect fill="#F1F1F1" height="36.4883" rx="12.5" ry="12.5" style="stroke:#181818;stroke-width:1.5;" width="118" x="402" y="76.4883"/><text fill="#000000" font-family="sans-serif" font-size="14" lengthAdjust="spacing" textLength="98" x="412" y="100.0234">提升精练表达力</text><rect fill="#F1F1F1" height="36.4883" rx="12.5" ry="12.5" style="stroke:#181818;stroke-width:1.5;" width="300" x="570" y="76.4883"/><text fill="#000000" font-family="sans-serif" font-size="14" lengthAdjust="spacing" textLength="280" x="580" y="100.0234">让自己的文字简单、精练、流畅、有说服力。</text><path d="M520,94.7324 L530,94.7324 C545,94.7324 545,94.7324 560,94.7324 L570,94.7324 " fill="none" style="stroke:#181818;stroke-width:1.0;"/><path d="M352,179.4648 L362,179.4648 C377,179.4648 377,94.7324 392,94.7324 L402,94.7324 " fill="none" style="stroke:#181818;stroke-width:1.0;"/><rect fill="#F1F1F1" height="36.4883" rx="12.5" ry="12.5" style="stroke:#181818;stroke-width:1.5;" width="118" x="402" y="132.9766"/><text fill="#000000" font-family="sans-serif" font-size="14" lengthAdjust="spacing" textLength="98" x="412" y="156.5117">建立外部反馈力</text><rect fill="#F1F1F1" height="36.4883" rx="12.5" ry="12.5" style="stroke:#181818;stroke-width:1.5;" width="216" x="570" y="132.9766"/><text fill="#000000" font-family="sans-serif" font-size="14" lengthAdjust="spacing" textLength="196" x="580" y="156.5117">利用外部压力，倒逼自己提高。</text><path d="M520,151.2207 L530,151.2207 C545,151.2207 545,151.2207 560,151.2207 L570,151.2207 " fill="none" style="stroke:#181818;stroke-width:1.0;"/><path d="M352,179.4648 L362,179.4648 C377,179.4648 377,151.2207 392,151.2207 L402,151.2207 " fill="none" style="stroke:#181818;stroke-width:1.0;"/><rect fill="#F1F1F1" height="36.4883" rx="12.5" ry="12.5" style="stroke:#181818;stroke-width:1.5;" width="118" x="402" y="189.4648"/><text fill="#000000" font-family="sans-serif" font-size="14" lengthAdjust="spacing" textLength="98" x="412" y="213">增加职场竞争力</text><rect fill="#F1F1F1" height="36.4883" rx="12.5" ry="12.5" style="stroke:#181818;stroke-width:1.5;" width="300" x="570" y="189.4648"/><text fill="#000000" font-family="sans-serif" font-size="14" lengthAdjust="spacing" textLength="280" x="580" y="213">通过提升圈子，打开视野，增加职场影响力。</text><path d="M520,207.709 L530,207.709 C545,207.709 545,207.709 560,207.709 L570,207.709 " fill="none" style="stroke:#181818;stroke-width:1.0;"/><path d="M352,179.4648 L362,179.4648 C377,179.4648 377,207.709 392,207.709 L402,207.709 " fill="none" style="stroke:#181818;stroke-width:1.0;"/><rect fill="#F1F1F1" height="36.4883" rx="12.5" ry="12.5" style="stroke:#181818;stroke-width:1.5;" width="118" x="402" y="274.1973"/><text fill="#000000" font-family="sans-serif" font-size="14" lengthAdjust="spacing" textLength="98" x="412" y="297.7324">放大个人影响力</text><rect fill="#F1F1F1" height="36.4883" rx="12.5" ry="12.5" style="stroke:#181818;stroke-width:1.5;" width="342" x="570" y="245.9531"/><text fill="#000000" font-family="sans-serif" font-size="14" lengthAdjust="spacing" textLength="322" x="580" y="269.4883">利用写作能力，传递思想和价值，增强个人影响力。</text><path d="M520,292.4414 L530,292.4414 C545,292.4414 545,264.1973 560,264.1973 L570,264.1973 " fill="none" style="stroke:#181818;stroke-width:1.0;"/><rect fill="#F1F1F1" height="36.4883" rx="12.5" ry="12.5" style="stroke:#181818;stroke-width:1.5;" width="566" x="570" y="302.4414"/><text fill="#000000" font-family="sans-serif" font-size="14" lengthAdjust="spacing" textLength="546" x="580" y="325.9766">将自己当成公司去经营，提升个人影响力，就是提升品牌知名度，就能提升个人的价值。</text><path d="M520,292.4414 L530,292.4414 C545,292.4414 545,320.6855 560,320.6855 L570,320.6855 " fill="none" style="stroke:#181818;stroke-width:1.0;"/><path d="M352,179.4648 L362,179.4648 C377,179.4648 377,292.4414 392,292.4414 L402,292.4414 " fill="none" style="stroke:#181818;stroke-width:1.0;"/><path d="M184,853.8125 L194,853.8125 C209,853.8125 209,179.4648 224,179.4648 L234,179.4648 " fill="none" style="stroke:#181818;stroke-width:1.0;"/><rect fill="#F1F1F1" height="36.4883" rx="12.5" ry="12.5" style="stroke:#181818;stroke-width:1.5;" width="146" x="234" y="443.6621"/><text fill="#000000" font-family="sans-serif" font-size="14" lengthAdjust="spacing" textLength="126" x="244" y="467.1973">开始写作的三条建议</text><rect fill="#F1F1F1" height="36.4883" rx="12.5" ry="12.5" style="stroke:#181818;stroke-width:1.5;" width="62" x="430" y="358.9297"/><text fill="#000000" font-family="sans-serif" font-size="14" lengthAdjust="spacing" textLength="42" x="440" y="382.4648">开始写</text><rect fill="#F1F1F1" height="36.4883" rx="12.5" ry="12.5" style="stroke:#181818;stroke-width:1.5;" width="188" x="542" y="358.9297"/><text fill="#000000" font-family="sans-serif" font-size="14" lengthAdjust="spacing" textLength="168" x="552" y="382.4648">开始写比思考如何写更重要</text><path d="M492,377.1738 L502,377.1738 C517,377.1738 517,377.1738 532,377.1738 L542,377.1738 " fill="none" style="stroke:#181818;stroke-width:1.0;"/><path d="M380,461.9063 L390,461.9063 C405,461.9063 405,377.1738 420,377.1738 L430,377.1738 " fill="none" style="stroke:#181818;stroke-width:1.0;"/><rect fill="#F1F1F1" height="36.4883" rx="12.5" ry="12.5" style="stroke:#181818;stroke-width:1.5;" width="132" x="430" y="443.6621"/><text fill="#000000" font-family="sans-serif" font-size="14" lengthAdjust="spacing" textLength="112" x="440" y="467.1973">带有明确目的去写</text><rect fill="#F1F1F1" height="36.4883" rx="12.5" ry="12.5" style="stroke:#181818;stroke-width:1.5;" width="342" x="612" y="415.418"/><text fill="#000000" font-family="sans-serif" font-size="14" lengthAdjust="spacing" textLength="322" x="622" y="438.9531">明确写作目的，传递价值和思想，增加读者的参与感</text><path d="M562,461.9063 L572,461.9063 C587,461.9063 587,433.6621 602,433.6621 L612,433.6621 " fill="none" style="stroke:#181818;stroke-width:1.0;"/><rect fill="#F1F1F1" height="36.4883" rx="12.5" ry="12.5" style="stroke:#181818;stroke-width:1.5;" width="328" x="612" y="471.9063"/><text fill="#000000" font-family="sans-serif" font-size="14" lengthAdjust="spacing" textLength="308" x="622" y="495.4414">明确目标用户，增加用户的认同感，提升用户黏性</text><path d="M562,461.9063 L572,461.9063 C587,461.9063 587,490.1504 602,490.1504 L612,490.1504 " fill="none" style="stroke:#181818;stroke-width:1.0;"/><path d="M380,461.9063 L390,461.9063 C405,461.9063 405,461.9063 420,461.9063 L430,461.9063 " fill="none" style="stroke:#181818;stroke-width:1.0;"/><rect fill="#F1F1F1" height="36.4883" rx="12.5" ry="12.5" style="stroke:#181818;stroke-width:1.5;" width="216" x="430" y="528.3945"/><text fill="#000000" font-family="sans-serif" font-size="14" lengthAdjust="spacing" textLength="196" x="440" y="551.9297">写作是双向沟通，而非单向沟通</text><rect fill="#F1F1F1" height="36.4883" rx="12.5" ry="12.5" style="stroke:#181818;stroke-width:1.5;" width="258" x="696" y="528.3945"/><text fill="#000000" font-family="sans-serif" font-size="14" lengthAdjust="spacing" textLength="238" x="706" y="551.9297">要理解读者，增加读者的互动和反馈。</text><path d="M646,546.6387 L656,546.6387 C671,546.6387 671,546.6387 686,546.6387 L696,546.6387 " fill="none" style="stroke:#181818;stroke-width:1.0;"/><path d="M380,461.9063 L390,461.9063 C405,461.9063 405,546.6387 420,546.6387 L430,546.6387 " fill="none" style="stroke:#181818;stroke-width:1.0;"/><path d="M184,853.8125 L194,853.8125 C209,853.8125 209,461.9063 224,461.9063 L234,461.9063 " fill="none" style="stroke:#181818;stroke-width:1.0;"/><rect fill="#F1F1F1" height="36.4883" rx="12.5" ry="12.5" style="stroke:#181818;stroke-width:1.5;" width="174" x="234" y="835.5684"/><text fill="#000000" font-family="sans-serif" font-size="14" lengthAdjust="spacing" textLength="154" x="244" y="859.1035">提升写作能力的三个维度</text><rect fill="#F1F1F1" height="36.4883" rx="12.5" ry="12.5" style="stroke:#181818;stroke-width:1.5;" width="146" x="458" y="621.3711"/><text fill="#000000" font-family="sans-serif" font-size="14" lengthAdjust="spacing" textLength="126" x="468" y="644.9063">输入能力：入口思维</text><rect fill="#F1F1F1" height="36.4883" rx="12.5" ry="12.5" style="stroke:#181818;stroke-width:1.5;" width="160" x="654" y="584.8828"/><text fill="#000000" font-family="sans-serif" font-size="14" lengthAdjust="spacing" textLength="140" x="664" y="608.418">提高输入数量，多读书</text><path d="M604,639.6152 L614,639.6152 C629,639.6152 629,603.127 644,603.127 L654,603.127 " fill="none" style="stroke:#181818;stroke-width:1.0;"/><rect fill="#F1F1F1" height="52.9766" rx="12.5" ry="12.5" style="stroke:#181818;stroke-width:1.5;" width="552" x="654" y="641.3711"/><text fill="#000000" font-family="sans-serif" font-size="14" lengthAdjust="spacing" textLength="140" x="664" y="664.9063">提高输入质量，读好书</text><text fill="#000000" font-family="sans-serif" font-size="14" lengthAdjust="spacing" textLength="532" x="664" y="681.3945">提高输入效率，需要定期整理自己的输入的内容，把优质的内容列出来，然后重新阅读</text><path d="M604,639.6152 L614,639.6152 C629,639.6152 629,667.8594 644,667.8594 L654,667.8594 " fill="none" style="stroke:#181818;stroke-width:1.0;"/><path d="M408,853.8125 L418,853.8125 C433,853.8125 433,639.6152 448,639.6152 L458,639.6152 " fill="none" style="stroke:#181818;stroke-width:1.0;"/><rect fill="#F1F1F1" height="52.9766" rx="12.5" ry="12.5" style="stroke:#181818;stroke-width:1.5;" width="552" x="458" y="770.8359"/><text fill="#000000" font-family="sans-serif" font-size="14" lengthAdjust="spacing" textLength="126" x="468" y="794.3711">思考能力：洞察思维</text><text fill="#000000" font-family="sans-serif" font-size="14" lengthAdjust="spacing" textLength="532" x="468" y="810.8594">思考是向内的阅读，让你沉淀出思想，深度思考出来的内容才足够深刻，足够有吸引力</text><rect fill="#F1F1F1" height="36.4883" rx="12.5" ry="12.5" style="stroke:#181818;stroke-width:1.5;" width="118" x="1060" y="714.3477"/><text fill="#000000" font-family="sans-serif" font-size="14" lengthAdjust="spacing" textLength="98" x="1070" y="737.8828">洞察事物的本质</text><path d="M1010,797.3242 L1020,797.3242 C1035,797.3242 1035,732.5918 1050,732.5918 L1060,732.5918 " fill="none" style="stroke:#181818;stroke-width:1.0;"/><rect fill="#F1F1F1" height="52.9766" rx="12.5" ry="12.5" style="stroke:#181818;stroke-width:1.5;" width="160" x="1060" y="770.8359"/><text fill="#000000" font-family="sans-serif" font-size="14" lengthAdjust="spacing" textLength="98" x="1070" y="794.3711">洞察带我的联结</text><text fill="#000000" font-family="sans-serif" font-size="14" lengthAdjust="spacing" textLength="140" x="1070" y="810.8594">有素材有效串联、整合</text><path d="M1010,797.3242 L1020,797.3242 C1035,797.3242 1035,797.3242 1050,797.3242 L1060,797.3242 " fill="none" style="stroke:#181818;stroke-width:1.0;"/><rect fill="#F1F1F1" height="36.4883" rx="12.5" ry="12.5" style="stroke:#181818;stroke-width:1.5;" width="132" x="1060" y="843.8125"/><text fill="#000000" font-family="sans-serif" font-size="14" lengthAdjust="spacing" textLength="112" x="1070" y="867.3477">善用洞察到的思维</text><path d="M1010,797.3242 L1020,797.3242 C1035,797.3242 1035,862.0566 1050,862.0566 L1060,862.0566 " fill="none" style="stroke:#181818;stroke-width:1.0;"/><path d="M408,853.8125 L418,853.8125 C433,853.8125 433,797.3242 448,797.3242 L458,797.3242 " fill="none" style="stroke:#181818;stroke-width:1.0;"/><rect fill="#F1F1F1" height="36.4883" rx="12.5" ry="12.5" style="stroke:#181818;stroke-width:1.5;" width="146" x="458" y="993.2773"/><text fill="#000000" font-family="sans-serif" font-size="14" lengthAdjust="spacing" textLength="126" x="468" y="1016.8125">输出能力：出口思维</text><rect fill="#F1F1F1" height="36.4883" rx="12.5" ry="12.5" style="stroke:#181818;stroke-width:1.5;" width="426" x="654" y="900.3008"/><text fill="#000000" font-family="sans-serif" font-size="14" lengthAdjust="spacing" textLength="406" x="664" y="923.8359">练就文字功底，把自己的想法和心得直观、流畅、传神地表达出来</text><path d="M604,1011.5215 L614,1011.5215 C629,1011.5215 629,918.5449 644,918.5449 L654,918.5449 " fill="none" style="stroke:#181818;stroke-width:1.0;"/><rect fill="#F1F1F1" height="52.9766" rx="12.5" ry="12.5" style="stroke:#181818;stroke-width:1.5;" width="608" x="654" y="956.7891"/><text fill="#000000" font-family="sans-serif" font-size="14" lengthAdjust="spacing" textLength="98" x="664" y="980.3242">持续高质量输出</text><text fill="#000000" font-family="sans-serif" font-size="14" lengthAdjust="spacing" textLength="588" x="664" y="996.8125">输入的质量和思考的质量决定了输出的质量，要利用思考将输入的内容整理归纳成可输出的内容</text><path d="M604,1011.5215 L614,1011.5215 C629,1011.5215 629,983.2773 644,983.2773 L654,983.2773 " fill="none" style="stroke:#181818;stroke-width:1.0;"/><rect fill="#F1F1F1" height="36.4883" rx="12.5" ry="12.5" style="stroke:#181818;stroke-width:1.5;" width="328" x="654" y="1029.7656"/><text fill="#000000" font-family="sans-serif" font-size="14" lengthAdjust="spacing" textLength="308" x="664" y="1053.3008">建立优质正反馈，利用外在的意见优化自己的写作</text><path d="M604,1011.5215 L614,1011.5215 C629,1011.5215 629,1048.0098 644,1048.0098 L654,1048.0098 " fill="none" style="stroke:#181818;stroke-width:1.0;"/><rect fill="#F1F1F1" height="36.4883" rx="12.5" ry="12.5" style="stroke:#181818;stroke-width:1.5;" width="118" x="654" y="1086.2539"/><text fill="#000000" font-family="sans-serif" font-size="14" lengthAdjust="spacing" textLength="98" x="664" y="1109.7891">创造里程碑事件</text><path d="M604,1011.5215 L614,1011.5215 C629,1011.5215 629,1104.498 644,1104.498 L654,1104.498 " fill="none" style="stroke:#181818;stroke-width:1.0;"/><path d="M408,853.8125 L418,853.8125 C433,853.8125 433,1011.5215 448,1011.5215 L458,1011.5215 " fill="none" style="stroke:#181818;stroke-width:1.0;"/><path d="M184,853.8125 L194,853.8125 C209,853.8125 209,853.8125 224,853.8125 L234,853.8125 " fill="none" style="stroke:#181818;stroke-width:1.0;"/><rect fill="#F1F1F1" height="36.4883" rx="12.5" ry="12.5" style="stroke:#181818;stroke-width:1.5;" width="146" x="234" y="1199.2305"/><text fill="#000000" font-family="sans-serif" font-size="14" lengthAdjust="spacing" textLength="126" x="244" y="1222.7656">新媒体写作三大要素</text><rect fill="#F1F1F1" height="36.4883" rx="12.5" ry="12.5" style="stroke:#181818;stroke-width:1.5;" width="342" x="430" y="1142.7422"/><text fill="#000000" font-family="sans-serif" font-size="14" lengthAdjust="spacing" textLength="322" x="440" y="1166.2773">想清楚变现方式，想清楚自己后面的路应该怎么设计</text><path d="M380,1217.4746 L390,1217.4746 C405,1217.4746 405,1160.9863 420,1160.9863 L430,1160.9863 " fill="none" style="stroke:#181818;stroke-width:1.0;"/><rect fill="#F1F1F1" height="36.4883" rx="12.5" ry="12.5" style="stroke:#181818;stroke-width:1.5;" width="384" x="430" y="1199.2305"/><text fill="#000000" font-family="sans-serif" font-size="14" lengthAdjust="spacing" textLength="364" x="440" y="1222.7656">不要太追求结果，要用长远的眼光、良好的心态来看待写作</text><path d="M380,1217.4746 L390,1217.4746 C405,1217.4746 405,1217.4746 420,1217.4746 L430,1217.4746 " fill="none" style="stroke:#181818;stroke-width:1.0;"/><rect fill="#F1F1F1" height="36.4883" rx="12.5" ry="12.5" style="stroke:#181818;stroke-width:1.5;" width="566" x="430" y="1255.7188"/><text fill="#000000" font-family="sans-serif" font-size="14" lengthAdjust="spacing" textLength="546" x="440" y="1279.2539">把写作当作修行，将关注度从外在转向内在，写作能力是否提升、有没有让我变得有价值</text><path d="M380,1217.4746 L390,1217.4746 C405,1217.4746 405,1273.9629 420,1273.9629 L430,1273.9629 " fill="none" style="stroke:#181818;stroke-width:1.0;"/><path d="M184,853.8125 L194,853.8125 C209,853.8125 209,1217.4746 224,1217.4746 L234,1217.4746 " fill="none" style="stroke:#181818;stroke-width:1.0;"/><rect fill="#F1F1F1" height="36.4883" rx="12.5" ry="12.5" style="stroke:#181818;stroke-width:1.5;" width="160" x="234" y="1481.6719"/><text fill="#000000" font-family="sans-serif" font-size="14" lengthAdjust="spacing" textLength="140" x="244" y="1505.207">如何正确开启写作之路</text><rect fill="#F1F1F1" height="36.4883" rx="12.5" ry="12.5" style="stroke:#181818;stroke-width:1.5;" width="636" x="444" y="1312.207"/><text fill="#000000" font-family="sans-serif" font-size="14" lengthAdjust="spacing" textLength="616" x="454" y="1335.7422">利用碎片化时间构思框架、寻找素材、选择配图，打磨标题、开头或者结尾，从而培养时间管理能力</text><path d="M394,1499.916 L404,1499.916 C419,1499.916 419,1330.4512 434,1330.4512 L444,1330.4512 " fill="none" style="stroke:#181818;stroke-width:1.0;"/><rect fill="#F1F1F1" height="36.4883" rx="12.5" ry="12.5" style="stroke:#181818;stroke-width:1.5;" width="356" x="444" y="1368.6953"/><text fill="#000000" font-family="sans-serif" font-size="14" lengthAdjust="spacing" textLength="336" x="454" y="1392.2305">学会写复盘，先梳理出框架，然后按自己思路补充内容</text><path d="M394,1499.916 L404,1499.916 C419,1499.916 419,1386.9395 434,1386.9395 L444,1386.9395 " fill="none" style="stroke:#181818;stroke-width:1.0;"/><rect fill="#F1F1F1" height="36.4883" rx="12.5" ry="12.5" style="stroke:#181818;stroke-width:1.5;" width="146" x="444" y="1509.916"/><text fill="#000000" font-family="sans-serif" font-size="14" lengthAdjust="spacing" textLength="126" x="454" y="1533.4512">打造稳定的写作能力</text><rect fill="#F1F1F1" height="36.4883" rx="12.5" ry="12.5" style="stroke:#181818;stroke-width:1.5;" width="160" x="640" y="1425.1836"/><text fill="#000000" font-family="sans-serif" font-size="14" lengthAdjust="spacing" textLength="140" x="650" y="1448.7188">输入，持续高质量输入</text><path d="M590,1528.1602 L600,1528.1602 C615,1528.1602 615,1443.4277 630,1443.4277 L640,1443.4277 " fill="none" style="stroke:#181818;stroke-width:1.0;"/><rect fill="#F1F1F1" height="36.4883" rx="12.5" ry="12.5" style="stroke:#181818;stroke-width:1.5;" width="160" x="640" y="1481.6719"/><text fill="#000000" font-family="sans-serif" font-size="14" lengthAdjust="spacing" textLength="140" x="650" y="1505.207">整理，整理素材、案例</text><path d="M590,1528.1602 L600,1528.1602 C615,1528.1602 615,1499.916 630,1499.916 L640,1499.916 " fill="none" style="stroke:#181818;stroke-width:1.0;"/><rect fill="#F1F1F1" height="36.4883" rx="12.5" ry="12.5" style="stroke:#181818;stroke-width:1.5;" width="132" x="640" y="1538.1602"/><text fill="#000000" font-family="sans-serif" font-size="14" lengthAdjust="spacing" textLength="112" x="650" y="1561.6953">输出，做专项训练</text><path d="M590,1528.1602 L600,1528.1602 C615,1528.1602 615,1556.4043 630,1556.4043 L640,1556.4043 " fill="none" style="stroke:#181818;stroke-width:1.0;"/><rect fill="#F1F1F1" height="36.4883" rx="12.5" ry="12.5" style="stroke:#181818;stroke-width:1.5;" width="160" x="640" y="1594.6484"/><text fill="#000000" font-family="sans-serif" font-size="14" lengthAdjust="spacing" textLength="140" x="650" y="1618.1836">反馈，接受直接的反馈</text><path d="M590,1528.1602 L600,1528.1602 C615,1528.1602 615,1612.8926 630,1612.8926 L640,1612.8926 " fill="none" style="stroke:#181818;stroke-width:1.0;"/><path d="M394,1499.916 L404,1499.916 C419,1499.916 419,1528.1602 434,1528.1602 L444,1528.1602 " fill="none" style="stroke:#181818;stroke-width:1.0;"/><rect fill="#F1F1F1" height="36.4883" rx="12.5" ry="12.5" style="stroke:#181818;stroke-width:1.5;" width="230" x="444" y="1651.1367"/><text fill="#000000" font-family="sans-serif" font-size="14" lengthAdjust="spacing" textLength="210" x="454" y="1674.6719">树立清晰的目标，克服拖延和质疑</text><rect fill="#F1F1F1" height="36.4883" rx="12.5" ry="12.5" style="stroke:#181818;stroke-width:1.5;" width="230" x="724" y="1651.1367"/><text fill="#000000" font-family="sans-serif" font-size="14" lengthAdjust="spacing" textLength="210" x="734" y="1674.6719">利用任务和目标驱动自己坚持写作</text><path d="M674,1669.3809 L684,1669.3809 C699,1669.3809 699,1669.3809 714,1669.3809 L724,1669.3809 " fill="none" style="stroke:#181818;stroke-width:1.0;"/><path d="M394,1499.916 L404,1499.916 C419,1499.916 419,1669.3809 434,1669.3809 L444,1669.3809 " fill="none" style="stroke:#181818;stroke-width:1.0;"/><path d="M184,853.8125 L194,853.8125 C209,853.8125 209,1499.916 224,1499.916 L234,1499.916 " fill="none" style="stroke:#181818;stroke-width:1.0;"/><!--SRC=[PLPBSnf74BxpA_PegyekMubTZdnnnKvIfTY9AtxSYKqSgYpaaf2hajCYjB28fuH0624U4Y0aMmkIY0IxW7wCjsTcJ_uBwTbP5YpVTgQxl-d7rztxO3deNGek-0El5xplF3CIH3wOmnBJwgmT-J8eakDzMjF4KOWyCpEIsTDDGpRxAWnaE8YxWXc9QHqOvkXMXNGDs4oGhJwa2ro2HaQAb6IgoP3CqU8QoVTXa7O1lWmIj1G7jSEYHt1nmXLisy_ogWrCqXb8HkdfY1fXLcknqGZMTmGmqmudHlae76-BHpxB8Q6F7-I_4Cqf_ACKO-qkAINHV8mDXau_ng6Ujy8jI2UjfkfYWtf8jrgEA1N7UtGKv4rB7eWtqI_he-ibx9LXlSf22IWXPDdKOowI9HVPPLI40IKLZZE8H69Pp00xY5ZH50UUCeVX2MIdlIHR8wWVcBqZKvy8l_9Ib2uy55wQWwebRn9vbuJFi1IcSG7om7bae5_1SHv1g4v410R3B54pe7o2T0zI1ZNIBDFWBjiHN37di9qJKcWxyML3D9QWbGPaag0tXHGTcxR5OWcNnDFID9Muh1SZkpMi3DCqaTgntF5pV2JjBOoHoM5ehfh37B_PwLhH96k6X5slYJKdXHJocEve28tHk33YtddLbhgP4zvn4jifd9IdRJ1PuJZfLREN8ckLQIW48TKeLeEe5ww9EA89DX9a4cZY9bA8B2DDv0FXh-qBfXBI2SXiaDCACWVLcPomTij8Q_VIONypH3CHTh0l_FhMJLFVXFKMnY6exQJRATGKPKJIiJZKw6BHH3kFig0qnfGguZUazp4VgE84RTDVg95SnugckGFr8hvkzcsCcRbf7TPj2HrKWCQGwtmDeT9K5CLMISR0G2kIKeNakZp2SOiBJPx_Y09QdsToVTqS513QlGHr6w8wsUM4fMlda4aX8qY-OnKKVFY-ntRBPeqR6-cMeLrnOXCoNeJC1Y8Yhh3aZck7vh1AJcFaGkPlZCb1i6NqfaD5-stN6n9BilCpg5UuZcg3Y6Cf1faU37BemNqddxONfXwdiKC-pagVC2mdZRQ8qrdTu6a8RL4Zwq4CsgsItGmdUKurUwSeu7CkruMCwg12VetpJ02e7Gxirj2kSLIVr3YgNwanJb3UtFPaXVKAw3cHyydG3P-Hinnds6KOHjjqfyiELgU7BZOKRPIXr74cjvqU9wf4Y1h7d00sCuGp7hV6ubOq8IPsSXCvGtAOUaGOkFSyjyWRUnuwjUX4hZ16y0c6crG_uoCktNP1XC8uQ_PQ4Cp2FIZQXzDxl1EWn1b7rjBi04CiG2BlfcIo4lbqth7agXLDq5QSxcrWSKtZtEx1V0UEDirXLcXZz-60v_tShOg9ZtdjAQHHn3r8KnsnCNdkn_VEf4Psx-xn55oqGTzYxGQHKxYScJPYMir6Cdjy7aBzY5qEoSag4eUKIo9N68gLksINVEZIqW2K61QCnThOdJoEop31GYAPSJcFbAbDZmGG9rmKtFbBZTKIzgIFW89yQ64tuCeNQMB3JwAJy9lhJ8qTkycQOXo9_KnEQtnBQuT8T8mS6OL7COtjHM7FUV5ZmhT0fksahn_717Wc-v3kfMWiYbKXs-VMTfUKEUj9BKBAv_WGj0qI6udUmQCbnqZyq5AIi3CIYvdkjt2IMti5heplrBj4pVEHQcIXmtKmEXpAKEc3OeWdg5RZaygEIpXot3InfI8Ve9waEmKUkgAIlJFEFsm2snTtH954pFcdGE9Uj5cj0OeY62ao7iiYZsYBCz-bsEInyRJctd_RL4h36J0s-RcE_U76JsggEOfFSA8wTpPKD7jPgzPdsZ5E0OVEupuWATm6lDlnmrw7_5vuMjt0pk4S_S27ZTY9Tl1n_FCYyJmOvzZJV6BdDwP_OKp3WFKQYeI9TNY2gyjX-MuHmt88-C27_wlEFwldwLjl8FZYoMFflMzfsRyOa6xVdBqr-ztDszUUhGIaUMz0clr1chqrT-VUt9sxqiDdpoKklkwvzilJnzBouihIAv_qshySNFB_kH94- -kUUUzxh_J7IY3eN_3DIR-_ymNc7_qwlf1-2hptBoq65do1e6V-vPE9mjtlR_pe3qhFV4leYVJoYUUHxo_lojiWMhnQVEqFl9cJNZp_-SOzpsDluCsAzmrY__ktv-4YuYxzCoSz_Er_]--></g></svg>