<?xml version="1.0" encoding="UTF-8" standalone="no"?><svg xmlns="http://www.w3.org/2000/svg" xmlns:xlink="http://www.w3.org/1999/xlink" contentStyleType="text/css" height="1479px" preserveAspectRatio="none" style="width:1064px;height:1479px;background:#FFFFFF;" version="1.1" viewBox="0 0 1064 1479" width="1064px" zoomAndPan="magnify"><defs/><g><rect fill="#F1F1F1" height="36.4883" rx="12.5" ry="12.5" style="stroke:#181818;stroke-width:1.5;" width="272" x="10" y="720.3008"/><text fill="#000000" font-family="sans-serif" font-size="14" lengthAdjust="spacing" textLength="252" x="20" y="743.8359">写稿改稿：完成用于完美，改稿优化质量</text><rect fill="#F1F1F1" height="36.4883" rx="12.5" ry="12.5" style="stroke:#181818;stroke-width:1.5;" width="174" x="332" y="76.4883"/><text fill="#000000" font-family="sans-serif" font-size="14" lengthAdjust="spacing" textLength="154" x="342" y="100.0234">克服拖延，快速完成初稿</text><rect fill="#F1F1F1" height="36.4883" rx="12.5" ry="12.5" style="stroke:#181818;stroke-width:1.5;" width="202" x="556" y="20"/><text fill="#000000" font-family="sans-serif" font-size="14" lengthAdjust="spacing" textLength="182" x="566" y="43.5352">降低初稿预期，完成生于完美</text><path d="M506,94.7324 L516,94.7324 C531,94.7324 531,38.2441 546,38.2441 L556,38.2441 " fill="none" style="stroke:#181818;stroke-width:1.0;"/><rect fill="#F1F1F1" height="36.4883" rx="12.5" ry="12.5" style="stroke:#181818;stroke-width:1.5;" width="202" x="556" y="76.4883"/><text fill="#000000" font-family="sans-serif" font-size="14" lengthAdjust="spacing" textLength="182" x="566" y="100.0234">设置截止时间，倒逼自己输出</text><path d="M506,94.7324 L516,94.7324 C531,94.7324 531,94.7324 546,94.7324 L556,94.7324 " fill="none" style="stroke:#181818;stroke-width:1.0;"/><rect fill="#F1F1F1" height="36.4883" rx="12.5" ry="12.5" style="stroke:#181818;stroke-width:1.5;" width="202" x="556" y="132.9766"/><text fill="#000000" font-family="sans-serif" font-size="14" lengthAdjust="spacing" textLength="182" x="566" y="156.5117">封闭式写作，集中式完成初稿</text><path d="M506,94.7324 L516,94.7324 C531,94.7324 531,151.2207 546,151.2207 L556,151.2207 " fill="none" style="stroke:#181818;stroke-width:1.0;"/><path d="M282,738.5449 L292,738.5449 C307,738.5449 307,94.7324 322,94.7324 L332,94.7324 " fill="none" style="stroke:#181818;stroke-width:1.0;"/><rect fill="#F1F1F1" height="36.4883" rx="12.5" ry="12.5" style="stroke:#181818;stroke-width:1.5;" width="104" x="332" y="363.6621"/><text fill="#000000" font-family="sans-serif" font-size="14" lengthAdjust="spacing" textLength="84" x="342" y="387.1973">提升逻辑思考</text><rect fill="#F1F1F1" height="36.4883" rx="12.5" ry="12.5" style="stroke:#181818;stroke-width:1.5;" width="174" x="486" y="307.1738"/><text fill="#000000" font-family="sans-serif" font-size="14" lengthAdjust="spacing" textLength="154" x="496" y="330.709">通过分类，建立文章逻辑</text><path d="M436,381.9063 L446,381.9063 C461,381.9063 461,325.418 476,325.418 L486,325.418 " fill="none" style="stroke:#181818;stroke-width:1.0;"/><rect fill="#F1F1F1" height="36.4883" rx="12.5" ry="12.5" style="stroke:#181818;stroke-width:1.5;" width="202" x="486" y="363.6621"/><text fill="#000000" font-family="sans-serif" font-size="14" lengthAdjust="spacing" textLength="182" x="496" y="387.1973">打磨逻辑框架，厘清内部关系</text><rect fill="#F1F1F1" height="36.4883" rx="12.5" ry="12.5" style="stroke:#181818;stroke-width:1.5;" width="76" x="738" y="214.1973"/><text fill="#000000" font-family="sans-serif" font-size="14" lengthAdjust="spacing" textLength="56" x="748" y="237.7324">结构关系</text><rect fill="#F1F1F1" height="85.9531" rx="12.5" ry="12.5" style="stroke:#181818;stroke-width:1.5;" width="104" x="864" y="189.4648"/><text fill="#000000" font-family="sans-serif" font-size="14" lengthAdjust="spacing" textLength="56" x="874" y="213">顺序结构</text><text fill="#000000" font-family="sans-serif" font-size="14" lengthAdjust="spacing" textLength="56" x="874" y="229.4883">并列结构</text><text fill="#000000" font-family="sans-serif" font-size="14" lengthAdjust="spacing" textLength="56" x="874" y="245.9766">递进结构</text><text fill="#000000" font-family="sans-serif" font-size="14" lengthAdjust="spacing" textLength="84" x="874" y="262.4648">正反对比结构</text><path d="M814,232.4414 L824,232.4414 C839,232.4414 839,232.4414 854,232.4414 L864,232.4414 " fill="none" style="stroke:#181818;stroke-width:1.0;"/><path d="M688,381.9063 L698,381.9063 C713,381.9063 713,232.4414 728,232.4414 L738,232.4414 " fill="none" style="stroke:#181818;stroke-width:1.0;"/><rect fill="#F1F1F1" height="36.4883" rx="12.5" ry="12.5" style="stroke:#181818;stroke-width:1.5;" width="76" x="738" y="303.6621"/><text fill="#000000" font-family="sans-serif" font-size="14" lengthAdjust="spacing" textLength="56" x="748" y="327.1973">因果关系</text><rect fill="#F1F1F1" height="52.9766" rx="12.5" ry="12.5" style="stroke:#181818;stroke-width:1.5;" width="76" x="864" y="295.418"/><text fill="#000000" font-family="sans-serif" font-size="14" lengthAdjust="spacing" textLength="56" x="874" y="318.9531">先果后因</text><text fill="#000000" font-family="sans-serif" font-size="14" lengthAdjust="spacing" textLength="56" x="874" y="335.4414">先因后果</text><path d="M814,321.9063 L824,321.9063 C839,321.9063 839,321.9063 854,321.9063 L864,321.9063 " fill="none" style="stroke:#181818;stroke-width:1.0;"/><path d="M688,381.9063 L698,381.9063 C713,381.9063 713,321.9063 728,321.9063 L738,321.9063 " fill="none" style="stroke:#181818;stroke-width:1.0;"/><rect fill="#F1F1F1" height="36.4883" rx="12.5" ry="12.5" style="stroke:#181818;stroke-width:1.5;" width="76" x="738" y="396.6387"/><text fill="#000000" font-family="sans-serif" font-size="14" lengthAdjust="spacing" textLength="56" x="748" y="420.1738">分解关系</text><rect fill="#F1F1F1" height="36.4883" rx="12.5" ry="12.5" style="stroke:#181818;stroke-width:1.5;" width="118" x="864" y="368.3945"/><text fill="#000000" font-family="sans-serif" font-size="14" lengthAdjust="spacing" textLength="98" x="874" y="391.9297">按步骤梳理观点</text><path d="M814,414.8828 L824,414.8828 C839,414.8828 839,386.6387 854,386.6387 L864,386.6387 " fill="none" style="stroke:#181818;stroke-width:1.0;"/><rect fill="#F1F1F1" height="36.4883" rx="12.5" ry="12.5" style="stroke:#181818;stroke-width:1.5;" width="132" x="864" y="424.8828"/><text fill="#000000" font-family="sans-serif" font-size="14" lengthAdjust="spacing" textLength="112" x="874" y="448.418">按步骤写具体思路</text><path d="M814,414.8828 L824,414.8828 C839,414.8828 839,443.127 854,443.127 L864,443.127 " fill="none" style="stroke:#181818;stroke-width:1.0;"/><path d="M688,381.9063 L698,381.9063 C713,381.9063 713,414.8828 728,414.8828 L738,414.8828 " fill="none" style="stroke:#181818;stroke-width:1.0;"/><rect fill="#F1F1F1" height="36.4883" rx="12.5" ry="12.5" style="stroke:#181818;stroke-width:1.5;" width="132" x="738" y="509.6152"/><text fill="#000000" font-family="sans-serif" font-size="14" lengthAdjust="spacing" textLength="112" x="748" y="533.1504">删减不相关的信息</text><rect fill="#F1F1F1" height="36.4883" rx="12.5" ry="12.5" style="stroke:#181818;stroke-width:1.5;" width="118" x="920" y="481.3711"/><text fill="#000000" font-family="sans-serif" font-size="14" lengthAdjust="spacing" textLength="98" x="930" y="504.9063">删减不相关案例</text><path d="M870,527.8594 L880,527.8594 C895,527.8594 895,499.6152 910,499.6152 L920,499.6152 " fill="none" style="stroke:#181818;stroke-width:1.0;"/><rect fill="#F1F1F1" height="36.4883" rx="12.5" ry="12.5" style="stroke:#181818;stroke-width:1.5;" width="132" x="920" y="537.8594"/><text fill="#000000" font-family="sans-serif" font-size="14" lengthAdjust="spacing" textLength="112" x="930" y="561.3945">删减不相关的词句</text><path d="M870,527.8594 L880,527.8594 C895,527.8594 895,556.1035 910,556.1035 L920,556.1035 " fill="none" style="stroke:#181818;stroke-width:1.0;"/><path d="M688,381.9063 L698,381.9063 C713,381.9063 713,527.8594 728,527.8594 L738,527.8594 " fill="none" style="stroke:#181818;stroke-width:1.0;"/><path d="M436,381.9063 L446,381.9063 C461,381.9063 461,381.9063 476,381.9063 L486,381.9063 " fill="none" style="stroke:#181818;stroke-width:1.0;"/><path d="M282,738.5449 L292,738.5449 C307,738.5449 307,381.9063 322,381.9063 L332,381.9063 " fill="none" style="stroke:#181818;stroke-width:1.0;"/><rect fill="#F1F1F1" height="36.4883" rx="12.5" ry="12.5" style="stroke:#181818;stroke-width:1.5;" width="104" x="332" y="743.8125"/><text fill="#000000" font-family="sans-serif" font-size="14" lengthAdjust="spacing" textLength="84" x="342" y="767.3477">文章论证精彩</text><rect fill="#F1F1F1" height="36.4883" rx="12.5" ry="12.5" style="stroke:#181818;stroke-width:1.5;" width="132" x="486" y="650.8359"/><text fill="#000000" font-family="sans-serif" font-size="14" lengthAdjust="spacing" textLength="112" x="496" y="674.3711">观点要有用户视角</text><rect fill="#F1F1F1" height="36.4883" rx="12.5" ry="12.5" style="stroke:#181818;stroke-width:1.5;" width="216" x="668" y="594.3477"/><text fill="#000000" font-family="sans-serif" font-size="14" lengthAdjust="spacing" textLength="196" x="678" y="617.8828">有用户思维，不一味的自我表达</text><path d="M618,669.0801 L628,669.0801 C643,669.0801 643,612.5918 658,612.5918 L668,612.5918 " fill="none" style="stroke:#181818;stroke-width:1.0;"/><rect fill="#F1F1F1" height="36.4883" rx="12.5" ry="12.5" style="stroke:#181818;stroke-width:1.5;" width="118" x="668" y="650.8359"/><text fill="#000000" font-family="sans-serif" font-size="14" lengthAdjust="spacing" textLength="98" x="678" y="674.3711">要对用户有价值</text><path d="M618,669.0801 L628,669.0801 C643,669.0801 643,669.0801 658,669.0801 L668,669.0801 " fill="none" style="stroke:#181818;stroke-width:1.0;"/><rect fill="#F1F1F1" height="36.4883" rx="12.5" ry="12.5" style="stroke:#181818;stroke-width:1.5;" width="146" x="668" y="707.3242"/><text fill="#000000" font-family="sans-serif" font-size="14" lengthAdjust="spacing" textLength="126" x="678" y="730.8594">要与用户产生有共鸣</text><path d="M618,669.0801 L628,669.0801 C643,669.0801 643,725.5684 658,725.5684 L668,725.5684 " fill="none" style="stroke:#181818;stroke-width:1.0;"/><path d="M436,762.0566 L446,762.0566 C461,762.0566 461,669.0801 476,669.0801 L486,669.0801 " fill="none" style="stroke:#181818;stroke-width:1.0;"/><rect fill="#F1F1F1" height="36.4883" rx="12.5" ry="12.5" style="stroke:#181818;stroke-width:1.5;" width="118" x="486" y="828.5449"/><text fill="#000000" font-family="sans-serif" font-size="14" lengthAdjust="spacing" textLength="98" x="496" y="852.0801">内容要足够丰富</text><rect fill="#F1F1F1" height="36.4883" rx="12.5" ry="12.5" style="stroke:#181818;stroke-width:1.5;" width="132" x="654" y="763.8125"/><text fill="#000000" font-family="sans-serif" font-size="14" lengthAdjust="spacing" textLength="112" x="664" y="787.3477">表达要简单、精练</text><path d="M604,846.7891 L614,846.7891 C629,846.7891 629,782.0566 644,782.0566 L654,782.0566 " fill="none" style="stroke:#181818;stroke-width:1.0;"/><rect fill="#F1F1F1" height="36.4883" rx="12.5" ry="12.5" style="stroke:#181818;stroke-width:1.5;" width="118" x="654" y="820.3008"/><text fill="#000000" font-family="sans-serif" font-size="14" lengthAdjust="spacing" textLength="98" x="664" y="843.8359">要多给读者高点</text><path d="M604,846.7891 L614,846.7891 C629,846.7891 629,838.5449 644,838.5449 L654,838.5449 " fill="none" style="stroke:#181818;stroke-width:1.0;"/><rect fill="#F1F1F1" height="36.4883" rx="12.5" ry="12.5" style="stroke:#181818;stroke-width:1.5;" width="132" x="654" y="876.7891"/><text fill="#000000" font-family="sans-serif" font-size="14" lengthAdjust="spacing" textLength="112" x="664" y="900.3242">案例足够有说服力</text><rect fill="#F1F1F1" height="69.4648" rx="12.5" ry="12.5" style="stroke:#181818;stroke-width:1.5;" width="132" x="836" y="860.3008"/><text fill="#000000" font-family="sans-serif" font-size="14" lengthAdjust="spacing" textLength="112" x="846" y="883.8359">平时注重案例积累</text><text fill="#000000" font-family="sans-serif" font-size="14" lengthAdjust="spacing" textLength="56" x="846" y="900.3242">创造案例</text><text fill="#000000" font-family="sans-serif" font-size="14" lengthAdjust="spacing" textLength="98" x="846" y="916.8125">搜索合适的案例</text><path d="M786,895.0332 L796,895.0332 C811,895.0332 811,895.0332 826,895.0332 L836,895.0332 " fill="none" style="stroke:#181818;stroke-width:1.0;"/><path d="M604,846.7891 L614,846.7891 C629,846.7891 629,895.0332 644,895.0332 L654,895.0332 " fill="none" style="stroke:#181818;stroke-width:1.0;"/><path d="M436,762.0566 L446,762.0566 C461,762.0566 461,846.7891 476,846.7891 L486,846.7891 " fill="none" style="stroke:#181818;stroke-width:1.0;"/><path d="M282,738.5449 L292,738.5449 C307,738.5449 307,762.0566 322,762.0566 L332,762.0566 " fill="none" style="stroke:#181818;stroke-width:1.0;"/><rect fill="#F1F1F1" height="36.4883" rx="12.5" ry="12.5" style="stroke:#181818;stroke-width:1.5;" width="90" x="332" y="1156.9395"/><text fill="#000000" font-family="sans-serif" font-size="14" lengthAdjust="spacing" textLength="70" x="342" y="1180.4746">改出好文章</text><rect fill="#F1F1F1" height="36.4883" rx="12.5" ry="12.5" style="stroke:#181818;stroke-width:1.5;" width="160" x="472" y="1072.207"/><text fill="#000000" font-family="sans-serif" font-size="14" lengthAdjust="spacing" textLength="140" x="482" y="1095.7422">修改文章就是修改思想</text><rect fill="#F1F1F1" height="118.9297" rx="12.5" ry="12.5" style="stroke:#181818;stroke-width:1.5;" width="272" x="682" y="949.7656"/><text fill="#000000" font-family="sans-serif" font-size="14" lengthAdjust="spacing" textLength="214" x="692" y="973.3008">要把观点表达的清晰、准确、完美;</text><rect fill="#000000" height="3.5" style="stroke:#000000;stroke-width:0.0;" width="3.5" x="709" y="982.7422"/><text fill="#000000" font-family="sans-serif" font-size="14" lengthAdjust="spacing" textLength="154" x="716" y="989.7891">通读全文，打磨整体框架</text><rect fill="#000000" height="3.5" style="stroke:#000000;stroke-width:0.0;" width="3.5" x="717" y="999.2305"/><text fill="#000000" font-family="sans-serif" font-size="14" lengthAdjust="spacing" textLength="42" x="724" y="1006.2773">小标题</text><rect fill="#000000" height="3.5" style="stroke:#000000;stroke-width:0.0;" width="3.5" x="725" y="1015.7188"/><text fill="#000000" font-family="sans-serif" font-size="14" lengthAdjust="spacing" textLength="144" x="732" y="1022.7656">:关联性，契合核心观点</text><text fill="#000000" font-family="sans-serif" font-size="14" lengthAdjust="spacing" textLength="126" x="692" y="1039.2539">吸引力，能吸引读者</text><text fill="#000000" font-family="sans-serif" font-size="14" lengthAdjust="spacing" textLength="252" x="692" y="1055.7422">明确性，简单流畅、吸引眼球、有说服力</text><path d="M632,1090.4512 L642,1090.4512 C657,1090.4512 657,1009.2305 672,1009.2305 L682,1009.2305 " fill="none" style="stroke:#181818;stroke-width:1.0;"/><rect fill="#F1F1F1" height="36.4883" rx="12.5" ry="12.5" style="stroke:#181818;stroke-width:1.5;" width="48" x="682" y="1096.9395"/><text fill="#000000" font-family="sans-serif" font-size="14" lengthAdjust="spacing" textLength="28" x="692" y="1120.4746">开头</text><rect fill="#F1F1F1" height="52.9766" rx="12.5" ry="12.5" style="stroke:#181818;stroke-width:1.5;" width="90" x="780" y="1088.6953"/><text fill="#000000" font-family="sans-serif" font-size="14" lengthAdjust="spacing" textLength="70" x="790" y="1112.2305">读者感兴趣</text><text fill="#000000" font-family="sans-serif" font-size="14" lengthAdjust="spacing" textLength="56" x="790" y="1128.7188">继续阅读</text><path d="M730,1115.1836 L740,1115.1836 C755,1115.1836 755,1115.1836 770,1115.1836 L780,1115.1836 " fill="none" style="stroke:#181818;stroke-width:1.0;"/><path d="M632,1090.4512 L642,1090.4512 C657,1090.4512 657,1115.1836 672,1115.1836 L682,1115.1836 " fill="none" style="stroke:#181818;stroke-width:1.0;"/><rect fill="#F1F1F1" height="36.4883" rx="12.5" ry="12.5" style="stroke:#181818;stroke-width:1.5;" width="48" x="682" y="1178.1602"/><text fill="#000000" font-family="sans-serif" font-size="14" lengthAdjust="spacing" textLength="28" x="692" y="1201.6953">结尾</text><rect fill="#F1F1F1" height="69.4648" rx="12.5" ry="12.5" style="stroke:#181818;stroke-width:1.5;" width="76" x="780" y="1161.6719"/><text fill="#000000" font-family="sans-serif" font-size="14" lengthAdjust="spacing" textLength="56" x="790" y="1185.207">引发共鸣</text><text fill="#000000" font-family="sans-serif" font-size="14" lengthAdjust="spacing" textLength="56" x="790" y="1201.6953">留下悬念</text><text fill="#000000" font-family="sans-serif" font-size="14" lengthAdjust="spacing" textLength="56" x="790" y="1218.1836">升华主题</text><path d="M730,1196.4043 L740,1196.4043 C755,1196.4043 755,1196.4043 770,1196.4043 L780,1196.4043 " fill="none" style="stroke:#181818;stroke-width:1.0;"/><path d="M632,1090.4512 L642,1090.4512 C657,1090.4512 657,1196.4043 672,1196.4043 L682,1196.4043 " fill="none" style="stroke:#181818;stroke-width:1.0;"/><path d="M422,1175.1836 L432,1175.1836 C447,1175.1836 447,1090.4512 462,1090.4512 L472,1090.4512 " fill="none" style="stroke:#181818;stroke-width:1.0;"/><rect fill="#F1F1F1" height="36.4883" rx="12.5" ry="12.5" style="stroke:#181818;stroke-width:1.5;" width="104" x="472" y="1307.625"/><text fill="#000000" font-family="sans-serif" font-size="14" lengthAdjust="spacing" textLength="84" x="482" y="1331.1602">局部精准修改</text><rect fill="#F1F1F1" height="36.4883" rx="12.5" ry="12.5" style="stroke:#181818;stroke-width:1.5;" width="272" x="626" y="1251.1367"/><text fill="#000000" font-family="sans-serif" font-size="14" lengthAdjust="spacing" textLength="252" x="636" y="1274.6719">删减，去掉无关紧要的词语、句子和案例</text><path d="M576,1325.8691 L586,1325.8691 C601,1325.8691 601,1269.3809 616,1269.3809 L626,1269.3809 " fill="none" style="stroke:#181818;stroke-width:1.0;"/><rect fill="#F1F1F1" height="36.4883" rx="12.5" ry="12.5" style="stroke:#181818;stroke-width:1.5;" width="272" x="626" y="1307.625"/><text fill="#000000" font-family="sans-serif" font-size="14" lengthAdjust="spacing" textLength="252" x="636" y="1331.1602">精练，去掉没有价值、没有贪金量的内容</text><path d="M576,1325.8691 L586,1325.8691 C601,1325.8691 601,1325.8691 616,1325.8691 L626,1325.8691 " fill="none" style="stroke:#181818;stroke-width:1.0;"/><rect fill="#F1F1F1" height="36.4883" rx="12.5" ry="12.5" style="stroke:#181818;stroke-width:1.5;" width="258" x="626" y="1364.1133"/><text fill="#000000" font-family="sans-serif" font-size="14" lengthAdjust="spacing" textLength="238" x="636" y="1387.6484">准确，去掉有歧义，会误导读者的内容</text><path d="M576,1325.8691 L586,1325.8691 C601,1325.8691 601,1382.3574 616,1382.3574 L626,1382.3574 " fill="none" style="stroke:#181818;stroke-width:1.0;"/><path d="M422,1175.1836 L432,1175.1836 C447,1175.1836 447,1325.8691 462,1325.8691 L472,1325.8691 " fill="none" style="stroke:#181818;stroke-width:1.0;"/><path d="M282,738.5449 L292,738.5449 C307,738.5449 307,1175.1836 322,1175.1836 L332,1175.1836 " fill="none" style="stroke:#181818;stroke-width:1.0;"/><rect fill="#F1F1F1" height="36.4883" rx="12.5" ry="12.5" style="stroke:#181818;stroke-width:1.5;" width="202" x="332" y="1420.6016"/><text fill="#000000" font-family="sans-serif" font-size="14" lengthAdjust="spacing" textLength="182" x="342" y="1444.1367">设计文章版式，优化阅读体验</text><path d="M282,738.5449 L292,738.5449 C307,738.5449 307,1438.8457 322,1438.8457 L332,1438.8457 " fill="none" style="stroke:#181818;stroke-width:1.0;"/><!--SRC=[RLLBSnf74BxlhzYZhIgxR2LsEUZYYfoaIf4ILsJxJYoYK6KX5m9L9QULqC8YyTGJ2II17e6Wm2A3fONbyMEoFJDxybz8pyw2i2iNOBhxw-d-vklc-Kh86mmj-GCBIzxtqeGCqKDQ6P3TDdv-wXv1FK6q3DsjM9qK_gRzrATkGdYjRWuI-wnLiMDfQGAHwXOf9CdMFfWt60I3Ariv5NZGZX60GHEoVPYqUYbXiCysIE6Knxgtd8vkSM9PlKzxTQ9LIUsC7DpO1oqUgspRIfV5gd1xpVex4EiuiT1Oimzgq4rZ0rQlW85sFcePZkNp6cIIpa0oPYicwsU9SioKYAXCEMA366XHUctoUymElTeY-p5wLHInJXI9xz3pYWikHSc9qsigHmmLegeTgO3Qf4sJnqx8rDmX9njZbWcFNUf09oqS4hHlG3jm3xQopGPvzq1gvv1EWjuc-gumJOcKa2-Iay9dAK7Lk2cJGf-41_p20vg642tAokVZ49aaugHsQLSlo5cJPj2zJjVRN_gGIL1lhTuE9-bM7oOhGYnj6KcQDtZAemrhK29hkWl-marAcjNV-dyVGfcUXFIbyoOEpwpUOVeQ_T27tjz20KvXxAyrKeYZ28bsoyfOxRQePMJ40gd9nO79BKE1h9CyLYLQbfKghDyNyPW76NKXXRXbteBI7Rai8oLSLgUCKiG0KAzjurp8Awf2dHV2RffmSMeP3T0JBjIv0Lsqha1oxr-5Dq3DoDsT5qVKF6IwoHJLlieDcPO5EI8XtiRq5iuFREQ7pzfkekX94-ShAK9fMQSjNG8jRoj5brgIAT3M6MGqMrd7feLrog5qjut30PSzmQtJXZMeeraOe75DShfhKOv9fEbSxE5iRswwp3kzyRo6IWuRs1l4ehHKvp-SEPqQZOvkWbh1p7m_E3D2zbfSEywCkDfff4anPf_bHi9jihLTefJv25rciGbID60GSUK86GEwUqW8kbca9uw2HedaKbY6W0hUoSSrkgVomfmuMkZIJ0IFuymE1wAhm4NBBK8a91kdeBROpRb4pJ8rQtPEHSVKQ8oXqHyMZIMbiwuqwDwXPMoHzNzWy572fGB9b6MOsA7W1QuLt0XSpx6e87fyY9p5OP9Kd1mK-Joqobn4pbGmlSOxILz2BGFRYR4naeMuxh0VIYCfyswT8sjLxLWMzp9c4yfrxtKUxmvRm4alM-qudvmkFg4EUbVmCGxaUvZLIq8rDAxXIdK0VFqBdl2TxMf2Ukx3Vn7tdqHw-SuR2BsUcvLNVS4L_t90Vlnmyj7aLmyVtviF1-GPRq2U_4QUVEHvyippvAayFVzAvkxxqhqVNixAAylXu5kVlE1V2GNzluP3YBylpNXNlV8luK38l-Jpo3-_zmLcNlmuDCZV1LRzmUN0aYyGacRUpDq5FFtwmRV-a3pl2s8byfivwONlDs_uNGWHRvSN_855Z_pwrVSFdacpti1YsBk8kV_yNPfUnhp1Fppoz4__0G00]--></g></svg>