<?xml version="1.0" encoding="UTF-8" standalone="no"?><svg xmlns="http://www.w3.org/2000/svg" xmlns:xlink="http://www.w3.org/1999/xlink" contentStyleType="text/css" height="1388px" preserveAspectRatio="none" style="width:840px;height:1388px;background:#FFFFFF;" version="1.1" viewBox="0 0 840 1388" width="840px" zoomAndPan="magnify"><defs/><g><rect fill="#F1F1F1" height="36.4883" rx="12.5" ry="12.5" style="stroke:#181818;stroke-width:1.5;" width="216" x="10" y="674.958"/><text fill="#000000" font-family="sans-serif" font-size="14" lengthAdjust="spacing" textLength="196" x="20" y="698.4932">写作变现：传播思维，商业价值</text><rect fill="#F1F1F1" height="36.4883" rx="12.5" ry="12.5" style="stroke:#181818;stroke-width:1.5;" width="160" x="276" y="189.4648"/><text fill="#000000" font-family="sans-serif" font-size="14" lengthAdjust="spacing" textLength="140" x="286" y="213">理解新媒体的正确姿势</text><rect fill="#F1F1F1" height="36.4883" rx="12.5" ry="12.5" style="stroke:#181818;stroke-width:1.5;" width="90" x="486" y="48.2441"/><text fill="#000000" font-family="sans-serif" font-size="14" lengthAdjust="spacing" textLength="70" x="496" y="71.7793">本质是传播</text><rect fill="#F1F1F1" height="36.4883" rx="12.5" ry="12.5" style="stroke:#181818;stroke-width:1.5;" width="48" x="626" y="20"/><text fill="#000000" font-family="sans-serif" font-size="14" lengthAdjust="spacing" textLength="28" x="636" y="43.5352">价值</text><path d="M576,66.4883 L586,66.4883 C601,66.4883 601,38.2441 616,38.2441 L626,38.2441 " fill="none" style="stroke:#181818;stroke-width:1.0;"/><rect fill="#F1F1F1" height="36.4883" rx="12.5" ry="12.5" style="stroke:#181818;stroke-width:1.5;" width="48" x="626" y="76.4883"/><text fill="#000000" font-family="sans-serif" font-size="14" lengthAdjust="spacing" textLength="28" x="636" y="100.0234">反馈</text><path d="M576,66.4883 L586,66.4883 C601,66.4883 601,94.7324 616,94.7324 L626,94.7324 " fill="none" style="stroke:#181818;stroke-width:1.0;"/><path d="M436,207.709 L446,207.709 C461,207.709 461,66.4883 476,66.4883 L486,66.4883 " fill="none" style="stroke:#181818;stroke-width:1.0;"/><rect fill="#F1F1F1" height="36.4883" rx="12.5" ry="12.5" style="stroke:#181818;stroke-width:1.5;" width="118" x="486" y="132.9766"/><text fill="#000000" font-family="sans-serif" font-size="14" lengthAdjust="spacing" textLength="98" x="496" y="156.5117">确定传播的定位</text><rect fill="#F1F1F1" height="36.4883" rx="12.5" ry="12.5" style="stroke:#181818;stroke-width:1.5;" width="174" x="654" y="132.9766"/><text fill="#000000" font-family="sans-serif" font-size="14" lengthAdjust="spacing" textLength="154" x="664" y="156.5117">扎根领域，吸引精准用户</text><path d="M604,151.2207 L614,151.2207 C629,151.2207 629,151.2207 644,151.2207 L654,151.2207 " fill="none" style="stroke:#181818;stroke-width:1.0;"/><path d="M436,207.709 L446,207.709 C461,207.709 461,151.2207 476,151.2207 L486,151.2207 " fill="none" style="stroke:#181818;stroke-width:1.0;"/><rect fill="#F1F1F1" height="36.4883" rx="12.5" ry="12.5" style="stroke:#181818;stroke-width:1.5;" width="104" x="486" y="274.1973"/><text fill="#000000" font-family="sans-serif" font-size="14" lengthAdjust="spacing" textLength="84" x="496" y="297.7324">如何触达用户</text><rect fill="#F1F1F1" height="36.4883" rx="12.5" ry="12.5" style="stroke:#181818;stroke-width:1.5;" width="62" x="640" y="189.4648"/><text fill="#000000" font-family="sans-serif" font-size="14" lengthAdjust="spacing" textLength="42" x="650" y="213">自媒体</text><path d="M590,292.4414 L600,292.4414 C615,292.4414 615,207.709 630,207.709 L640,207.709 " fill="none" style="stroke:#181818;stroke-width:1.0;"/><rect fill="#F1F1F1" height="36.4883" rx="12.5" ry="12.5" style="stroke:#181818;stroke-width:1.5;" width="62" x="640" y="245.9531"/><text fill="#000000" font-family="sans-serif" font-size="14" lengthAdjust="spacing" textLength="42" x="650" y="269.4883">朋友圈</text><path d="M590,292.4414 L600,292.4414 C615,292.4414 615,264.1973 630,264.1973 L640,264.1973 " fill="none" style="stroke:#181818;stroke-width:1.0;"/><rect fill="#F1F1F1" height="36.4883" rx="12.5" ry="12.5" style="stroke:#181818;stroke-width:1.5;" width="90" x="640" y="302.4414"/><text fill="#000000" font-family="sans-serif" font-size="14" lengthAdjust="spacing" textLength="70" x="650" y="325.9766">种子用户群</text><path d="M590,292.4414 L600,292.4414 C615,292.4414 615,320.6855 630,320.6855 L640,320.6855 " fill="none" style="stroke:#181818;stroke-width:1.0;"/><rect fill="#F1F1F1" height="36.4883" rx="12.5" ry="12.5" style="stroke:#181818;stroke-width:1.5;" width="76" x="640" y="358.9297"/><text fill="#000000" font-family="sans-serif" font-size="14" lengthAdjust="spacing" textLength="56" x="650" y="382.4648">超级节点</text><path d="M590,292.4414 L600,292.4414 C615,292.4414 615,377.1738 630,377.1738 L640,377.1738 " fill="none" style="stroke:#181818;stroke-width:1.0;"/><path d="M436,207.709 L446,207.709 C461,207.709 461,292.4414 476,292.4414 L486,292.4414 " fill="none" style="stroke:#181818;stroke-width:1.0;"/><path d="M226,693.2021 L236,693.2021 C251,693.2021 251,207.709 266,207.709 L276,207.709 " fill="none" style="stroke:#181818;stroke-width:1.0;"/><rect fill="#F1F1F1" height="36.4883" rx="12.5" ry="12.5" style="stroke:#181818;stroke-width:1.5;" width="132" x="276" y="496.6387"/><text fill="#000000" font-family="sans-serif" font-size="14" lengthAdjust="spacing" textLength="112" x="286" y="520.1738">放大写作商业价值</text><rect fill="#F1F1F1" height="36.4883" rx="12.5" ry="12.5" style="stroke:#181818;stroke-width:1.5;" width="118" x="458" y="440.1504"/><text fill="#000000" font-family="sans-serif" font-size="14" lengthAdjust="spacing" textLength="98" x="468" y="463.6855">最有价值的平台</text><rect fill="#F1F1F1" height="85.9531" rx="12.5" ry="12.5" style="stroke:#181818;stroke-width:1.5;" width="76" x="626" y="415.418"/><text fill="#000000" font-family="sans-serif" font-size="14" lengthAdjust="spacing" textLength="42" x="636" y="438.9531">公众号</text><text fill="#000000" font-family="sans-serif" font-size="14" lengthAdjust="spacing" textLength="56" x="636" y="455.4414">今日头条</text><text fill="#000000" font-family="sans-serif" font-size="14" lengthAdjust="spacing" textLength="28" x="636" y="471.9297">知乎</text><text fill="#000000" font-family="sans-serif" font-size="14" lengthAdjust="spacing" textLength="28" x="636" y="488.418">微博</text><path d="M576,458.3945 L586,458.3945 C601,458.3945 601,458.3945 616,458.3945 L626,458.3945 " fill="none" style="stroke:#181818;stroke-width:1.0;"/><path d="M408,514.8828 L418,514.8828 C433,514.8828 433,458.3945 448,458.3945 L458,458.3945 " fill="none" style="stroke:#181818;stroke-width:1.0;"/><rect fill="#F1F1F1" height="36.4883" rx="12.5" ry="12.5" style="stroke:#181818;stroke-width:1.5;" width="188" x="458" y="521.3711"/><text fill="#000000" font-family="sans-serif" font-size="14" lengthAdjust="spacing" textLength="168" x="468" y="544.9063">选择一个平台发挥最大价值</text><path d="M408,514.8828 L418,514.8828 C433,514.8828 433,539.6152 448,539.6152 L458,539.6152 " fill="none" style="stroke:#181818;stroke-width:1.0;"/><rect fill="#F1F1F1" height="36.4883" rx="12.5" ry="12.5" style="stroke:#181818;stroke-width:1.5;" width="146" x="458" y="577.8594"/><text fill="#000000" font-family="sans-serif" font-size="14" lengthAdjust="spacing" textLength="126" x="468" y="601.3945">要么第一，要么唯一</text><path d="M408,514.8828 L418,514.8828 C433,514.8828 433,596.1035 448,596.1035 L458,596.1035 " fill="none" style="stroke:#181818;stroke-width:1.0;"/><path d="M226,693.2021 L236,693.2021 C251,693.2021 251,514.8828 266,514.8828 L276,514.8828 " fill="none" style="stroke:#181818;stroke-width:1.0;"/><rect fill="#F1F1F1" height="36.4883" rx="12.5" ry="12.5" style="stroke:#181818;stroke-width:1.5;" width="104" x="276" y="727.3242"/><text fill="#000000" font-family="sans-serif" font-size="14" lengthAdjust="spacing" textLength="84" x="286" y="750.8594">实现变现途径</text><rect fill="#F1F1F1" height="36.4883" rx="12.5" ry="12.5" style="stroke:#181818;stroke-width:1.5;" width="76" x="430" y="634.3477"/><text fill="#000000" font-family="sans-serif" font-size="14" lengthAdjust="spacing" textLength="56" x="440" y="657.8828">投稿变现</text><path d="M380,745.5684 L390,745.5684 C405,745.5684 405,652.5918 420,652.5918 L430,652.5918 " fill="none" style="stroke:#181818;stroke-width:1.0;"/><rect fill="#F1F1F1" height="36.4883" rx="12.5" ry="12.5" style="stroke:#181818;stroke-width:1.5;" width="76" x="430" y="690.8359"/><text fill="#000000" font-family="sans-serif" font-size="14" lengthAdjust="spacing" textLength="56" x="440" y="714.3711">广告变现</text><rect fill="#F1F1F1" height="69.4648" rx="12.5" ry="12.5" style="stroke:#181818;stroke-width:1.5;" width="90" x="556" y="674.3477"/><text fill="#000000" font-family="sans-serif" font-size="14" lengthAdjust="spacing" textLength="42" x="566" y="697.8828">流量主</text><text fill="#000000" font-family="sans-serif" font-size="14" lengthAdjust="spacing" textLength="70" x="566" y="714.3711">接外部广告</text><text fill="#000000" font-family="sans-serif" font-size="14" lengthAdjust="spacing" textLength="56" x="566" y="730.8594">产品分销</text><path d="M506,709.0801 L516,709.0801 C531,709.0801 531,709.0801 546,709.0801 L556,709.0801 " fill="none" style="stroke:#181818;stroke-width:1.0;"/><path d="M380,745.5684 L390,745.5684 C405,745.5684 405,709.0801 420,709.0801 L430,709.0801 " fill="none" style="stroke:#181818;stroke-width:1.0;"/><rect fill="#F1F1F1" height="36.4883" rx="12.5" ry="12.5" style="stroke:#181818;stroke-width:1.5;" width="104" x="430" y="763.8125"/><text fill="#000000" font-family="sans-serif" font-size="14" lengthAdjust="spacing" textLength="84" x="440" y="787.3477">知识付费变现</text><path d="M380,745.5684 L390,745.5684 C405,745.5684 405,782.0566 420,782.0566 L430,782.0566 " fill="none" style="stroke:#181818;stroke-width:1.0;"/><rect fill="#F1F1F1" height="36.4883" rx="12.5" ry="12.5" style="stroke:#181818;stroke-width:1.5;" width="76" x="430" y="820.3008"/><text fill="#000000" font-family="sans-serif" font-size="14" lengthAdjust="spacing" textLength="56" x="440" y="843.8359">写书变现</text><path d="M380,745.5684 L390,745.5684 C405,745.5684 405,838.5449 420,838.5449 L430,838.5449 " fill="none" style="stroke:#181818;stroke-width:1.0;"/><path d="M226,693.2021 L236,693.2021 C251,693.2021 251,745.5684 266,745.5684 L276,745.5684 " fill="none" style="stroke:#181818;stroke-width:1.0;"/><rect fill="#F1F1F1" height="36.4883" rx="12.5" ry="12.5" style="stroke:#181818;stroke-width:1.5;" width="104" x="276" y="1018.6201"/><text fill="#000000" font-family="sans-serif" font-size="14" lengthAdjust="spacing" textLength="84" x="286" y="1042.1553">头条写作变现</text><rect fill="#F1F1F1" height="36.4883" rx="12.5" ry="12.5" style="stroke:#181818;stroke-width:1.5;" width="90" x="430" y="876.7891"/><text fill="#000000" font-family="sans-serif" font-size="14" lengthAdjust="spacing" textLength="70" x="440" y="900.3242">青云计划奖</text><path d="M380,1036.8643 L390,1036.8643 C405,1036.8643 405,895.0332 420,895.0332 L430,895.0332 " fill="none" style="stroke:#181818;stroke-width:1.0;"/><rect fill="#F1F1F1" height="36.4883" rx="12.5" ry="12.5" style="stroke:#181818;stroke-width:1.5;" width="76" x="430" y="949.7656"/><text fill="#000000" font-family="sans-serif" font-size="14" lengthAdjust="spacing" textLength="56" x="440" y="973.3008">广告收益</text><rect fill="#F1F1F1" height="69.4648" rx="12.5" ry="12.5" style="stroke:#181818;stroke-width:1.5;" width="104" x="556" y="933.2773"/><text fill="#000000" font-family="sans-serif" font-size="14" lengthAdjust="spacing" textLength="56" x="566" y="956.8125">头条广告</text><text fill="#000000" font-family="sans-serif" font-size="14" lengthAdjust="spacing" textLength="84" x="566" y="973.3008">微头条流量主</text><text fill="#000000" font-family="sans-serif" font-size="14" lengthAdjust="spacing" textLength="56" x="566" y="989.7891">自营广告</text><path d="M506,968.0098 L516,968.0098 C531,968.0098 531,968.0098 546,968.0098 L556,968.0098 " fill="none" style="stroke:#181818;stroke-width:1.0;"/><path d="M380,1036.8643 L390,1036.8643 C405,1036.8643 405,968.0098 420,968.0098 L430,968.0098 " fill="none" style="stroke:#181818;stroke-width:1.0;"/><rect fill="#F1F1F1" height="36.4883" rx="12.5" ry="12.5" style="stroke:#181818;stroke-width:1.5;" width="76" x="430" y="1006.2539"/><text fill="#000000" font-family="sans-serif" font-size="14" lengthAdjust="spacing" textLength="56" x="440" y="1029.7891">付费专栏</text><path d="M380,1036.8643 L390,1036.8643 C405,1036.8643 405,1024.498 420,1024.498 L430,1024.498 " fill="none" style="stroke:#181818;stroke-width:1.0;"/><rect fill="#F1F1F1" height="36.4883" rx="12.5" ry="12.5" style="stroke:#181818;stroke-width:1.5;" width="76" x="430" y="1062.7422"/><text fill="#000000" font-family="sans-serif" font-size="14" lengthAdjust="spacing" textLength="56" x="440" y="1086.2773">付费圈子</text><path d="M380,1036.8643 L390,1036.8643 C405,1036.8643 405,1080.9863 420,1080.9863 L430,1080.9863 " fill="none" style="stroke:#181818;stroke-width:1.0;"/><rect fill="#F1F1F1" height="36.4883" rx="12.5" ry="12.5" style="stroke:#181818;stroke-width:1.5;" width="76" x="430" y="1119.2305"/><text fill="#000000" font-family="sans-serif" font-size="14" lengthAdjust="spacing" textLength="56" x="440" y="1142.7656">内容电商</text><rect fill="#F1F1F1" height="118.9297" rx="12.5" ry="12.5" style="stroke:#181818;stroke-width:1.5;" width="104" x="556" y="1078.0098"/><text fill="#000000" font-family="sans-serif" font-size="14" lengthAdjust="spacing" textLength="70" x="566" y="1101.5449">微头条带货</text><text fill="#000000" font-family="sans-serif" font-size="14" lengthAdjust="spacing" textLength="84" x="566" y="1118.0332">头条文章带货</text><text fill="#000000" font-family="sans-serif" font-size="14" lengthAdjust="spacing" textLength="56" x="566" y="1134.5215">悟空问答</text><text fill="#000000" font-family="sans-serif" font-size="14" lengthAdjust="spacing" textLength="56" x="566" y="1151.0098">用户赞赏</text><text fill="#000000" font-family="sans-serif" font-size="14" lengthAdjust="spacing" textLength="56" x="566" y="1167.498">征文活动</text><text fill="#000000" font-family="sans-serif" font-size="14" lengthAdjust="spacing" textLength="56" x="566" y="1183.9863">引流变现</text><path d="M506,1137.4746 L516,1137.4746 C531,1137.4746 531,1137.4746 546,1137.4746 L556,1137.4746 " fill="none" style="stroke:#181818;stroke-width:1.0;"/><path d="M380,1036.8643 L390,1036.8643 C405,1036.8643 405,1137.4746 420,1137.4746 L430,1137.4746 " fill="none" style="stroke:#181818;stroke-width:1.0;"/><path d="M226,693.2021 L236,693.2021 C251,693.2021 251,1036.8643 266,1036.8643 L276,1036.8643 " fill="none" style="stroke:#181818;stroke-width:1.0;"/><rect fill="#F1F1F1" height="36.4883" rx="12.5" ry="12.5" style="stroke:#181818;stroke-width:1.5;" width="104" x="276" y="1273.4277"/><text fill="#000000" font-family="sans-serif" font-size="14" lengthAdjust="spacing" textLength="84" x="286" y="1296.9629">突破变现瓶颈</text><rect fill="#F1F1F1" height="36.4883" rx="12.5" ry="12.5" style="stroke:#181818;stroke-width:1.5;" width="132" x="430" y="1216.9395"/><text fill="#000000" font-family="sans-serif" font-size="14" lengthAdjust="spacing" textLength="112" x="440" y="1240.4746">建立写作复利思维</text><path d="M380,1291.6719 L390,1291.6719 C405,1291.6719 405,1235.1836 420,1235.1836 L430,1235.1836 " fill="none" style="stroke:#181818;stroke-width:1.0;"/><rect fill="#F1F1F1" height="36.4883" rx="12.5" ry="12.5" style="stroke:#181818;stroke-width:1.5;" width="146" x="430" y="1273.4277"/><text fill="#000000" font-family="sans-serif" font-size="14" lengthAdjust="spacing" textLength="126" x="440" y="1296.9629">洞察市场，扎实写作</text><path d="M380,1291.6719 L390,1291.6719 C405,1291.6719 405,1291.6719 420,1291.6719 L430,1291.6719 " fill="none" style="stroke:#181818;stroke-width:1.0;"/><rect fill="#F1F1F1" height="36.4883" rx="12.5" ry="12.5" style="stroke:#181818;stroke-width:1.5;" width="132" x="430" y="1329.916"/><text fill="#000000" font-family="sans-serif" font-size="14" lengthAdjust="spacing" textLength="112" x="440" y="1353.4512">建立稳定写作系统</text><path d="M380,1291.6719 L390,1291.6719 C405,1291.6719 405,1348.1602 420,1348.1602 L430,1348.1602 " fill="none" style="stroke:#181818;stroke-width:1.0;"/><path d="M226,693.2021 L236,693.2021 C251,693.2021 251,1291.6719 266,1291.6719 L276,1291.6719 " fill="none" style="stroke:#181818;stroke-width:1.0;"/><!--SRC=[LLFBKXf15DttL_HIgT9I4os36okQfCfeOiN7VgB4K2M3XODLoGg88g8uFW2DGK7bvGkjYCemY3_JjtjcvI-aXnwLxARFd7lkkQ_-UKNoAHwtFEsHvf03G_WtkK-1kilMhnvhUwIMeLiNDB3FzF9ZRGqIOLBP8_eT16h8uS1i8smKZcdo2awtoFqssrka5yVii0I51uW-S8O3qzIvKIxItKiXPM4E_Ap0lq6DcVb8Wsj5bkoSNClwley95brPfndDF0f3EcqPsQX0BS7-rc4vpE956hbh240-HEuJHY5lrEili0CRowV2eIsMMWLr5L8HyMI565ni23whP-sGsoLMBHZH40jfLgaqNeTimMxF_ssm10CqjI80oxXs3UfLGyS9I-UajWFg7I9wbExa85kc-uU8fND4MqTGBq5ihwyXOWPMwEe9gGH8vLGeWBf9rt9Sd6TkocRaWqIBiFDppkMz44-8N_AdvHHA1tnuOeHc80xrHU4ncc351m6BPcaFi1bz0HnEUXCqbrLIqH5TvqQJvg-Y825IBS1s429XCnuGRda1ncMOwBj6MMiMvGtIyiy05kKsRvMeTN-BL3UDqY54jY2NRF93uxViJzJkdGWM5gnMDTulBlbOZOsS-2zS2J-aiaqpQXF0HyqdR1jSWfB6uZTyY7QM9s6ev8ro0TbPailiB6D3D9Hc9rLpfyGkuaWiYd5pODoet5MGCsbPXsWHyPNavaIPVOtxE0soJ5a0RFlMF19x3dgLdQtQJSd6878YBapCgNm0bsceX21LvTFbYyy7AhXDmQnupSz3mEnQPteQzRlu4Tk7Z4Pd9LcP61d62oxVlDihuyxshewkL-sTBMD-6Gz9CkvwWxiwdDszpkuUF30sZgtVhQZbm-WmdlVwVLCkFEsULtpkhtw5nxUY8Mb1mb_yikBsk9puyvnB7Xhy-0JWT_A2s-ULFIvPGKEJ8o-4djTjRzqA7dFvk1CyEO86NTya_wp28wQyqsvvneadnj-tzQ9XIPxnIpDS- -TtDE3bkhuVJZpmwHy0]--></g></svg>