<?xml version="1.0" encoding="UTF-8" standalone="no"?><svg xmlns="http://www.w3.org/2000/svg" xmlns:xlink="http://www.w3.org/1999/xlink" contentStyleType="text/css" height="1321px" preserveAspectRatio="none" style="width:896px;height:1321px;background:#FFFFFF;" version="1.1" viewBox="0 0 896 1321" width="896px" zoomAndPan="magnify"><defs/><g><rect fill="#F1F1F1" height="36.4883" rx="12.5" ry="12.5" style="stroke:#181818;stroke-width:1.5;" width="216" x="10" y="641.3711"/><text fill="#000000" font-family="sans-serif" font-size="14" lengthAdjust="spacing" textLength="196" x="20" y="664.9063">刻意练习：夯实基础，稳定系统</text><rect fill="#F1F1F1" height="36.4883" rx="12.5" ry="12.5" style="stroke:#181818;stroke-width:1.5;" width="146" x="276" y="189.4648"/><text fill="#000000" font-family="sans-serif" font-size="14" lengthAdjust="spacing" textLength="126" x="286" y="213">拆解文章，夯实能力</text><rect fill="#F1F1F1" height="36.4883" rx="12.5" ry="12.5" style="stroke:#181818;stroke-width:1.5;" width="188" x="472" y="20"/><text fill="#000000" font-family="sans-serif" font-size="14" lengthAdjust="spacing" textLength="168" x="482" y="43.5352">拆解主标题，了解文章价值</text><path d="M422,207.709 L432,207.709 C447,207.709 447,38.2441 462,38.2441 L472,38.2441 " fill="none" style="stroke:#181818;stroke-width:1.0;"/><rect fill="#F1F1F1" height="36.4883" rx="12.5" ry="12.5" style="stroke:#181818;stroke-width:1.5;" width="188" x="472" y="76.4883"/><text fill="#000000" font-family="sans-serif" font-size="14" lengthAdjust="spacing" textLength="168" x="482" y="100.0234">拆解小标题，熟知整体框架</text><rect fill="#F1F1F1" height="36.4883" rx="12.5" ry="12.5" style="stroke:#181818;stroke-width:1.5;" width="146" x="710" y="20"/><text fill="#000000" font-family="sans-serif" font-size="14" lengthAdjust="spacing" textLength="126" x="720" y="43.5352">是否与核心观点相关</text><path d="M660,94.7324 L670,94.7324 C685,94.7324 685,38.2441 700,38.2441 L710,38.2441 " fill="none" style="stroke:#181818;stroke-width:1.0;"/><rect fill="#F1F1F1" height="36.4883" rx="12.5" ry="12.5" style="stroke:#181818;stroke-width:1.5;" width="132" x="710" y="76.4883"/><text fill="#000000" font-family="sans-serif" font-size="14" lengthAdjust="spacing" textLength="112" x="720" y="100.0234">是否存在结构关系</text><path d="M660,94.7324 L670,94.7324 C685,94.7324 685,94.7324 700,94.7324 L710,94.7324 " fill="none" style="stroke:#181818;stroke-width:1.0;"/><rect fill="#F1F1F1" height="36.4883" rx="12.5" ry="12.5" style="stroke:#181818;stroke-width:1.5;" width="174" x="710" y="132.9766"/><text fill="#000000" font-family="sans-serif" font-size="14" lengthAdjust="spacing" textLength="154" x="720" y="156.5117">是否精练，是否有吸引力</text><path d="M660,94.7324 L670,94.7324 C685,94.7324 685,151.2207 700,151.2207 L710,151.2207 " fill="none" style="stroke:#181818;stroke-width:1.0;"/><path d="M422,207.709 L432,207.709 C447,207.709 447,94.7324 462,94.7324 L472,94.7324 " fill="none" style="stroke:#181818;stroke-width:1.0;"/><rect fill="#F1F1F1" height="36.4883" rx="12.5" ry="12.5" style="stroke:#181818;stroke-width:1.5;" width="202" x="472" y="245.9531"/><text fill="#000000" font-family="sans-serif" font-size="14" lengthAdjust="spacing" textLength="182" x="482" y="269.4883">拆解文章内容，分析内容精华</text><rect fill="#F1F1F1" height="36.4883" rx="12.5" ry="12.5" style="stroke:#181818;stroke-width:1.5;" width="146" x="724" y="189.4648"/><text fill="#000000" font-family="sans-serif" font-size="14" lengthAdjust="spacing" textLength="126" x="734" y="213">论点，是否引起共鸣</text><path d="M674,264.1973 L684,264.1973 C699,264.1973 699,207.709 714,207.709 L724,207.709 " fill="none" style="stroke:#181818;stroke-width:1.0;"/><rect fill="#F1F1F1" height="36.4883" rx="12.5" ry="12.5" style="stroke:#181818;stroke-width:1.5;" width="146" x="724" y="245.9531"/><text fill="#000000" font-family="sans-serif" font-size="14" lengthAdjust="spacing" textLength="126" x="734" y="269.4883">论据，是否有说服力</text><path d="M674,264.1973 L684,264.1973 C699,264.1973 699,264.1973 714,264.1973 L724,264.1973 " fill="none" style="stroke:#181818;stroke-width:1.0;"/><rect fill="#F1F1F1" height="36.4883" rx="12.5" ry="12.5" style="stroke:#181818;stroke-width:1.5;" width="160" x="724" y="302.4414"/><text fill="#000000" font-family="sans-serif" font-size="14" lengthAdjust="spacing" textLength="140" x="734" y="325.9766">案例，是否恰当、贴切</text><path d="M674,264.1973 L684,264.1973 C699,264.1973 699,320.6855 714,320.6855 L724,320.6855 " fill="none" style="stroke:#181818;stroke-width:1.0;"/><path d="M422,207.709 L432,207.709 C447,207.709 447,264.1973 462,264.1973 L472,264.1973 " fill="none" style="stroke:#181818;stroke-width:1.0;"/><rect fill="#F1F1F1" height="36.4883" rx="12.5" ry="12.5" style="stroke:#181818;stroke-width:1.5;" width="104" x="472" y="358.9297"/><text fill="#000000" font-family="sans-serif" font-size="14" lengthAdjust="spacing" textLength="84" x="482" y="382.4648">拆解后的思考</text><rect fill="#F1F1F1" height="36.4883" rx="12.5" ry="12.5" style="stroke:#181818;stroke-width:1.5;" width="160" x="626" y="358.9297"/><text fill="#000000" font-family="sans-serif" font-size="14" lengthAdjust="spacing" textLength="140" x="636" y="382.4648">写下自己的思考与收获</text><path d="M576,377.1738 L586,377.1738 C601,377.1738 601,377.1738 616,377.1738 L626,377.1738 " fill="none" style="stroke:#181818;stroke-width:1.0;"/><path d="M422,207.709 L432,207.709 C447,207.709 447,377.1738 462,377.1738 L472,377.1738 " fill="none" style="stroke:#181818;stroke-width:1.0;"/><path d="M226,659.6152 L236,659.6152 C251,659.6152 251,207.709 266,207.709 L276,207.709 " fill="none" style="stroke:#181818;stroke-width:1.0;"/><rect fill="#F1F1F1" height="36.4883" rx="12.5" ry="12.5" style="stroke:#181818;stroke-width:1.5;" width="146" x="276" y="500.1504"/><text fill="#000000" font-family="sans-serif" font-size="14" lengthAdjust="spacing" textLength="126" x="286" y="523.6855">持续写出有价值观点</text><rect fill="#F1F1F1" height="36.4883" rx="12.5" ry="12.5" style="stroke:#181818;stroke-width:1.5;" width="146" x="472" y="415.418"/><text fill="#000000" font-family="sans-serif" font-size="14" lengthAdjust="spacing" textLength="126" x="482" y="438.9531">提炼出有价值的观点</text><path d="M422,518.3945 L432,518.3945 C447,518.3945 447,433.6621 462,433.6621 L472,433.6621 " fill="none" style="stroke:#181818;stroke-width:1.0;"/><rect fill="#F1F1F1" height="36.4883" rx="12.5" ry="12.5" style="stroke:#181818;stroke-width:1.5;" width="160" x="472" y="471.9063"/><text fill="#000000" font-family="sans-serif" font-size="14" lengthAdjust="spacing" textLength="140" x="482" y="495.4414">倒推原因，挖掘新观点</text><path d="M422,518.3945 L432,518.3945 C447,518.3945 447,490.1504 462,490.1504 L472,490.1504 " fill="none" style="stroke:#181818;stroke-width:1.0;"/><rect fill="#F1F1F1" height="36.4883" rx="12.5" ry="12.5" style="stroke:#181818;stroke-width:1.5;" width="146" x="472" y="528.3945"/><text fill="#000000" font-family="sans-serif" font-size="14" lengthAdjust="spacing" textLength="126" x="482" y="551.9297">逆向思考，反向挖掘</text><path d="M422,518.3945 L432,518.3945 C447,518.3945 447,546.6387 462,546.6387 L472,546.6387 " fill="none" style="stroke:#181818;stroke-width:1.0;"/><rect fill="#F1F1F1" height="36.4883" rx="12.5" ry="12.5" style="stroke:#181818;stroke-width:1.5;" width="160" x="472" y="584.8828"/><text fill="#000000" font-family="sans-serif" font-size="14" lengthAdjust="spacing" textLength="140" x="482" y="608.418">确定关键词，头脑风暴</text><path d="M422,518.3945 L432,518.3945 C447,518.3945 447,603.127 462,603.127 L472,603.127 " fill="none" style="stroke:#181818;stroke-width:1.0;"/><path d="M226,659.6152 L236,659.6152 C251,659.6152 251,518.3945 266,518.3945 L276,518.3945 " fill="none" style="stroke:#181818;stroke-width:1.0;"/><rect fill="#F1F1F1" height="36.4883" rx="12.5" ry="12.5" style="stroke:#181818;stroke-width:1.5;" width="104" x="276" y="754.3477"/><text fill="#000000" font-family="sans-serif" font-size="14" lengthAdjust="spacing" textLength="84" x="286" y="777.8828">刻意练习写文</text><rect fill="#F1F1F1" height="36.4883" rx="12.5" ry="12.5" style="stroke:#181818;stroke-width:1.5;" width="188" x="430" y="641.3711"/><text fill="#000000" font-family="sans-serif" font-size="14" lengthAdjust="spacing" textLength="168" x="440" y="664.9063">简单：避免啰嗦，语言简化</text><path d="M380,772.5918 L390,772.5918 C405,772.5918 405,659.6152 420,659.6152 L430,659.6152 " fill="none" style="stroke:#181818;stroke-width:1.0;"/><rect fill="#F1F1F1" height="36.4883" rx="12.5" ry="12.5" style="stroke:#181818;stroke-width:1.5;" width="188" x="430" y="697.8594"/><text fill="#000000" font-family="sans-serif" font-size="14" lengthAdjust="spacing" textLength="168" x="440" y="721.3945">精练：总结凝练，逻辑清晰</text><path d="M380,772.5918 L390,772.5918 C405,772.5918 405,716.1035 420,716.1035 L430,716.1035 " fill="none" style="stroke:#181818;stroke-width:1.0;"/><rect fill="#F1F1F1" height="36.4883" rx="12.5" ry="12.5" style="stroke:#181818;stroke-width:1.5;" width="188" x="430" y="754.3477"/><text fill="#000000" font-family="sans-serif" font-size="14" lengthAdjust="spacing" textLength="168" x="440" y="777.8828">流畅，文笔流畅，过渡自然</text><rect fill="#F1F1F1" height="36.4883" rx="12.5" ry="12.5" style="stroke:#181818;stroke-width:1.5;" width="118" x="668" y="697.8594"/><text fill="#000000" font-family="sans-serif" font-size="14" lengthAdjust="spacing" textLength="98" x="678" y="721.3945">使用过渡性词语</text><path d="M618,772.5918 L628,772.5918 C643,772.5918 643,716.1035 658,716.1035 L668,716.1035 " fill="none" style="stroke:#181818;stroke-width:1.0;"/><rect fill="#F1F1F1" height="36.4883" rx="12.5" ry="12.5" style="stroke:#181818;stroke-width:1.5;" width="118" x="668" y="754.3477"/><text fill="#000000" font-family="sans-serif" font-size="14" lengthAdjust="spacing" textLength="98" x="678" y="777.8828">使用小标题过渡</text><path d="M618,772.5918 L628,772.5918 C643,772.5918 643,772.5918 658,772.5918 L668,772.5918 " fill="none" style="stroke:#181818;stroke-width:1.0;"/><rect fill="#F1F1F1" height="36.4883" rx="12.5" ry="12.5" style="stroke:#181818;stroke-width:1.5;" width="118" x="668" y="810.8359"/><text fill="#000000" font-family="sans-serif" font-size="14" lengthAdjust="spacing" textLength="98" x="678" y="834.3711">使用总结语过渡</text><path d="M618,772.5918 L628,772.5918 C643,772.5918 643,829.0801 658,829.0801 L668,829.0801 " fill="none" style="stroke:#181818;stroke-width:1.0;"/><path d="M380,772.5918 L390,772.5918 C405,772.5918 405,772.5918 420,772.5918 L430,772.5918 " fill="none" style="stroke:#181818;stroke-width:1.0;"/><rect fill="#F1F1F1" height="36.4883" rx="12.5" ry="12.5" style="stroke:#181818;stroke-width:1.5;" width="216" x="430" y="867.3242"/><text fill="#000000" font-family="sans-serif" font-size="14" lengthAdjust="spacing" textLength="196" x="440" y="890.8594">有说明力：说明他人，激发行动</text><path d="M380,772.5918 L390,772.5918 C405,772.5918 405,885.5684 420,885.5684 L430,885.5684 " fill="none" style="stroke:#181818;stroke-width:1.0;"/><path d="M226,659.6152 L236,659.6152 C251,659.6152 251,772.5918 266,772.5918 L276,772.5918 " fill="none" style="stroke:#181818;stroke-width:1.0;"/><rect fill="#F1F1F1" height="36.4883" rx="12.5" ry="12.5" style="stroke:#181818;stroke-width:1.5;" width="76" x="276" y="1008.5449"/><text fill="#000000" font-family="sans-serif" font-size="14" lengthAdjust="spacing" textLength="56" x="286" y="1032.0801">优质金句</text><rect fill="#F1F1F1" height="36.4883" rx="12.5" ry="12.5" style="stroke:#181818;stroke-width:1.5;" width="62" x="402" y="923.8125"/><text fill="#000000" font-family="sans-serif" font-size="14" lengthAdjust="spacing" textLength="42" x="412" y="947.3477">造句式</text><path d="M352,1026.7891 L362,1026.7891 C377,1026.7891 377,942.0566 392,942.0566 L402,942.0566 " fill="none" style="stroke:#181818;stroke-width:1.0;"/><rect fill="#F1F1F1" height="36.4883" rx="12.5" ry="12.5" style="stroke:#181818;stroke-width:1.5;" width="62" x="402" y="980.3008"/><text fill="#000000" font-family="sans-serif" font-size="14" lengthAdjust="spacing" textLength="42" x="412" y="1003.8359">压缩式</text><path d="M352,1026.7891 L362,1026.7891 C377,1026.7891 377,998.5449 392,998.5449 L402,998.5449 " fill="none" style="stroke:#181818;stroke-width:1.0;"/><rect fill="#F1F1F1" height="36.4883" rx="12.5" ry="12.5" style="stroke:#181818;stroke-width:1.5;" width="62" x="402" y="1036.7891"/><text fill="#000000" font-family="sans-serif" font-size="14" lengthAdjust="spacing" textLength="42" x="412" y="1060.3242">创造式</text><path d="M352,1026.7891 L362,1026.7891 C377,1026.7891 377,1055.0332 392,1055.0332 L402,1055.0332 " fill="none" style="stroke:#181818;stroke-width:1.0;"/><rect fill="#F1F1F1" height="36.4883" rx="12.5" ry="12.5" style="stroke:#181818;stroke-width:1.5;" width="62" x="402" y="1093.2773"/><text fill="#000000" font-family="sans-serif" font-size="14" lengthAdjust="spacing" textLength="42" x="412" y="1116.8125">改写式</text><path d="M352,1026.7891 L362,1026.7891 C377,1026.7891 377,1111.5215 392,1111.5215 L402,1111.5215 " fill="none" style="stroke:#181818;stroke-width:1.0;"/><path d="M226,659.6152 L236,659.6152 C251,659.6152 251,1026.7891 266,1026.7891 L276,1026.7891 " fill="none" style="stroke:#181818;stroke-width:1.0;"/><rect fill="#F1F1F1" height="36.4883" rx="12.5" ry="12.5" style="stroke:#181818;stroke-width:1.5;" width="104" x="276" y="1206.2539"/><text fill="#000000" font-family="sans-serif" font-size="14" lengthAdjust="spacing" textLength="84" x="286" y="1229.7891">提升词汇使用</text><rect fill="#F1F1F1" height="36.4883" rx="12.5" ry="12.5" style="stroke:#181818;stroke-width:1.5;" width="230" x="430" y="1149.7656"/><text fill="#000000" font-family="sans-serif" font-size="14" lengthAdjust="spacing" textLength="210" x="440" y="1173.3008">多使用动词和名词，少使用形容词</text><path d="M380,1224.498 L390,1224.498 C405,1224.498 405,1168.0098 420,1168.0098 L430,1168.0098 " fill="none" style="stroke:#181818;stroke-width:1.0;"/><rect fill="#F1F1F1" height="36.4883" rx="12.5" ry="12.5" style="stroke:#181818;stroke-width:1.5;" width="146" x="430" y="1206.2539"/><text fill="#000000" font-family="sans-serif" font-size="14" lengthAdjust="spacing" textLength="126" x="440" y="1229.7891">具象词汇增强画面感</text><path d="M380,1224.498 L390,1224.498 C405,1224.498 405,1224.498 420,1224.498 L430,1224.498 " fill="none" style="stroke:#181818;stroke-width:1.0;"/><rect fill="#F1F1F1" height="36.4883" rx="12.5" ry="12.5" style="stroke:#181818;stroke-width:1.5;" width="146" x="430" y="1262.7422"/><text fill="#000000" font-family="sans-serif" font-size="14" lengthAdjust="spacing" textLength="126" x="440" y="1286.2773">同义词替换避免重复</text><path d="M380,1224.498 L390,1224.498 C405,1224.498 405,1280.9863 420,1280.9863 L430,1280.9863 " fill="none" style="stroke:#181818;stroke-width:1.0;"/><path d="M226,659.6152 L236,659.6152 C251,659.6152 251,1224.498 266,1224.498 L276,1224.498 " fill="none" style="stroke:#181818;stroke-width:1.0;"/><!--SRC=[LLHTSzfM47tNhxYFYMUIITmca_AKgPDqnhNRJ9taNOs9mqmiCbXufdqIDY1Y8m4nK0AsCTY9wOS1roHyI9WVK-szLq_v2rbn5Qo-QUyvktjspuxkRwXoJ5sFAAlhycjfZa36eiaSixQTuT5dkmed7MWVGdt46jfdEyjQ5z2kiWkBMNLfRexGtJG_FQPbdVsDxAnWy-qnxDGG_eex0uiUwMwpWXHdT9NXM7tGx00HkhaPaQNhhFwUbdhEU8ysqlJmaqT4PgK3-G_EmAH70vXiyzCjjZLajG6aBe84EAl0VejPU_GmYH1A3gBitqiS4Rk8aEw_WVm0xDB_TGkLa4v1U-XDbq4LUH5Y0J1CKPAtHoXXLWpBy8zzI9sxW-CPWHhjO3VUwT5zm- -6xHePvtBtYf3emdZlFot1Upt8wC45vKrMJLBjW6lR8XNIxvp1BjV_Wlxv3FAsK_p4pVxKeso2MMV80ts4hSNInTf4vLoURTb14Ei4SD3UKhC5PXrgdiSqMwPcXPQx0OghfI5V4BszHUKCBvmIfpXhjF5iq0QtsEOTOtefFPuikCSchVOyaS6pGwcuUP7Ori0euHswYGca32XruOyFcCuxPxobUMYsB8Y-eLMguMtkWNuW_7KrYryMw215ttN5j1yJh9Jova1p_odEGZxHwQ21UsH9_z2SyOGLM-ATQgUe6xi6eTcr2auG4YeybJE8-BPNJBGTXOflnoexev4dPw91hi0RMTXfUGjnx0hljLoz0Bdt_ewFy1Fid335t6NsdxCeK_DWFwB5eUVsDFBS1KD7yVHS5zf4nadL7sAdXI2ypKBUyAtf5dnetCHBnqUHaUhpyuOe1Cr3i4UiQBa7JPgi2poVTOPlFBmseKPJ6ERg1fmOqlqm_bxyNupq-9Mig4-NbyXcEBOHYIhazitvM_FVtBnzRIMka4LP8VFVaVbReJltGdVkaeML9yI3hqlNVdYyH3QYyTZpC5cDRAYnoAzn5VElIulofan-YIjgP3qS8Z-_3YkB3txy-a0UAfkHM5HP3okgjFXi-OfmzziRtqTKiXAEeHBoR5bw47uXnr-fcF4ykXfHraBawPD7D-v9IxAo5fVNiFRlBwM5ADQD_HOY2pzz0G00]--></g></svg>