<?xml version="1.0" encoding="UTF-8" standalone="no"?><svg xmlns="http://www.w3.org/2000/svg" xmlns:xlink="http://www.w3.org/1999/xlink" contentStyleType="text/css" height="1375px" preserveAspectRatio="none" style="width:1078px;height:1375px;background:#FFFFFF;" version="1.1" viewBox="0 0 1078 1375" width="1078px" zoomAndPan="magnify"><defs/><g><rect fill="#F1F1F1" height="36.4883" rx="12.5" ry="12.5" style="stroke:#181818;stroke-width:1.5;" width="216" x="10" y="668.5449"/><text fill="#000000" font-family="sans-serif" font-size="14" lengthAdjust="spacing" textLength="196" x="20" y="692.0801">框架思维：搭建骨架，打磨首尾</text><rect fill="#F1F1F1" height="36.4883" rx="12.5" ry="12.5" style="stroke:#181818;stroke-width:1.5;" width="104" x="276" y="182.4414"/><text fill="#000000" font-family="sans-serif" font-size="14" lengthAdjust="spacing" textLength="84" x="286" y="205.9766">搭建逻辑框架</text><rect fill="#F1F1F1" height="36.4883" rx="12.5" ry="12.5" style="stroke:#181818;stroke-width:1.5;" width="104" x="430" y="20"/><text fill="#000000" font-family="sans-serif" font-size="14" lengthAdjust="spacing" textLength="84" x="440" y="43.5352">确定核心观点</text><rect fill="#F1F1F1" height="36.4883" rx="12.5" ry="12.5" style="stroke:#181818;stroke-width:1.5;" width="384" x="584" y="20"/><text fill="#000000" font-family="sans-serif" font-size="14" lengthAdjust="spacing" textLength="364" x="594" y="43.5352">对发生的事件，寻找一个自己认为对读者有益有启发的观点</text><path d="M534,38.2441 L544,38.2441 C559,38.2441 559,38.2441 574,38.2441 L584,38.2441 " fill="none" style="stroke:#181818;stroke-width:1.0;"/><path d="M380,200.6855 L390,200.6855 C405,200.6855 405,38.2441 420,38.2441 L430,38.2441 " fill="none" style="stroke:#181818;stroke-width:1.0;"/><rect fill="#F1F1F1" height="36.4883" rx="12.5" ry="12.5" style="stroke:#181818;stroke-width:1.5;" width="104" x="430" y="121.2207"/><text fill="#000000" font-family="sans-serif" font-size="14" lengthAdjust="spacing" textLength="84" x="440" y="144.7559">搭建文章骨架</text><rect fill="#F1F1F1" height="36.4883" rx="12.5" ry="12.5" style="stroke:#181818;stroke-width:1.5;" width="482" x="584" y="76.4883"/><text fill="#000000" font-family="sans-serif" font-size="14" lengthAdjust="spacing" textLength="462" x="594" y="100.0234">围绕核心观点厘清相关论证关键词，把核心观点细化拆分成多个部分来论述</text><path d="M534,139.4648 L544,139.4648 C559,139.4648 559,94.7324 574,94.7324 L584,94.7324 " fill="none" style="stroke:#181818;stroke-width:1.0;"/><rect fill="#F1F1F1" height="69.4648" rx="12.5" ry="12.5" style="stroke:#181818;stroke-width:1.5;" width="426" x="584" y="132.9766"/><text fill="#000000" font-family="sans-serif" font-size="14" lengthAdjust="spacing" textLength="224" x="594" y="156.5117">拆分：把核心观点拆分成几部分论述</text><text fill="#000000" font-family="sans-serif" font-size="14" lengthAdjust="spacing" textLength="378" x="594" y="173">关联：厘清关键词之间的关联，是并列、递进、对比还是转折</text><text fill="#000000" font-family="sans-serif" font-size="14" lengthAdjust="spacing" textLength="406" x="594" y="189.4883">说服：关键词是否充分具体，小标题打磨是否具有吸引力和说服力</text><path d="M534,139.4648 L544,139.4648 C559,139.4648 559,167.709 574,167.709 L584,167.709 " fill="none" style="stroke:#181818;stroke-width:1.0;"/><path d="M380,200.6855 L390,200.6855 C405,200.6855 405,139.4648 420,139.4648 L430,139.4648 " fill="none" style="stroke:#181818;stroke-width:1.0;"/><rect fill="#F1F1F1" height="36.4883" rx="12.5" ry="12.5" style="stroke:#181818;stroke-width:1.5;" width="104" x="430" y="283.6621"/><text fill="#000000" font-family="sans-serif" font-size="14" lengthAdjust="spacing" textLength="84" x="440" y="307.1973">填充整体内容</text><rect fill="#F1F1F1" height="69.4648" rx="12.5" ry="12.5" style="stroke:#181818;stroke-width:1.5;" width="90" x="584" y="222.4414"/><text fill="#000000" font-family="sans-serif" font-size="14" lengthAdjust="spacing" textLength="70" x="594" y="245.9766">充分的案例</text><text fill="#000000" font-family="sans-serif" font-size="14" lengthAdjust="spacing" textLength="70" x="594" y="262.4648">翔实的数据</text><text fill="#000000" font-family="sans-serif" font-size="14" lengthAdjust="spacing" textLength="70" x="594" y="278.9531">扎实的理论</text><path d="M534,301.9063 L544,301.9063 C559,301.9063 559,257.1738 574,257.1738 L584,257.1738 " fill="none" style="stroke:#181818;stroke-width:1.0;"/><rect fill="#F1F1F1" height="69.4648" rx="12.5" ry="12.5" style="stroke:#181818;stroke-width:1.5;" width="160" x="584" y="311.9063"/><text fill="#000000" font-family="sans-serif" font-size="14" lengthAdjust="spacing" textLength="98" x="594" y="335.4414">找什么样的素材</text><text fill="#000000" font-family="sans-serif" font-size="14" lengthAdjust="spacing" textLength="140" x="594" y="351.9297">正确理解寻找到的素材</text><text fill="#000000" font-family="sans-serif" font-size="14" lengthAdjust="spacing" textLength="126" x="594" y="368.418">如何准确的使用素材</text><path d="M534,301.9063 L544,301.9063 C559,301.9063 559,346.6387 574,346.6387 L584,346.6387 " fill="none" style="stroke:#181818;stroke-width:1.0;"/><path d="M380,200.6855 L390,200.6855 C405,200.6855 405,301.9063 420,301.9063 L430,301.9063 " fill="none" style="stroke:#181818;stroke-width:1.0;"/><path d="M226,686.7891 L236,686.7891 C251,686.7891 251,200.6855 266,200.6855 L276,200.6855 " fill="none" style="stroke:#181818;stroke-width:1.0;"/><rect fill="#F1F1F1" height="36.4883" rx="12.5" ry="12.5" style="stroke:#181818;stroke-width:1.5;" width="132" x="276" y="596.7891"/><text fill="#000000" font-family="sans-serif" font-size="14" lengthAdjust="spacing" textLength="112" x="286" y="620.3242">常见五种逻辑框架</text><rect fill="#F1F1F1" height="36.4883" rx="12.5" ry="12.5" style="stroke:#181818;stroke-width:1.5;" width="90" x="458" y="417.8594"/><text fill="#000000" font-family="sans-serif" font-size="14" lengthAdjust="spacing" textLength="70" x="468" y="441.3945">问题式结构</text><rect fill="#F1F1F1" height="69.4648" rx="12.5" ry="12.5" style="stroke:#181818;stroke-width:1.5;" width="76" x="598" y="401.3711"/><text fill="#000000" font-family="sans-serif" font-size="14" lengthAdjust="spacing" textLength="56" x="608" y="424.9063">提出问题</text><text fill="#000000" font-family="sans-serif" font-size="14" lengthAdjust="spacing" textLength="56" x="608" y="441.3945">分析问题</text><text fill="#000000" font-family="sans-serif" font-size="14" lengthAdjust="spacing" textLength="56" x="608" y="457.8828">解决问题</text><path d="M548,436.1035 L558,436.1035 C573,436.1035 573,436.1035 588,436.1035 L598,436.1035 " fill="none" style="stroke:#181818;stroke-width:1.0;"/><path d="M408,615.0332 L418,615.0332 C433,615.0332 433,436.1035 448,436.1035 L458,436.1035 " fill="none" style="stroke:#181818;stroke-width:1.0;"/><rect fill="#F1F1F1" height="36.4883" rx="12.5" ry="12.5" style="stroke:#181818;stroke-width:1.5;" width="90" x="458" y="507.3242"/><text fill="#000000" font-family="sans-serif" font-size="14" lengthAdjust="spacing" textLength="70" x="468" y="530.8594">总分总结构</text><rect fill="#F1F1F1" height="69.4648" rx="12.5" ry="12.5" style="stroke:#181818;stroke-width:1.5;" width="76" x="598" y="490.8359"/><text fill="#000000" font-family="sans-serif" font-size="14" lengthAdjust="spacing" textLength="56" x="608" y="514.3711">给出结论</text><text fill="#000000" font-family="sans-serif" font-size="14" lengthAdjust="spacing" textLength="56" x="608" y="530.8594">开始论证</text><text fill="#000000" font-family="sans-serif" font-size="14" lengthAdjust="spacing" textLength="56" x="608" y="547.3477">总结升华</text><path d="M548,525.5684 L558,525.5684 C573,525.5684 573,525.5684 588,525.5684 L598,525.5684 " fill="none" style="stroke:#181818;stroke-width:1.0;"/><path d="M408,615.0332 L418,615.0332 C433,615.0332 433,525.5684 448,525.5684 L458,525.5684 " fill="none" style="stroke:#181818;stroke-width:1.0;"/><rect fill="#F1F1F1" height="36.4883" rx="12.5" ry="12.5" style="stroke:#181818;stroke-width:1.5;" width="90" x="458" y="596.7891"/><text fill="#000000" font-family="sans-serif" font-size="14" lengthAdjust="spacing" textLength="70" x="468" y="620.3242">并列式结构</text><rect fill="#F1F1F1" height="69.4648" rx="12.5" ry="12.5" style="stroke:#181818;stroke-width:1.5;" width="186" x="598" y="580.3008"/><text fill="#000000" font-family="sans-serif" font-size="14" lengthAdjust="spacing" textLength="166" x="608" y="603.8359">主体并列，3-5个标题并列</text><text fill="#000000" font-family="sans-serif" font-size="14" lengthAdjust="spacing" textLength="56" x="608" y="620.3242">观点并列</text><text fill="#000000" font-family="sans-serif" font-size="14" lengthAdjust="spacing" textLength="56" x="608" y="636.8125">故事并列</text><path d="M548,615.0332 L558,615.0332 C573,615.0332 573,615.0332 588,615.0332 L598,615.0332 " fill="none" style="stroke:#181818;stroke-width:1.0;"/><path d="M408,615.0332 L418,615.0332 C433,615.0332 433,615.0332 448,615.0332 L458,615.0332 " fill="none" style="stroke:#181818;stroke-width:1.0;"/><rect fill="#F1F1F1" height="36.4883" rx="12.5" ry="12.5" style="stroke:#181818;stroke-width:1.5;" width="90" x="458" y="686.2539"/><text fill="#000000" font-family="sans-serif" font-size="14" lengthAdjust="spacing" textLength="70" x="468" y="709.7891">递进式结构</text><rect fill="#F1F1F1" height="69.4648" rx="12.5" ry="12.5" style="stroke:#181818;stroke-width:1.5;" width="272" x="598" y="669.7656"/><text fill="#000000" font-family="sans-serif" font-size="14" lengthAdjust="spacing" textLength="252" x="608" y="693.3008">时间递进，随着时间推移，命运不断改变</text><text fill="#000000" font-family="sans-serif" font-size="14" lengthAdjust="spacing" textLength="252" x="608" y="709.7891">空间递进，空间范围逐渐拉大，层层递进</text><text fill="#000000" font-family="sans-serif" font-size="14" lengthAdjust="spacing" textLength="154" x="608" y="726.2773">程度递进，从小我到大我</text><path d="M548,704.498 L558,704.498 C573,704.498 573,704.498 588,704.498 L598,704.498 " fill="none" style="stroke:#181818;stroke-width:1.0;"/><path d="M408,615.0332 L418,615.0332 C433,615.0332 433,704.498 448,704.498 L458,704.498 " fill="none" style="stroke:#181818;stroke-width:1.0;"/><rect fill="#F1F1F1" height="36.4883" rx="12.5" ry="12.5" style="stroke:#181818;stroke-width:1.5;" width="104" x="458" y="775.7188"/><text fill="#000000" font-family="sans-serif" font-size="14" lengthAdjust="spacing" textLength="84" x="468" y="799.2539">正反对比结构</text><rect fill="#F1F1F1" height="69.4648" rx="12.5" ry="12.5" style="stroke:#181818;stroke-width:1.5;" width="104" x="612" y="759.2305"/><text fill="#000000" font-family="sans-serif" font-size="14" lengthAdjust="spacing" textLength="70" x="622" y="782.7656">人之间对比</text><text fill="#000000" font-family="sans-serif" font-size="14" lengthAdjust="spacing" textLength="84" x="622" y="799.2539">事物之间对比</text><text fill="#000000" font-family="sans-serif" font-size="14" lengthAdjust="spacing" textLength="84" x="622" y="815.7422">观点之间对比</text><path d="M562,793.9629 L572,793.9629 C587,793.9629 587,793.9629 602,793.9629 L612,793.9629 " fill="none" style="stroke:#181818;stroke-width:1.0;"/><path d="M408,615.0332 L418,615.0332 C433,615.0332 433,793.9629 448,793.9629 L458,793.9629 " fill="none" style="stroke:#181818;stroke-width:1.0;"/><path d="M226,686.7891 L236,686.7891 C251,686.7891 251,615.0332 266,615.0332 L276,615.0332 " fill="none" style="stroke:#181818;stroke-width:1.0;"/><rect fill="#F1F1F1" height="36.4883" rx="12.5" ry="12.5" style="stroke:#181818;stroke-width:1.5;" width="76" x="276" y="913.4277"/><text fill="#000000" font-family="sans-serif" font-size="14" lengthAdjust="spacing" textLength="56" x="286" y="936.9629">写好开头</text><rect fill="#F1F1F1" height="36.4883" rx="12.5" ry="12.5" style="stroke:#181818;stroke-width:1.5;" width="146" x="402" y="856.9395"/><text fill="#000000" font-family="sans-serif" font-size="14" lengthAdjust="spacing" textLength="126" x="412" y="880.4746">开门见山，明确价值</text><rect fill="#F1F1F1" height="52.9766" rx="12.5" ry="12.5" style="stroke:#181818;stroke-width:1.5;" width="356" x="598" y="848.6953"/><text fill="#000000" font-family="sans-serif" font-size="14" lengthAdjust="spacing" textLength="294" x="608" y="872.2305">直接亮出文章的主题，告诉读者要表达的是什么</text><text fill="#000000" font-family="sans-serif" font-size="14" lengthAdjust="spacing" textLength="336" x="608" y="888.7188">告诉读者读完能收获哪些价值，拥有直接的价值收获感</text><path d="M548,875.1836 L558,875.1836 C573,875.1836 573,875.1836 588,875.1836 L598,875.1836 " fill="none" style="stroke:#181818;stroke-width:1.0;"/><path d="M352,931.6719 L362,931.6719 C377,931.6719 377,875.1836 392,875.1836 L402,875.1836 " fill="none" style="stroke:#181818;stroke-width:1.0;"/><rect fill="#F1F1F1" height="36.4883" rx="12.5" ry="12.5" style="stroke:#181818;stroke-width:1.5;" width="146" x="402" y="921.6719"/><text fill="#000000" font-family="sans-serif" font-size="14" lengthAdjust="spacing" textLength="126" x="412" y="945.207">设置悬念，激发好奇</text><rect fill="#F1F1F1" height="36.4883" rx="12.5" ry="12.5" style="stroke:#181818;stroke-width:1.5;" width="412" x="598" y="921.6719"/><text fill="#000000" font-family="sans-serif" font-size="14" lengthAdjust="spacing" textLength="392" x="608" y="945.207">开头设置悬念，激发读者往下读的信心，顺便让他往后寻找答案</text><path d="M548,939.916 L558,939.916 C573,939.916 573,939.916 588,939.916 L598,939.916 " fill="none" style="stroke:#181818;stroke-width:1.0;"/><path d="M352,931.6719 L362,931.6719 C377,931.6719 377,939.916 392,939.916 L402,939.916 " fill="none" style="stroke:#181818;stroke-width:1.0;"/><rect fill="#F1F1F1" height="36.4883" rx="12.5" ry="12.5" style="stroke:#181818;stroke-width:1.5;" width="146" x="402" y="978.1602"/><text fill="#000000" font-family="sans-serif" font-size="14" lengthAdjust="spacing" textLength="126" x="412" y="1001.6953">讲述故事，代入场景</text><path d="M352,931.6719 L362,931.6719 C377,931.6719 377,996.4043 392,996.4043 L402,996.4043 " fill="none" style="stroke:#181818;stroke-width:1.0;"/><path d="M226,686.7891 L236,686.7891 C251,686.7891 251,931.6719 266,931.6719 L276,931.6719 " fill="none" style="stroke:#181818;stroke-width:1.0;"/><rect fill="#F1F1F1" height="36.4883" rx="12.5" ry="12.5" style="stroke:#181818;stroke-width:1.5;" width="76" x="276" y="1091.1367"/><text fill="#000000" font-family="sans-serif" font-size="14" lengthAdjust="spacing" textLength="56" x="286" y="1114.6719">写好结尾</text><rect fill="#F1F1F1" height="36.4883" rx="12.5" ry="12.5" style="stroke:#181818;stroke-width:1.5;" width="146" x="402" y="1034.6484"/><text fill="#000000" font-family="sans-serif" font-size="14" lengthAdjust="spacing" textLength="126" x="412" y="1058.1836">总结要点，升华主题</text><rect fill="#F1F1F1" height="36.4883" rx="12.5" ry="12.5" style="stroke:#181818;stroke-width:1.5;" width="412" x="598" y="1034.6484"/><text fill="#000000" font-family="sans-serif" font-size="14" lengthAdjust="spacing" textLength="392" x="608" y="1058.1836">结尾处对关键点进行梳理、总结，在此基础上再进行主题的升华</text><path d="M548,1052.8926 L558,1052.8926 C573,1052.8926 573,1052.8926 588,1052.8926 L598,1052.8926 " fill="none" style="stroke:#181818;stroke-width:1.0;"/><path d="M352,1109.3809 L362,1109.3809 C377,1109.3809 377,1052.8926 392,1052.8926 L402,1052.8926 " fill="none" style="stroke:#181818;stroke-width:1.0;"/><rect fill="#F1F1F1" height="36.4883" rx="12.5" ry="12.5" style="stroke:#181818;stroke-width:1.5;" width="146" x="402" y="1091.1367"/><text fill="#000000" font-family="sans-serif" font-size="14" lengthAdjust="spacing" textLength="126" x="412" y="1114.6719">金句结尾，刺激转发</text><rect fill="#F1F1F1" height="36.4883" rx="12.5" ry="12.5" style="stroke:#181818;stroke-width:1.5;" width="202" x="598" y="1091.1367"/><text fill="#000000" font-family="sans-serif" font-size="14" lengthAdjust="spacing" textLength="182" x="608" y="1114.6719">利用共鸣，刺激读者进行转发</text><path d="M548,1109.3809 L558,1109.3809 C573,1109.3809 573,1109.3809 588,1109.3809 L598,1109.3809 " fill="none" style="stroke:#181818;stroke-width:1.0;"/><path d="M352,1109.3809 L362,1109.3809 C377,1109.3809 377,1109.3809 392,1109.3809 L402,1109.3809 " fill="none" style="stroke:#181818;stroke-width:1.0;"/><rect fill="#F1F1F1" height="36.4883" rx="12.5" ry="12.5" style="stroke:#181818;stroke-width:1.5;" width="146" x="402" y="1147.625"/><text fill="#000000" font-family="sans-serif" font-size="14" lengthAdjust="spacing" textLength="126" x="412" y="1171.1602">情理之中，意料之外</text><rect fill="#F1F1F1" height="36.4883" rx="12.5" ry="12.5" style="stroke:#181818;stroke-width:1.5;" width="258" x="598" y="1147.625"/><text fill="#000000" font-family="sans-serif" font-size="14" lengthAdjust="spacing" textLength="238" x="608" y="1171.1602">给读者一种情理之中，意料之外的感觉</text><path d="M548,1165.8691 L558,1165.8691 C573,1165.8691 573,1165.8691 588,1165.8691 L598,1165.8691 " fill="none" style="stroke:#181818;stroke-width:1.0;"/><path d="M352,1109.3809 L362,1109.3809 C377,1109.3809 377,1165.8691 392,1165.8691 L402,1165.8691 " fill="none" style="stroke:#181818;stroke-width:1.0;"/><path d="M226,686.7891 L236,686.7891 C251,686.7891 251,1109.3809 266,1109.3809 L276,1109.3809 " fill="none" style="stroke:#181818;stroke-width:1.0;"/><rect fill="#F1F1F1" height="36.4883" rx="12.5" ry="12.5" style="stroke:#181818;stroke-width:1.5;" width="76" x="276" y="1260.6016"/><text fill="#000000" font-family="sans-serif" font-size="14" lengthAdjust="spacing" textLength="56" x="286" y="1284.1367">打磨标题</text><rect fill="#F1F1F1" height="36.4883" rx="12.5" ry="12.5" style="stroke:#181818;stroke-width:1.5;" width="118" x="402" y="1204.1133"/><text fill="#000000" font-family="sans-serif" font-size="14" lengthAdjust="spacing" textLength="98" x="412" y="1227.6484">学会提炼小标题</text><rect fill="#F1F1F1" height="36.4883" rx="12.5" ry="12.5" style="stroke:#181818;stroke-width:1.5;" width="370" x="570" y="1204.1133"/><text fill="#000000" font-family="sans-serif" font-size="14" lengthAdjust="spacing" textLength="350" x="580" y="1227.6484">利用简单、精练、有说服力的小标题增加读者的阅读兴趣</text><path d="M520,1222.3574 L530,1222.3574 C545,1222.3574 545,1222.3574 560,1222.3574 L570,1222.3574 " fill="none" style="stroke:#181818;stroke-width:1.0;"/><path d="M352,1278.8457 L362,1278.8457 C377,1278.8457 377,1222.3574 392,1222.3574 L402,1222.3574 " fill="none" style="stroke:#181818;stroke-width:1.0;"/><rect fill="#F1F1F1" height="36.4883" rx="12.5" ry="12.5" style="stroke:#181818;stroke-width:1.5;" width="118" x="402" y="1260.6016"/><text fill="#000000" font-family="sans-serif" font-size="14" lengthAdjust="spacing" textLength="98" x="412" y="1284.1367">依次完善小标题</text><rect fill="#F1F1F1" height="36.4883" rx="12.5" ry="12.5" style="stroke:#181818;stroke-width:1.5;" width="230" x="570" y="1260.6016"/><text fill="#000000" font-family="sans-serif" font-size="14" lengthAdjust="spacing" textLength="210" x="580" y="1284.1367">在写完文章后，再重新精练小标题</text><path d="M520,1278.8457 L530,1278.8457 C545,1278.8457 545,1278.8457 560,1278.8457 L570,1278.8457 " fill="none" style="stroke:#181818;stroke-width:1.0;"/><path d="M352,1278.8457 L362,1278.8457 C377,1278.8457 377,1278.8457 392,1278.8457 L402,1278.8457 " fill="none" style="stroke:#181818;stroke-width:1.0;"/><rect fill="#F1F1F1" height="36.4883" rx="12.5" ry="12.5" style="stroke:#181818;stroke-width:1.5;" width="118" x="402" y="1317.0898"/><text fill="#000000" font-family="sans-serif" font-size="14" lengthAdjust="spacing" textLength="98" x="412" y="1340.625">设置多级小标题</text><rect fill="#F1F1F1" height="36.4883" rx="12.5" ry="12.5" style="stroke:#181818;stroke-width:1.5;" width="412" x="570" y="1317.0898"/><text fill="#000000" font-family="sans-serif" font-size="14" lengthAdjust="spacing" textLength="392" x="580" y="1340.625">对大段的内容进行拆分，增加小标题的数量，让文章变得更清晰</text><path d="M520,1335.334 L530,1335.334 C545,1335.334 545,1335.334 560,1335.334 L570,1335.334 " fill="none" style="stroke:#181818;stroke-width:1.0;"/><path d="M352,1278.8457 L362,1278.8457 C377,1278.8457 377,1335.334 392,1335.334 L402,1335.334 " fill="none" style="stroke:#181818;stroke-width:1.0;"/><path d="M226,686.7891 L236,686.7891 C251,686.7891 251,1278.8457 266,1278.8457 L276,1278.8457 " fill="none" style="stroke:#181818;stroke-width:1.0;"/><!--SRC=[VLPRRnD757xVNx6F40a4eI1gNb2XhPH2YnhWtGMNMY8ESXoazccJ-7uFiHqdpiN6rmIyJi0acrrVVaptpEm-yHTwPiycJjAgKXJjp7pdCj_vpXdVNmXvWw4vV-3bdFUDD2MpMfJj735bcnlzhuDDbk-2eTlx7TpyEaYpn1glT-nM2Gv6qXIYwLWnhD4gMUBkbCnhAgYRhAh1UCLgB_Fb4x4z9KFl17AhlB3BDyEcdZ8DuHDw1akCJ4qnjNqhjW_7XvRQC3KTmLRFi9G8sqhmIXB_Gxudp3V34vzk1gmKun-gbAORgjBdHl5y2f0jCot2Anf4FbkgRlMMyCCkg5Ol8swMJ9u7SoCAwH9BHI4UPV4yD3OnEtkb8vRRJM4-Fd02UGWZgBheOM8RgvAXQoN2BnNGW18wIy8yITdhVRpTAI3DoZquEOBu-j_AagsyiyOL_41QMAzWZSjuQWq_icHPidfzjfKH7azz2Sjy2o8H30kHOtEu9eW-oB5gp7vVfYgUOeuTPZKO525PWNTfyeRVzno2eVO1_R1Y7vr0D08grT93pZ5TLekRevJ4nmLGTyIwUC0ogiGIMLhplBZvFPSjhBIXc2TnLZqMP_qgsyvBh5j7oGXWkqvoWFZ1v1XQo-Qm2B6e0A5oXcDUwD2PS2k3fbdj9LCly7RcNrgqrrMyCWnot5XZEs4tZHoMHQSZIPHf9-ykH0RHpxGW0fXY28HYd7V0ZGrqW3juDGa62hHJf2c9W929GIRhCkZKy586fcO8GfqZhCsjQxTHO5GUsfHSrTA25IFOCBGWhoI8o_TQFq8DqH5wjJTpV5kXJPRjyBOXPB0wjCPvKykmKfSLi27B4j_JpvlHqaglO1FPIfvfUPPAGACjZ0-NyO-G4k-aG6-TcPb6LaWileh5GpH-k0Hswv3Ba6ulKA3hf7awal22FB5tOOiuEBz51OzkG7CeQ6_qYUA1OgztK0HmUEWqJXQbOXh7e0pSUbMGWAQfgrWr6XP2I9g1T3kK9ArUWgQDrLgoQXrhD19IBlT8hT85HCy0DMsj35dXoCeUmzg-gLSec8YTQZe3IyGJCPnzGhBmBZ5YgIC-LDdoHnX_4IPZ1UUQk54pvaulvsh_2QCSO8JZCeNV8iIuXbD7bBkccwEnfUwPHWa1aCzIC_5k0PlKZVm9Pn2foIbP7I9DsDBPHcz2hD2lCzyTyGkHjvQm388eHzR46sLAM6Y4nMntnWyYKGzMBStUVyQMnf55JeJvLeTr6x2hyngcduHeXf3aK8m-np_fExOAkIQv5wPn7U-F0myfS3cAx-4OWCYXhTKd0AgGutK2bjbA15D17PbQLp0Pph7I1YwXKJgznWQPuZk4K-H_y48MuLshdN3UFvgaJjkI4Bij4v-2N9ul3yxcxVbykQf0feYay4yZRgm8ThOIPoDNK71g1Uzt85cbh73VBZl2Y_IjexeJoXnjiuyrL2AKmfT3RNL49TKqIHs580YAPkmODlq1HRvWuYeIdpckjoyxmy9YDwjVH7BE0-2MrttuqfJecHKz0NOiXqUeHJU5N1b6wmoxGekmZGFflWz_SBW_EgGdhxs1qBF7Z-Itlk22VpuWtxm-VMFwrlMRLsON0_ACDo1FVojFt_3SlkkvVKT-CFjK5iTNfIi_FdaaByml1b_uv9V-XL3G_zjY2EslIZFUjrxvryL0o3_dyyY_lF45PXx-TBeXVnzuwm_E1-PyWP0qy_pn173dcslV-KFoh2-8cSZF7qiFVRzx5r-7qEB5_4j_u9L7VlRqXsjtfKVUmAj5xolq_TSVqeDvz1lyqoC_-FaV]--></g></svg>