<?xml version="1.0" encoding="UTF-8" standalone="no"?><svg xmlns="http://www.w3.org/2000/svg" xmlns:xlink="http://www.w3.org/1999/xlink" contentStyleType="text/css" height="1309px" preserveAspectRatio="none" style="width:1204px;height:1309px;background:#FFFFFF;" version="1.1" viewBox="0 0 1204 1309" width="1204px" zoomAndPan="magnify"><defs/><g><rect fill="#F1F1F1" height="36.4883" rx="12.5" ry="12.5" style="stroke:#181818;stroke-width:1.5;" width="216" x="10" y="635.5684"/><text fill="#000000" font-family="sans-serif" font-size="14" lengthAdjust="spacing" textLength="196" x="20" y="659.1035">观点打磨：优质选题、爆款标题</text><rect fill="#F1F1F1" height="36.4883" rx="12.5" ry="12.5" style="stroke:#181818;stroke-width:1.5;" width="174" x="276" y="104.7324"/><text fill="#000000" font-family="sans-serif" font-size="14" lengthAdjust="spacing" textLength="154" x="286" y="128.2676">每个人都要有自己的观点</text><rect fill="#F1F1F1" height="36.4883" rx="12.5" ry="12.5" style="stroke:#181818;stroke-width:1.5;" width="160" x="500" y="48.2441"/><text fill="#000000" font-family="sans-serif" font-size="14" lengthAdjust="spacing" textLength="140" x="510" y="71.7793">你的角度就是你的观点</text><rect fill="#F1F1F1" height="36.4883" rx="12.5" ry="12.5" style="stroke:#181818;stroke-width:1.5;" width="482" x="710" y="20"/><text fill="#000000" font-family="sans-serif" font-size="14" lengthAdjust="spacing" textLength="462" x="720" y="43.5352">作为写作者，除了要多角度思考，还要考虑角度够不够新颖，有没有差异化</text><path d="M660,66.4883 L670,66.4883 C685,66.4883 685,38.2441 700,38.2441 L710,38.2441 " fill="none" style="stroke:#181818;stroke-width:1.0;"/><rect fill="#F1F1F1" height="36.4883" rx="12.5" ry="12.5" style="stroke:#181818;stroke-width:1.5;" width="384" x="710" y="76.4883"/><text fill="#000000" font-family="sans-serif" font-size="14" lengthAdjust="spacing" textLength="364" x="720" y="100.0234">一个热点事件出来，要尝试逆向思考，用不同的角度来表达</text><path d="M660,66.4883 L670,66.4883 C685,66.4883 685,94.7324 700,94.7324 L710,94.7324 " fill="none" style="stroke:#181818;stroke-width:1.0;"/><path d="M450,122.9766 L460,122.9766 C475,122.9766 475,66.4883 490,66.4883 L500,66.4883 " fill="none" style="stroke:#181818;stroke-width:1.0;"/><rect fill="#F1F1F1" height="36.4883" rx="12.5" ry="12.5" style="stroke:#181818;stroke-width:1.5;" width="160" x="500" y="132.9766"/><text fill="#000000" font-family="sans-serif" font-size="14" lengthAdjust="spacing" textLength="140" x="510" y="156.5117">所见所闻都有新的观点</text><rect fill="#F1F1F1" height="36.4883" rx="12.5" ry="12.5" style="stroke:#181818;stroke-width:1.5;" width="230" x="710" y="132.9766"/><text fill="#000000" font-family="sans-serif" font-size="14" lengthAdjust="spacing" textLength="210" x="720" y="156.5117">利用生活中的小事，产生新的观点</text><path d="M660,151.2207 L670,151.2207 C685,151.2207 685,151.2207 700,151.2207 L710,151.2207 " fill="none" style="stroke:#181818;stroke-width:1.0;"/><path d="M450,122.9766 L460,122.9766 C475,122.9766 475,151.2207 490,151.2207 L500,151.2207 " fill="none" style="stroke:#181818;stroke-width:1.0;"/><rect fill="#F1F1F1" height="36.4883" rx="12.5" ry="12.5" style="stroke:#181818;stroke-width:1.5;" width="160" x="500" y="189.4648"/><text fill="#000000" font-family="sans-serif" font-size="14" lengthAdjust="spacing" textLength="140" x="510" y="213">利用观点筛选受众人群</text><rect fill="#F1F1F1" height="36.4883" rx="12.5" ry="12.5" style="stroke:#181818;stroke-width:1.5;" width="356" x="710" y="189.4648"/><text fill="#000000" font-family="sans-serif" font-size="14" lengthAdjust="spacing" textLength="336" x="720" y="213">要对自己写的领域足够了解，表达时才有足够的说服力</text><path d="M660,207.709 L670,207.709 C685,207.709 685,207.709 700,207.709 L710,207.709 " fill="none" style="stroke:#181818;stroke-width:1.0;"/><path d="M450,122.9766 L460,122.9766 C475,122.9766 475,207.709 490,207.709 L500,207.709 " fill="none" style="stroke:#181818;stroke-width:1.0;"/><path d="M226,653.8125 L236,653.8125 C251,653.8125 251,122.9766 266,122.9766 L276,122.9766 " fill="none" style="stroke:#181818;stroke-width:1.0;"/><rect fill="#F1F1F1" height="36.4883" rx="12.5" ry="12.5" style="stroke:#181818;stroke-width:1.5;" width="104" x="276" y="444.8828"/><text fill="#000000" font-family="sans-serif" font-size="14" lengthAdjust="spacing" textLength="84" x="286" y="468.418">策划优质选题</text><rect fill="#F1F1F1" height="52.9766" rx="12.5" ry="12.5" style="stroke:#181818;stroke-width:1.5;" width="104" x="430" y="351.9063"/><text fill="#000000" font-family="sans-serif" font-size="14" lengthAdjust="spacing" textLength="84" x="440" y="375.4414">挖掘用户痛点</text><text fill="#000000" font-family="sans-serif" font-size="14" lengthAdjust="spacing" textLength="84" x="440" y="391.9297">激发你的恐惧</text><rect fill="#F1F1F1" height="36.4883" rx="12.5" ry="12.5" style="stroke:#181818;stroke-width:1.5;" width="76" x="584" y="270.6855"/><text fill="#000000" font-family="sans-serif" font-size="14" lengthAdjust="spacing" textLength="56" x="594" y="294.2207">个体痛点</text><rect fill="#F1F1F1" height="85.9531" rx="12.5" ry="12.5" style="stroke:#181818;stroke-width:1.5;" width="76" x="710" y="245.9531"/><text fill="#000000" font-family="sans-serif" font-size="14" lengthAdjust="spacing" textLength="28" x="720" y="269.4883">早起</text><text fill="#000000" font-family="sans-serif" font-size="14" lengthAdjust="spacing" textLength="28" x="720" y="285.9766">失眠</text><text fill="#000000" font-family="sans-serif" font-size="14" lengthAdjust="spacing" textLength="56" x="720" y="302.4648">升职加薪</text><text fill="#000000" font-family="sans-serif" font-size="14" lengthAdjust="spacing" textLength="56" x="720" y="318.9531">认知升级</text><path d="M660,288.9297 L670,288.9297 C685,288.9297 685,288.9297 700,288.9297 L710,288.9297 " fill="none" style="stroke:#181818;stroke-width:1.0;"/><path d="M534,378.3945 L544,378.3945 C559,378.3945 559,288.9297 574,288.9297 L584,288.9297 " fill="none" style="stroke:#181818;stroke-width:1.0;"/><rect fill="#F1F1F1" height="36.4883" rx="12.5" ry="12.5" style="stroke:#181818;stroke-width:1.5;" width="76" x="584" y="368.3945"/><text fill="#000000" font-family="sans-serif" font-size="14" lengthAdjust="spacing" textLength="56" x="594" y="391.9297">群体痛点</text><rect fill="#F1F1F1" height="69.4648" rx="12.5" ry="12.5" style="stroke:#181818;stroke-width:1.5;" width="76" x="710" y="351.9063"/><text fill="#000000" font-family="sans-serif" font-size="14" lengthAdjust="spacing" textLength="56" x="720" y="375.4414">行业变革</text><text fill="#000000" font-family="sans-serif" font-size="14" lengthAdjust="spacing" textLength="56" x="720" y="391.9297">职业淘汰</text><text fill="#000000" font-family="sans-serif" font-size="14" lengthAdjust="spacing" textLength="56" x="720" y="408.418">区域事件</text><path d="M660,386.6387 L670,386.6387 C685,386.6387 685,386.6387 700,386.6387 L710,386.6387 " fill="none" style="stroke:#181818;stroke-width:1.0;"/><path d="M534,378.3945 L544,378.3945 C559,378.3945 559,386.6387 574,386.6387 L584,386.6387 " fill="none" style="stroke:#181818;stroke-width:1.0;"/><rect fill="#F1F1F1" height="36.4883" rx="12.5" ry="12.5" style="stroke:#181818;stroke-width:1.5;" width="76" x="584" y="457.8594"/><text fill="#000000" font-family="sans-serif" font-size="14" lengthAdjust="spacing" textLength="56" x="594" y="481.3945">社会痛点</text><rect fill="#F1F1F1" height="69.4648" rx="12.5" ry="12.5" style="stroke:#181818;stroke-width:1.5;" width="76" x="710" y="441.3711"/><text fill="#000000" font-family="sans-serif" font-size="14" lengthAdjust="spacing" textLength="28" x="720" y="464.9063">个税</text><text fill="#000000" font-family="sans-serif" font-size="14" lengthAdjust="spacing" textLength="42" x="720" y="481.3945">假疫苗</text><text fill="#000000" font-family="sans-serif" font-size="14" lengthAdjust="spacing" textLength="56" x="720" y="497.8828">冠状病毒</text><path d="M660,476.1035 L670,476.1035 C685,476.1035 685,476.1035 700,476.1035 L710,476.1035 " fill="none" style="stroke:#181818;stroke-width:1.0;"/><path d="M534,378.3945 L544,378.3945 C559,378.3945 559,476.1035 574,476.1035 L584,476.1035 " fill="none" style="stroke:#181818;stroke-width:1.0;"/><path d="M380,463.127 L390,463.127 C405,463.127 405,378.3945 420,378.3945 L430,378.3945 " fill="none" style="stroke:#181818;stroke-width:1.0;"/><rect fill="#F1F1F1" height="36.4883" rx="12.5" ry="12.5" style="stroke:#181818;stroke-width:1.5;" width="104" x="430" y="424.8828"/><text fill="#000000" font-family="sans-serif" font-size="14" lengthAdjust="spacing" textLength="84" x="440" y="448.418">巧借热点势能</text><path d="M380,463.127 L390,463.127 C405,463.127 405,443.127 420,443.127 L430,443.127 " fill="none" style="stroke:#181818;stroke-width:1.0;"/><rect fill="#F1F1F1" height="36.4883" rx="12.5" ry="12.5" style="stroke:#181818;stroke-width:1.5;" width="104" x="430" y="559.0801"/><text fill="#000000" font-family="sans-serif" font-size="14" lengthAdjust="spacing" textLength="84" x="440" y="582.6152">引发读者共鸣</text><rect fill="#F1F1F1" height="36.4883" rx="12.5" ry="12.5" style="stroke:#181818;stroke-width:1.5;" width="300" x="584" y="530.8359"/><text fill="#000000" font-family="sans-serif" font-size="14" lengthAdjust="spacing" textLength="280" x="594" y="554.3711">观点能够引发读者共鸣，读者就会产生认同感</text><path d="M534,577.3242 L544,577.3242 C559,577.3242 559,549.0801 574,549.0801 L584,549.0801 " fill="none" style="stroke:#181818;stroke-width:1.0;"/><rect fill="#F1F1F1" height="36.4883" rx="12.5" ry="12.5" style="stroke:#181818;stroke-width:1.5;" width="244" x="584" y="587.3242"/><text fill="#000000" font-family="sans-serif" font-size="14" lengthAdjust="spacing" textLength="224" x="594" y="610.8594">擅于制造读者共鸣，说明更了解读者</text><path d="M534,577.3242 L544,577.3242 C559,577.3242 559,605.5684 574,605.5684 L584,605.5684 " fill="none" style="stroke:#181818;stroke-width:1.0;"/><path d="M380,463.127 L390,463.127 C405,463.127 405,577.3242 420,577.3242 L430,577.3242 " fill="none" style="stroke:#181818;stroke-width:1.0;"/><rect fill="#F1F1F1" height="36.4883" rx="12.5" ry="12.5" style="stroke:#181818;stroke-width:1.5;" width="104" x="430" y="643.8125"/><text fill="#000000" font-family="sans-serif" font-size="14" lengthAdjust="spacing" textLength="84" x="440" y="667.3477">刷新用户认知</text><rect fill="#F1F1F1" height="36.4883" rx="12.5" ry="12.5" style="stroke:#181818;stroke-width:1.5;" width="412" x="584" y="643.8125"/><text fill="#000000" font-family="sans-serif" font-size="14" lengthAdjust="spacing" textLength="392" x="594" y="667.3477">利用认知差异来触动读者，让读者发现新视角、新认知、新思维</text><path d="M534,662.0566 L544,662.0566 C559,662.0566 559,662.0566 574,662.0566 L584,662.0566 " fill="none" style="stroke:#181818;stroke-width:1.0;"/><path d="M380,463.127 L390,463.127 C405,463.127 405,662.0566 420,662.0566 L430,662.0566 " fill="none" style="stroke:#181818;stroke-width:1.0;"/><path d="M226,653.8125 L236,653.8125 C251,653.8125 251,463.127 266,463.127 L276,463.127 " fill="none" style="stroke:#181818;stroke-width:1.0;"/><rect fill="#F1F1F1" height="36.4883" rx="12.5" ry="12.5" style="stroke:#181818;stroke-width:1.5;" width="132" x="276" y="756.7891"/><text fill="#000000" font-family="sans-serif" font-size="14" lengthAdjust="spacing" textLength="112" x="286" y="780.3242">切好角度赋能选题</text><rect fill="#F1F1F1" height="36.4883" rx="12.5" ry="12.5" style="stroke:#181818;stroke-width:1.5;" width="174" x="458" y="700.3008"/><text fill="#000000" font-family="sans-serif" font-size="14" lengthAdjust="spacing" textLength="154" x="468" y="723.8359">角度越新颖，越有穿透力</text><path d="M408,775.0332 L418,775.0332 C433,775.0332 433,718.5449 448,718.5449 L458,718.5449 " fill="none" style="stroke:#181818;stroke-width:1.0;"/><rect fill="#F1F1F1" height="36.4883" rx="12.5" ry="12.5" style="stroke:#181818;stroke-width:1.5;" width="174" x="458" y="756.7891"/><text fill="#000000" font-family="sans-serif" font-size="14" lengthAdjust="spacing" textLength="154" x="468" y="780.3242">角度越细小，越有说服力</text><path d="M408,775.0332 L418,775.0332 C433,775.0332 433,775.0332 448,775.0332 L458,775.0332 " fill="none" style="stroke:#181818;stroke-width:1.0;"/><rect fill="#F1F1F1" height="36.4883" rx="12.5" ry="12.5" style="stroke:#181818;stroke-width:1.5;" width="174" x="458" y="813.2773"/><text fill="#000000" font-family="sans-serif" font-size="14" lengthAdjust="spacing" textLength="154" x="468" y="836.8125">受众越明确，越有传播力</text><path d="M408,775.0332 L418,775.0332 C433,775.0332 433,831.5215 448,831.5215 L458,831.5215 " fill="none" style="stroke:#181818;stroke-width:1.0;"/><path d="M226,653.8125 L236,653.8125 C251,653.8125 251,775.0332 266,775.0332 L276,775.0332 " fill="none" style="stroke:#181818;stroke-width:1.0;"/><rect fill="#F1F1F1" height="36.4883" rx="12.5" ry="12.5" style="stroke:#181818;stroke-width:1.5;" width="118" x="276" y="934.498"/><text fill="#000000" font-family="sans-serif" font-size="14" lengthAdjust="spacing" textLength="98" x="286" y="958.0332">优质标题的价值</text><rect fill="#F1F1F1" height="36.4883" rx="12.5" ry="12.5" style="stroke:#181818;stroke-width:1.5;" width="286" x="444" y="869.7656"/><text fill="#000000" font-family="sans-serif" font-size="14" lengthAdjust="spacing" textLength="266" x="454" y="893.3008">利用标题吸引读者注意，诱使读者打开文章</text><path d="M394,952.7422 L404,952.7422 C419,952.7422 419,888.0098 434,888.0098 L444,888.0098 " fill="none" style="stroke:#181818;stroke-width:1.0;"/><rect fill="#F1F1F1" height="36.4883" rx="12.5" ry="12.5" style="stroke:#181818;stroke-width:1.5;" width="426" x="444" y="926.2539"/><text fill="#000000" font-family="sans-serif" font-size="14" lengthAdjust="spacing" textLength="406" x="454" y="949.7891">利用传递核心价值，让读者快速了解内容方向，决定是否打开阅读</text><rect fill="#F1F1F1" height="85.9531" rx="12.5" ry="12.5" style="stroke:#181818;stroke-width:1.5;" width="174" x="920" y="901.5215"/><text fill="#000000" font-family="sans-serif" font-size="14" lengthAdjust="spacing" textLength="154" x="930" y="925.0566">思考标题价值观是否正向</text><text fill="#000000" font-family="sans-serif" font-size="14" lengthAdjust="spacing" textLength="112" x="930" y="941.5449">能否引起读者共鸣</text><text fill="#000000" font-family="sans-serif" font-size="14" lengthAdjust="spacing" textLength="112" x="930" y="958.0332">是否传递重要信息</text><text fill="#000000" font-family="sans-serif" font-size="14" lengthAdjust="spacing" textLength="112" x="930" y="974.5215">总结提炼是否到位</text><path d="M870,944.498 L880,944.498 C895,944.498 895,944.498 910,944.498 L920,944.498 " fill="none" style="stroke:#181818;stroke-width:1.0;"/><path d="M394,952.7422 L404,952.7422 C419,952.7422 419,944.498 434,944.498 L444,944.498 " fill="none" style="stroke:#181818;stroke-width:1.0;"/><rect fill="#F1F1F1" height="36.4883" rx="12.5" ry="12.5" style="stroke:#181818;stroke-width:1.5;" width="104" x="444" y="990.9863"/><text fill="#000000" font-family="sans-serif" font-size="14" lengthAdjust="spacing" textLength="84" x="454" y="1014.5215">筛选目标用户</text><rect fill="#F1F1F1" height="52.9766" rx="12.5" ry="12.5" style="stroke:#181818;stroke-width:1.5;" width="104" x="598" y="982.7422"/><text fill="#000000" font-family="sans-serif" font-size="14" lengthAdjust="spacing" textLength="84" x="608" y="1006.2773">明确目标用户</text><text fill="#000000" font-family="sans-serif" font-size="14" lengthAdjust="spacing" textLength="84" x="608" y="1022.7656">明确价值定位</text><path d="M548,1009.2305 L558,1009.2305 C573,1009.2305 573,1009.2305 588,1009.2305 L598,1009.2305 " fill="none" style="stroke:#181818;stroke-width:1.0;"/><path d="M394,952.7422 L404,952.7422 C419,952.7422 419,1009.2305 434,1009.2305 L444,1009.2305 " fill="none" style="stroke:#181818;stroke-width:1.0;"/><path d="M226,653.8125 L236,653.8125 C251,653.8125 251,952.7422 266,952.7422 L276,952.7422 " fill="none" style="stroke:#181818;stroke-width:1.0;"/><rect fill="#F1F1F1" height="36.4883" rx="12.5" ry="12.5" style="stroke:#181818;stroke-width:1.5;" width="104" x="276" y="1153.4277"/><text fill="#000000" font-family="sans-serif" font-size="14" lengthAdjust="spacing" textLength="84" x="286" y="1176.9629">写出爆款标题</text><rect fill="#F1F1F1" height="36.4883" rx="12.5" ry="12.5" style="stroke:#181818;stroke-width:1.5;" width="104" x="430" y="1088.6953"/><text fill="#000000" font-family="sans-serif" font-size="14" lengthAdjust="spacing" textLength="84" x="440" y="1112.2305">引发读者共鸣</text><rect fill="#F1F1F1" height="102.4414" rx="12.5" ry="12.5" style="stroke:#181818;stroke-width:1.5;" width="132" x="584" y="1055.7188"/><text fill="#000000" font-family="sans-serif" font-size="14" lengthAdjust="spacing" textLength="70" x="594" y="1079.2539">替读者说话</text><text fill="#000000" font-family="sans-serif" font-size="14" lengthAdjust="spacing" textLength="98" x="594" y="1095.7422">替读者表达观点</text><text fill="#000000" font-family="sans-serif" font-size="14" lengthAdjust="spacing" textLength="98" x="594" y="1112.2305">替读者传递思想</text><text fill="#000000" font-family="sans-serif" font-size="14" lengthAdjust="spacing" textLength="84" x="594" y="1128.7188">抓住读者想法</text><text fill="#000000" font-family="sans-serif" font-size="14" lengthAdjust="spacing" textLength="112" x="594" y="1145.207">激发认同感和情绪</text><path d="M534,1106.9395 L544,1106.9395 C559,1106.9395 559,1106.9395 574,1106.9395 L584,1106.9395 " fill="none" style="stroke:#181818;stroke-width:1.0;"/><path d="M380,1171.6719 L390,1171.6719 C405,1171.6719 405,1106.9395 420,1106.9395 L430,1106.9395 " fill="none" style="stroke:#181818;stroke-width:1.0;"/><rect fill="#F1F1F1" height="36.4883" rx="12.5" ry="12.5" style="stroke:#181818;stroke-width:1.5;" width="146" x="430" y="1178.1602"/><text fill="#000000" font-family="sans-serif" font-size="14" lengthAdjust="spacing" textLength="126" x="440" y="1201.6953">设置悬念，引发好奇</text><path d="M380,1171.6719 L390,1171.6719 C405,1171.6719 405,1196.4043 420,1196.4043 L430,1196.4043 " fill="none" style="stroke:#181818;stroke-width:1.0;"/><rect fill="#F1F1F1" height="36.4883" rx="12.5" ry="12.5" style="stroke:#181818;stroke-width:1.5;" width="146" x="430" y="1234.6484"/><text fill="#000000" font-family="sans-serif" font-size="14" lengthAdjust="spacing" textLength="126" x="440" y="1258.1836">向读者展示回报价值</text><rect fill="#F1F1F1" height="69.4648" rx="12.5" ry="12.5" style="stroke:#181818;stroke-width:1.5;" width="174" x="626" y="1218.1602"/><text fill="#000000" font-family="sans-serif" font-size="14" lengthAdjust="spacing" textLength="154" x="636" y="1241.6953">能帮助读者解决什么问题</text><text fill="#000000" font-family="sans-serif" font-size="14" lengthAdjust="spacing" textLength="126" x="636" y="1258.1836">为读者提供什么价值</text><text fill="#000000" font-family="sans-serif" font-size="14" lengthAdjust="spacing" textLength="154" x="636" y="1274.6719">为读者带来什么样的启示</text><path d="M576,1252.8926 L586,1252.8926 C601,1252.8926 601,1252.8926 616,1252.8926 L626,1252.8926 " fill="none" style="stroke:#181818;stroke-width:1.0;"/><path d="M380,1171.6719 L390,1171.6719 C405,1171.6719 405,1252.8926 420,1252.8926 L430,1252.8926 " fill="none" style="stroke:#181818;stroke-width:1.0;"/><path d="M226,653.8125 L236,653.8125 C251,653.8125 251,1171.6719 266,1171.6719 L276,1171.6719 " fill="none" style="stroke:#181818;stroke-width:1.0;"/><!--SRC=[TLNRKnfN67_Vls8V4sUIIMoJIV4bKzDsncgRgKdUQQIMcRXc49nfdnO9Lxa94H2aeAAWXbj1mENsn_JSzYd_GhwpPq4qqvUTiz_bzzr-vplFjvnMXtF3hgnjMDzBSp8hxz2TQn9CqfFAvq4M3JAiNT7Le7wS-Kzrqu2FV1gHeXz-fRavcTHZg7U1D4tt3DcPcnm6cVy2Tviq-q40WT6SZ8P5Gv30sXbkD4ccFf5CJBZD8Uffs7S01wPwFm_2-a49QJv0nQMiy2LgdgaUKB5n1kHmPWTx9cofW7eH-99KGpzEWGtaGluzWY_krl1W1uTJPg2U2YbJJnL28sqNzJlOhv7yAOU5M8qyg-_hgW_7zwRXwCSA1u-7frM0FJkgiD78g8y4LLPsmrTFzw4HF7AgSQS-73W76FgnGDfzrAk25ZTY41_WaLRcyZikfeSGq6eEPe1ZQJH8GxVfg2HGUSRrQz5pw1q0wCS-N2YmJejt1DfNFk656RcIT8S48tn6XfP7gxV9OGI7SdoMj9h2WSJim7aC2mcdI3G3cP10bwPpF3ioLd5iJyoGkEF4KrwOzFO23PEc5PU0U_gSNNKbN6hImwA48txc3kDGaQKk95OhqS8fYAWs0O32xWAmep3gPN4ie-VF9N267zBDa6P3mc4DIXKpdFYNHcYGlUNFXrs9IjZjfwbBjfkMiAz8GnsQzf9wOa5qkbl6Qa5G0eV6p3CKui4-bCdgVU0ZzZRrtedPT6CaO0LD_Dg6jrlyDfgGYnWkb0hq8HyA0e4alKYBua17LujV-RP99afoRJ4yeJNvqEKSCGOXMZVBBBEP1jSvEyjdE5GHtXorTcx6YUtHQ0DmM1dW4t2b-Tdm5MSWFUst9GFNZq-7Wk_iQXVglM65R8exeUbzu-V383qVwsfCC6h6YlPzGFUfrIpl8911Qwx9HEbHRMg51aMIg9hi5BmKcmTeX_fTh0vcxedGu7WF9Y9A9QqA-M34h3VHS6mAWqayK4dAJo-BCzuGIbSJfDZ3Ou-0ljMqyQMkchS9-xouTarIrx0Wm0RxMhYMXOs6usS2MyzumKiIv3SsY4XDm09tJEFg2I18d4NnCvxpLVSMquILo4ltH-2Ye_4HSTSbelPfFqbYSRep44Ouq433YA2oM1GqLuEWWYfc9aPhRyc5IAG5DPWGCgmHM8Xt5lt_NWOBoPcTXPcoUbww-JTsZhdFfbApqMgUU5eI2INHC6OEnjCYhNrpjKol2qw4YSTB-nUYEbORqM6Dx7p2uolUV2Cd82a-zOiauvCCc_kqfE7SFoHqUaCLM2RGxbuDXyp16lDieRwAhWDwkiPhXKV8J2WMHwESq9aGKntkyHT0w4YnovTvl0u15wJdDdX8pSTKUldEgZXVhopBspR7bdrJaHy_d7yq_yt3n_TMNOgyP5Na-U_a-KUM9yyiJvxAYwklPAw-BztxwUMolBNfShoroMlsBQV3_hlB2VxtfINhjbN-pQKuxHisY_phUvkozEBdYK3-GTcsEpQL3PlYb9RUhDmOFFtsmVTsfxngSq0cyfiLwONj3wlhdHCytcwksPLrY_pwrOyFdadBLcNTPLq7xB__b1Ot0TVnbqLU_EKB]--></g></svg>